<svg id="Layer_1" data-name="Layer 1" xmlns="http://www.w3.org/2000/svg" xmlns:xlink="http://www.w3.org/1999/xlink" width="1919" height="1080" viewBox="0 0 1919 1080"><defs><style>.cls-1{fill:#96ba51;}.cls-2{fill:#939393;}.cls-3{fill:gray;}.cls-4{fill:url(#linear-gradient);}.cls-12,.cls-5,.cls-6{fill:none;stroke-miterlimit:10;}.cls-5{stroke:#4c9633;}.cls-5,.cls-6{stroke-width:5px;}.cls-6{stroke:#4c9733;}.cls-11,.cls-7{fill:#fff;}.cls-7{opacity:0.6;}.cls-8{fill:url(#linear-gradient-2);}.cls-9{fill:#ffb940;}.cls-10{fill:#ffb147;}.cls-12{stroke:#c6c6c6;stroke-width:3px;}</style><linearGradient id="linear-gradient" x1="-71.5" y1="142.93" x2="2084.85" y2="135.75" gradientUnits="userSpaceOnUse"><stop offset="0" stop-color="#a7f6ff"/><stop offset="0.83" stop-color="#a7f6ff"/><stop offset="0.97" stop-color="#a7f6ff"/><stop offset="1" stop-color="#6ab3ff"/><stop offset="1" stop-color="#00bfff"/></linearGradient><linearGradient id="linear-gradient-2" x1="396.51" y1="381.25" x2="1589.01" y2="1072.04" gradientUnits="userSpaceOnUse"><stop offset="0" stop-opacity="0.2"/><stop offset="0.5" stop-opacity="0.2"/><stop offset="0.52" stop-opacity="0.2"/><stop offset="0.67" stop-opacity="0.2"/><stop offset="0.97" stop-opacity="0.2"/></linearGradient></defs><title>baggrund</title><rect class="cls-1" y="263" width="1920" height="816"/><path class="cls-2" d="M1920,920v159.08c-.19.31-.4.62-.61.94H1676.07c-16.8-7-31.81-17.41-38.76-34.63a.36.36,0,0,1,0-.07,56.69,56.69,0,0,1-3.72-15.61c-1.23-12.47-2.26-23.47-3.13-33.17v0c-4.25-47.73-4.35-64.16-3-71.37v0a17.48,17.48,0,0,1,.77-2.88,23.67,23.67,0,0,1,7.3-10.08l65.14-52.47a19.8,19.8,0,0,1,10-4.36,7.76,7.76,0,0,1,1.17-.13L1843.35,846a19.87,19.87,0,0,1,16.11,6.77l57.84,63.56A24.42,24.42,0,0,1,1920,920Z"/><path id="Sten_skygge" data-name="Sten skygge" class="cls-3" d="M1752.62,1080h-79.95c-15.75-7-29.35-17.56-35.36-34.63a.36.36,0,0,1,0-.07,57.38,57.38,0,0,1-2.84-12.55c-1.59-13.8-2.92-25.79-4-36.23v0c-5.51-52.82-5-65.58-3.1-71.05l.12-.32v0a23.83,23.83,0,0,1,7-9.9l64.28-53.86a20,20,0,0,1,9.93-4.58L1752.6,942Z"/><rect class="cls-4" width="1920" height="279"/><path class="cls-5" d="M1764.5,736.5a36.32,36.32,0,0,0,9-14c2.1-6.08,1.76-10.8,1-20-.79-9.49-2.16-24.2-11-39-2.6-4.36-4.15-5.88-4-6,.58-.47,24.94,19.68,32,49,2.82,11.7,2.2,22,3,22,1,0,0-16,3-35,4.27-27,16-47,18-50,1-1.48-.43,9.91-1,24-1.48,36.24,8.79,71.27,14,71,2.61-.14,5.72-9.22,8-48"/><path class="cls-5" d="M1607.5,499.5a36.32,36.32,0,0,0,9-14c2.1-6.08,1.76-10.8,1-20-.79-9.49-2.16-24.2-11-39-2.6-4.36-4.15-5.88-4-6,.58-.47,24.94,19.68,32,49,2.82,11.7,2.2,22,3,22,1,0,0-16,3-35,4.27-27,16-47,18-50,1-1.48-.43,9.91-1,24-1.48,36.24,8.79,71.27,14,71,2.61-.14,5.72-9.22,8-48"/><path class="cls-5" d="M125.49,414.5a36.32,36.32,0,0,1-9-14c-2.1-6.08-1.76-10.8-1-20,.79-9.49,2.16-24.2,11-39,2.6-4.36,4.15-5.88,4-6-.58-.47-24.94,19.68-32,49-2.82,11.7-2.2,22-3,22-1,0,0-16-3-35-4.27-27-16-47-18-50-1-1.48.43,9.91,1,24,1.48,36.24-8.79,71.27-14,71-2.61-.14-5.72-9.22-8-48"/><path class="cls-5" d="M334.49,414.5a36.32,36.32,0,0,1-9-14c-2.1-6.08-1.76-10.8-1-20,.79-9.49,2.16-24.2,11-39,2.6-4.36,4.15-5.88,4-6-.58-.47-24.94,19.68-32,49-2.82,11.7-2.2,22-3,22-1,0,0-16-3-35-4.27-27-16-47-18-50-1-1.48.43,9.91,1,24,1.48,36.24-8.79,71.27-14,71-2.61-.14-5.72-9.22-8-48"/><path class="cls-5" d="M110.49,571.5a36.32,36.32,0,0,1-9-14c-2.1-6.08-1.76-10.8-1-20,.79-9.49,2.16-24.2,11-39,2.6-4.36,4.15-5.88,4-6-.58-.47-24.94,19.68-32,49-2.82,11.7-2.2,22-3,22-1,0,0-16-3-35-4.27-27-16-47-18-50-1-1.48.43,9.91,1,24,1.48,36.24-8.79,71.27-14,71-2.61-.14-5.72-9.22-8-48"/><path class="cls-5" d="M1799.5,437.5a36.32,36.32,0,0,0,9-14c2.1-6.08,1.76-10.8,1-20-.79-9.49-2.16-24.2-11-39-2.6-4.36-4.15-5.88-4-6,.58-.47,24.94,19.68,32,49,2.82,11.7,2.2,22,3,22,1,0,0-16,3-35,4.27-27,16-47,18-50,1-1.48-.43,9.91-1,24-1.48,36.24,8.79,71.27,14,71,2.61-.14,5.72-9.22,8-48"/><path class="cls-5" d="M184.5,968.5a36.32,36.32,0,0,0,9-14c2.1-6.08,1.76-10.8,1-20-.79-9.49-2.16-24.2-11-39-2.6-4.36-4.15-5.88-4-6,.58-.47,24.94,19.68,32,49,2.82,11.7,2.2,22,3,22,1,0,0-16,3-35,4.27-27,16-47,18-50,1-1.48-.43,9.91-1,24-1.48,36.24,8.79,71.27,14,71,2.61-.14,5.72-9.22,8-48"/><path class="cls-5" d="M36.5,736.5a36.32,36.32,0,0,0,9-14c2.1-6.08,1.76-10.8,1-20-.79-9.49-2.16-24.2-11-39-2.6-4.36-4.15-5.88-4-6,.58-.47,24.94,19.68,32,49,2.82,11.7,2.2,22,3,22,1,0,0-16,3-35,4.27-27,16-47,18-50,1-1.48-.43,9.91-1,24-1.48,36.24,8.79,71.27,14,71,2.61-.14,5.72-9.22,8-48"/><path class="cls-6" d="M1654,747.14a63.16,63.16,0,0,1,9.41,16.73c7.63,20.86-.25,38.6,0,38.63.48,0,18.47-66.15,22.58-81.11a64.41,64.41,0,0,1,3.76-10.3c1.88-2.58-3.41,51.81-5.64,70.81-.48,4.06,3.46,20.16,5.64,20.6,3.34.67,13.17-30.9,13.17-28.33,0,1.64-.2,6.27,3.76,12.88,3.83,6.39,11.83,10.37,18.82,12.87"/><path class="cls-6" d="M1690,549.14a63.16,63.16,0,0,1,9.41,16.73c7.63,20.86-.25,38.6,0,38.63.48,0,18.47-66.15,22.58-81.11a64.41,64.41,0,0,1,3.76-10.3c1.88-2.58-3.41,51.81-5.64,70.81-.48,4.06,3.46,20.16,5.64,20.6,3.34.67,13.17-30.9,13.17-28.33,0,1.64-.2,6.27,3.76,12.88,3.83,6.39,11.83,10.37,18.82,12.87"/><path class="cls-6" d="M39,933.14a63.16,63.16,0,0,1,9.41,16.73c7.63,20.86-.25,38.6,0,38.63.48,0,18.47-66.15,22.58-81.11a64.41,64.41,0,0,1,3.76-10.3c1.88-2.58-3.41,51.81-5.64,70.81-.48,4.06,3.46,20.16,5.64,20.6,3.34.67,13.17-30.9,13.17-28.33,0,1.64-.2,6.27,3.76,12.88,3.83,6.39,11.83,10.37,18.82,12.87"/><path class="cls-6" d="M160,747.14a63.16,63.16,0,0,1,9.41,16.73c7.63,20.86-.25,38.6,0,38.63.48,0,18.47-66.15,22.58-81.11a64.41,64.41,0,0,1,3.76-10.3c1.88-2.58-3.41,51.81-5.64,70.81-.48,4.06,3.46,20.16,5.64,20.6,3.34.67,13.17-30.9,13.17-28.33,0,1.64-.2,6.27,3.76,12.88,3.83,6.39,11.83,10.37,18.82,12.87"/><path class="cls-6" d="M309.5,487.14a63.16,63.16,0,0,0-9.41,16.73c-7.63,20.86.25,38.6,0,38.63-.48,0-18.47-66.15-22.58-81.11a64.41,64.41,0,0,0-3.76-10.3c-1.88-2.58,3.41,51.81,5.64,70.81.48,4.06-3.46,20.16-5.64,20.6-3.34.67-13.17-30.9-13.17-28.33,0,1.64.2,6.27-3.76,12.88C253,533.44,245,537.42,238,539.92"/><path class="cls-6" d="M216.5,449.14a63.16,63.16,0,0,0-9.41,16.73c-7.63,20.86.25,38.6,0,38.63-.48.05-18.47-66.15-22.58-81.11a64.41,64.41,0,0,0-3.76-10.3c-1.88-2.58,3.41,51.81,5.64,70.81.48,4.06-3.46,20.16-5.64,20.6-3.34.67-13.17-30.9-13.17-28.33,0,1.64.2,6.27-3.76,12.88C160,495.44,152,499.42,145,501.92"/><path class="cls-7" d="M1494.31,102.78c-9.27,2.49-14.22-6.15-25.23-5.57-9,.48-15.37,6.81-16.81,8.35-7.3,7.78-3.75,14.4-8.41,22.29-8.85,14.94-30.21,5.62-42,19.49-11.53,13.51-7.6,41.48,5.61,50.14,6.34,4.15,13.76,3.16,16.82,2.78,43.14-5.37,126.35-2,154.15,0,17.14,1.26,31.39,3.36,44.85-5.57,17.51-11.61,19.54-32.49,19.62-33.42,1.82-22.36-14.48-42.2-30.83-47.35-11.47-3.61-15.82,2.26-25.23-2.78-13.09-7-8.85-20.64-22.42-30.64-8.65-6.38-22.71-9.94-33.63-5.57-4.46,1.78-12.32,8.61-28,22.28C1499,100.47,1497.33,102,1494.31,102.78Z"/><path class="cls-7" d="M483.5,99.85c-8.64,2.41-13.25-6-23.5-5.39-8.41.46-14.31,6.6-15.66,8.09-6.8,7.53-3.49,14-7.83,21.59-8.24,14.48-28.13,5.45-39.16,18.89-10.74,13.08-7.09,40.18,5.22,48.57,5.91,4,12.82,3.07,15.66,2.7,40.19-5.21,117.69-2,143.59,0,16,1.21,29.24,3.25,41.78-5.4,16.3-11.25,18.2-31.48,18.27-32.38,1.69-21.67-13.48-40.89-28.72-45.87-10.68-3.5-14.73,2.18-23.49-2.7-12.2-6.8-8.25-20-20.89-29.69-8.06-6.18-21.15-9.62-31.33-5.39-4.15,1.72-11.47,8.34-26.11,21.59C487.84,97.62,486.31,99.07,483.5,99.85Z"/><path class="cls-7" d="M430.93,190.81c6,.14,6.61.37,8.41,0,6-1.25,7.82-5.5,12.61-8.88,8.22-5.8,13.6-.84,21-4.43,10.5-5.1,18.18-24,12.61-39.94-4.8-13.69-18.78-23.32-29.43-22.18-4.28.45-8.83,2.74-12.61,0-3-2.16-3.16-5.75-4.2-8.88-3.95-11.81-21.77-21.3-33.63-17.74-10.51,3.14-9.29,14.4-21,17.74-8.32,2.37-10.6-2.81-21,0-.92.25-15.22,4.29-16.81,13.32-.74,4.15,1.66,6.91,0,8.87-2.21,2.6-6.95-1.66-12.61,0s-8.62,8.37-12.62,17.75c-3.68,8.66-5.53,13-4.2,17.74,2,7.29,10,13.1,16.82,13.32,3,.09,4.61-.9,8.4,0,1.07.25,4.08,1.07,8.41,4.43,5.8,4.51,5.19,6.75,8.41,8.88,7.83,5.17,16.28-4.9,25.22,0,5.3,2.9,3.73,7.21,8.41,8.87,7.38,2.62,11.57-8,25.22-8.87C421.79,190.59,429.76,190.78,430.93,190.81Z"/><path class="cls-7" d="M859.51,122.38c4.38.12,4.79.31,6.09,0,4.36-1,5.67-4.56,9.14-7.37,6-4.82,9.85-.7,15.22-3.68,7.6-4.24,13.16-20,9.13-33.17-3.47-11.37-13.6-19.36-21.31-18.42-3.1.38-6.39,2.27-9.13,0-2.16-1.8-2.29-4.78-3-7.37-2.86-9.81-15.76-17.69-24.35-14.74-7.61,2.61-6.73,12-15.23,14.74-6,2-7.67-2.34-15.22,0-.67.2-11,3.56-12.18,11.05-.53,3.45,1.21,5.75,0,7.37-1.59,2.16-5-1.37-9.13,0s-6.24,7-9.13,14.74c-2.68,7.2-4,10.79-3.05,14.74,1.48,6,7.22,10.88,12.18,11.06,2.15.07,3.34-.75,6.09,0,.77.21,2.95.89,6.09,3.68,4.2,3.74,3.76,5.6,6.09,7.37,5.67,4.3,11.79-4.07,18.26,0,3.84,2.41,2.71,6,6.09,7.37,5.35,2.17,8.39-6.67,18.27-7.37C852.9,122.2,858.67,122.36,859.51,122.38Z"/><path class="cls-7" d="M823.14,86.53a36,36,0,0,1,0-17.88c1.24-4.63,2.75-10.28,7.74-14.31,8.71-7.06,18.11-1.16,29-9,4-2.84,2.89-3.75,7.74-7.15a40,40,0,0,1,19.33-7.15c7.92-.61,8.54,2.16,19.33,3.57,15.33,2,17.83-3.08,27.07,0,10.68,3.57,9,10.94,19.33,14.31,12.17,4,18.66-4.87,27.06,0,6.87,4,5.13,11.39,15.47,17.89,3.34,2.1,3.67,1.41,7.73,3.57,4.59,2.45,17.2,9.16,19.33,21.47,1.63,9.36-3.09,20.38-11.59,25-12.78,7-34.8,0-34.8,0h0s-4.06-3.37-7.74-3.58c-3.23-.19-3.73,2.2-7.73,3.58-7.07,2.43-13-2.43-15.46,0-1.75,1.7.9,4.34,0,7.15-2.87,8.92-39.88,14.48-54.13,0-4.19-4.25-7.58-11.42-11.6-10.73-1.88.32-2.43,2.1-3.87,3.58-5.86,6-23.33,3.67-34.8-3.58C827.31,105,824.26,91.49,823.14,86.53Z"/><path class="cls-7" d="M1301.35,148.58a63.83,63.83,0,0,1,0-26c1.46-6.71,3.23-14.9,9.12-20.76,10.28-10.24,21.37-1.67,34.2-13,4.7-4.14,3.41-5.46,9.12-10.38,3.19-2.75,11.7-9.34,22.8-10.39,9.35-.88,10.07,3.14,22.81,5.2,18.08,2.91,21-4.48,31.92,0,12.6,5.18,10.6,15.86,22.8,20.76,14.35,5.75,22-7.07,31.92,0,8.11,5.77,6,16.53,18.24,26,4,3,4.33,2,9.13,5.19,5.41,3.55,20.28,13.29,22.8,31.14,1.91,13.59-3.65,29.58-13.68,36.34-15.07,10.13-41,0-41,0h0s-4.78-4.89-9.12-5.19c-3.81-.28-4.4,3.19-9.12,5.19-8.33,3.53-15.31-3.53-18.24,0-2,2.47,1.06,6.3,0,10.38-3.38,12.94-47,21-63.85,0-4.93-6.17-8.93-16.57-13.68-15.57-2.21.46-2.86,3.05-4.56,5.19-6.91,8.73-27.51,5.33-41-5.19C1306.27,175.37,1302.67,155.78,1301.35,148.58Z"/><path class="cls-8" d="M1579.17,1001H343.11c-48.15,0-40.13-42.66-33.29-90.33l69.37-483.8A79.1,79.1,0,0,1,457.49,359H1474.41A79.1,79.1,0,0,1,1553,428.88l56.77,483.8C1615.24,959.7,1626.51,1001,1579.17,1001Z"/><path class="cls-9" d="M1580.17,983H344.11C296,983,304,940.34,310.82,892.67l69.37-483.8A79.1,79.1,0,0,1,458.49,341H1475.41A79.1,79.1,0,0,1,1554,410.88l56.77,483.8C1616.24,941.7,1627.51,983,1580.17,983Z"/><path class="cls-10" d="M928.34,341A32.66,32.66,0,0,1,961,373.66V917a284.09,284.09,0,0,1-2.51,37.85A32.55,32.55,0,0,1,926.15,983H337.74c-44.27,0-33.28-42.66-27-90.33l63.79-483.8c5.14-38.95,35.81-67.87,72-67.87Z"/><ellipse class="cls-11" cx="515" cy="433" rx="95" ry="74"/><ellipse class="cls-11" cx="805" cy="433" rx="95" ry="74"/><ellipse class="cls-11" cx="1395" cy="433" rx="95" ry="74"/><ellipse class="cls-11" cx="1428" cy="643" rx="95" ry="74"/><ellipse class="cls-11" cx="1427" cy="863" rx="95" ry="74"/><ellipse class="cls-11" cx="1094" cy="863" rx="95" ry="74"/><ellipse class="cls-11" cx="814" cy="863" rx="95" ry="74"/><ellipse class="cls-11" cx="493" cy="863" rx="95" ry="74"/><ellipse class="cls-11" cx="484" cy="638" rx="95" ry="74"/><ellipse class="cls-11" cx="1094" cy="433" rx="95" ry="74"/><ellipse class="cls-12" cx="492.5" cy="860.5" rx="85" ry="64"/><ellipse class="cls-12" cx="814.5" cy="860.5" rx="85" ry="64"/><ellipse class="cls-12" cx="1094.5" cy="860.5" rx="85" ry="64"/><ellipse class="cls-12" cx="1427.5" cy="860.5" rx="85" ry="64"/><ellipse class="cls-12" cx="1427.5" cy="642.5" rx="85" ry="64"/><ellipse class="cls-12" cx="1394.5" cy="432.5" rx="85" ry="64"/><ellipse class="cls-12" cx="1093.5" cy="432.5" rx="85" ry="64"/><ellipse class="cls-12" cx="804.5" cy="432.5" rx="85" ry="64"/><ellipse class="cls-12" cx="514.5" cy="432.5" rx="85" ry="64"/><ellipse class="cls-12" cx="483.5" cy="637.5" rx="85" ry="64"/></svg>