<svg id="Layer_1" data-name="Layer 1" xmlns="http://www.w3.org/2000/svg" width="155" height="155" viewBox="0 0 155 155"><defs><style>.cls-1{fill:#dd0505;}.cls-2{fill:#fff;}</style></defs><ellipse class="cls-1" cx="77" cy="78" rx="57.5" ry="58"/><polygon class="cls-2" points="76.09 33.77 38.93 73.67 42.65 81.51 47.91 75.45 49.15 103.95 70.21 103.95 70.21 84.72 84.46 85.43 84.46 103.95 106.14 103.95 106.14 74.03 109.85 79.02 114.81 75.45 76.09 33.77"/><path class="cls-2" d="M106.4,104.22H84.19V85.68L70.47,85v19.23H48.9V104L47.68,76.12,42.58,82l-4-8.37.13-.13L76.09,33.38l39.12,42.11-5.41,3.89-3.4-4.56Zm-21.68-.53h21.15V73.24l4,5.41,4.5-3.24L76.09,34.16,39.24,73.72,42.71,81l5.43-6.25,1.26,28.91H70V84.44l14.77.74Z"/></svg>