<svg id="Layer_1" data-name="Layer 1" xmlns="http://www.w3.org/2000/svg" width="155" height="155" viewBox="0 0 155 155"><defs><style>.cls-1{fill:#dd0505;}.cls-2{fill:#d30202;}.cls-3{fill:#fff;}</style></defs><path class="cls-1" d="M137.5,78c0,28-22.08,50.93-50.4,53.73q-2.88.28-5.83.29C50.21,132,25,107.86,25,78S50.21,24,81.27,24q3,0,5.83.29C115.42,27.09,137.5,50.07,137.5,78Z"/><path class="cls-2" d="M24.5,78c0,29.84,25.18,54,56.23,54,2,0,3.92-.1,5.84-.29C58.25,129,36.17,106,36.17,78s22.08-50.93,50.4-53.73c-1.92-.19-3.86-.29-5.84-.29C49.68,24,24.5,48.18,24.5,78Z"/><ellipse class="cls-1" cx="83.92" cy="79.13" rx="50.4" ry="52.91"/><polygon class="cls-3" points="57.39 64.03 82.86 44.74 83.92 111.3 57.39 91.04 57.39 64.03"/><path class="cls-3" d="M44.66,91H55.27V65H44.66a3,3,0,0,0-3.18,2.89V88.15A3,3,0,0,0,44.66,91Z"/><path class="cls-3" d="M97.65,98.44l-2-2.25a20.18,20.18,0,0,0,6.92-9.35c3.29-8.76,2-20.56-2.89-25.76a9.45,9.45,0,0,0-3.63-2.46l1.2-2.68a12.68,12.68,0,0,1,4.86,3.26c5.58,6,7.14,18.81,3.47,28.57A23.15,23.15,0,0,1,97.65,98.44Z"/><path class="cls-3" d="M104.63,104.16,102.47,102c5.33-4.49,12-11.94,13.24-22,1.84-14.36-8.66-25-13.25-29L104.64,49c4.94,4.22,16.24,15.74,14.23,31.41C117.47,91.32,110.35,99.35,104.63,104.16Z"/><path class="cls-3" d="M92.28,92.93l-2.45-1.85c5.55-6.06,6.86-15.8,4.92-21.71-1.45-4.42-4.4-6-5.61-6.41l1.23-2.67a12.71,12.71,0,0,1,7.43,8.25C100.28,76.12,97.86,86.83,92.28,92.93Z"/></svg>