<svg id="Layer_1" data-name="Layer 1" xmlns="http://www.w3.org/2000/svg" width="190" height="160" viewBox="0 0 190 160"><defs><style>.cls-1{fill:#c47f5a;}.cls-2,.cls-5{fill:#fff;}.cls-2,.cls-3{stroke:#e2e2e2;stroke-miterlimit:10;}.cls-3{fill:#e1e1e1;}.cls-4{fill:#d43731;}</style></defs><title>boef</title><path class="cls-1" d="M17,83.76c-2.52,6.55-1,13.69-1,13.69,0,2.32-.44,7.46,3.82,12.39,1.67,1.93,2.16,2.19,3.13,2.61,2.52,1.08,5.06.86,7.3,1.3,3.89.77,4.21,4.53,7.3,7.82s3.25,2.77,10.43,4.9a55.2,55.2,0,0,0,24.34,2.6c9.46-.93,22.53-.36,36.5-3.91,10.15-2.57,15.35-9.17,26.77-18.91,10.46-8.92,14.8-11.46,17.73-17s3.26-10.54,3.82-18.26c.69-9.53,1.46-20-1.74-25.43C140.92,21.26,25.36,62,17,83.76Z"/><g id="fedtkant1"><path class="cls-2" d="M17.5,78.05a62.54,62.54,0,0,1,2.43-7.17c2.16-5.84,2.68-6,3.48-9.13,1.27-4.92.21-5.43,1.73-8.47,1.28-2.56,2.16-2.48,3.83-5.87,1.21-2.47,1.15-3.33,2.43-5.22a18.75,18.75,0,0,1,3.82-3.91c3.64-3.17,4.88-5.71,6.61-7.83,4.88-5.94,15-10,24.33-9.78a33.6,33.6,0,0,1,13.21,3.26c5.78,2.66,6.61,4.95,10.43,7.18,5.94,3.45,10.2,1.54,29.55.32,19.78-1.24,23.78.23,26.42,1.63a25.39,25.39,0,0,1,11.47,13.37c5.16,15-8.2,30.51-12.51,35.53-3.82,4.45-3.7,3-19.82,18.26-10.2,9.66-9.5,9.53-11.82,11.09-10.6,7.12-22.19,7.78-34.41,8.47-10.63.6-7.82-1.14-27.12-2.28-2.22-.13-5.69-.31-8.34-2.61-3.09-2.68-1.71-5.35-4.52-7.82-3.58-3.16-7.63-.41-12.51-3.26-3-1.77-4.2-4.42-6.26-9.13-.31-.71-3.57-7.9-2.77-14.56C17.28,79.11,17.5,78.05,17.5,78.05Z"/><path class="cls-3" d="M74.9,120.07A36.11,36.11,0,0,1,68,119.4a138,138,0,0,0-16.48-1.74h-.08c-2.27-.14-5.71-.34-8.37-2.65a7.7,7.7,0,0,1-2.44-4.16,6.78,6.78,0,0,0-2.08-3.66c-1.79-1.58-3.67-1.64-5.84-1.71A13,13,0,0,1,26.09,104c-3.08-1.8-4.23-4.43-6.32-9.21l0-.06c-.83-1.88-3.48-8.5-2.75-14.58.12-.95.31-2,.33-2.07h0a67,67,0,0,1,2.44-7.19c1-2.63,1.63-4.14,2.1-5.24a22.44,22.44,0,0,0,1.38-3.88A22.71,22.71,0,0,0,24,57.1a8.63,8.63,0,0,1,1-3.89,11.47,11.47,0,0,1,1.65-2.49,15.18,15.18,0,0,0,2.17-3.38c.49-1,.77-1.74,1-2.39a12.35,12.35,0,0,1,1.42-2.85,15.89,15.89,0,0,1,3.23-3.4l.63-.54a29.81,29.81,0,0,0,5.12-5.84c.49-.69,1-1.35,1.46-2,5-6.06,15-10.1,24.48-9.85a33.47,33.47,0,0,1,13.28,3.28,25.27,25.27,0,0,1,6.77,4.44A22.9,22.9,0,0,0,89.89,31c4.26,2.47,7.61,2.16,16.56,1.33,3.37-.31,7.57-.7,12.89-1,20.95-1.31,24.3.47,26.52,1.65a25.4,25.4,0,0,1,11.55,13.46c5.19,15-8.16,30.58-12.55,35.69A34.85,34.85,0,0,1,140,86.8c-2.39,2-6.4,5.46-14.93,13.54-4.43,4.19-6.83,6.56-8.27,8a20,20,0,0,1-3.57,3.12c-10.65,7.15-22.24,7.81-34.51,8.5C77.2,120,76,120.07,74.9,120.07Zm-57.23-42h0c0,.12-.22,1.11-.33,2-.73,6,1.9,12.56,2.72,14.43l0,.06c2.06,4.71,3.2,7.31,6.19,9a12.52,12.52,0,0,0,6.47,1.49c2.15.06,4.18.12,6.07,1.79A7.1,7.1,0,0,1,41,110.76a7.42,7.42,0,0,0,2.35,4c2.57,2.23,5.93,2.43,8.16,2.56h.07a138.52,138.52,0,0,1,16.52,1.74,38.35,38.35,0,0,0,10.58.54c12.22-.69,23.76-1.35,34.32-8.45a19.46,19.46,0,0,0,3.53-3.08c1.44-1.41,3.84-3.79,8.27-8,8.54-8.09,12.55-11.51,15-13.55a34.9,34.9,0,0,0,4.85-4.7c4.36-5.07,17.62-20.52,12.49-35.38A25.1,25.1,0,0,0,145.69,33.2c-2.77-1.47-7.09-2.81-26.33-1.6-5.31.33-9.5.72-12.87,1-9,.83-12.42,1.15-16.78-1.38A23.22,23.22,0,0,1,86,28.47a25.09,25.09,0,0,0-6.69-4.39,33.25,33.25,0,0,0-13.14-3.24c-9.34-.26-19.29,3.73-24.19,9.71-.5.61-1,1.26-1.45,1.95a29.79,29.79,0,0,1-5.18,5.9l-.63.54a15.26,15.26,0,0,0-3.16,3.34,11.6,11.6,0,0,0-1.39,2.78,24.55,24.55,0,0,1-1,2.42,15.13,15.13,0,0,1-2.21,3.44,11.58,11.58,0,0,0-1.61,2.42,8.47,8.47,0,0,0-1,3.78,22.91,22.91,0,0,1-.76,4.67,22.91,22.91,0,0,1-1.39,3.92c-.47,1.1-1.12,2.6-2.09,5.22A64,64,0,0,0,17.67,78.08Z"/></g><g id="fedtkant2"><path class="cls-4" d="M35.57,45.78a47.84,47.84,0,0,1,6.61-8.48A45.91,45.91,0,0,1,53,29.15c4.12-2.2,8-4.28,13.56-4.56,1.15-.06,9.42-.39,16,4.23a58,58,0,0,0,5.91,4.24,46.37,46.37,0,0,0,7,3.26c2.51.9,9.56,2.77,34.07,0,3.32-.37,5.76-.69,9,0a23.55,23.55,0,0,1,12.17,7.18c1.94,2.07,5.52,5.89,5.91,11.41.37,5.22-2.32,9.18-5.91,14.34-2.13,3-3.78,4.75-9,10.11-14.72,15-17.17,17.29-20.51,20.21-5.29,4.62-7.94,6.93-10.08,8.15-3.46,2-8.54,4.14-26.77,5.54-17.53,1.35-26.38,1.95-30.94-2s-3.34-7.86-9-11.09c-5.25-3-8.73-1-13.55-3.58-5.29-2.85-8.25-8.71-8.7-13.7-.25-2.85.64-5.7,2.44-11.41.36-1.14,1-3.1,3.47-9.13C31.47,53.76,33.29,49.36,35.57,45.78Z"/></g><g id="fedtklump_1" data-name="fedtklump 1"><path class="cls-5" d="M81.29,29.64c1.42,4.5,2.68,7.3,3.3,7.66,1.42.84,2.71.76,3.47,2,.92,1.42.23,3.31,0,3.91-.7,1.92-1.78,2-3.12,4.56-.83,1.59-.47,1.67-1,2.29-1.65,1.78-4.06.58-5.91,2.28-1,.92-1.67,2.54-1,3.58s2.57,1.23,3.82,1c2.2-.43,3.19-2.14,4.52-3.58,2.06-2.22,4.85-3.22,10.43-5.22,6.83-2.45,7.15-1,11.82-3.26,1.86-.92,3.69-2.08,6.61-2.28,1.94-.14,2.59.27,4.17,0,.74-.13,3-.63,5.91-3.91.78-.88-2.5,1.86,1.56-1.15,6.61-4.89-7.65,1.63-18.07,1C104,38.21,80,25.64,81.29,29.64Z"/><rect class="cls-5" x="103.5" y="34.5" width="15" height="5"/></g><g id="fedtklump_2" data-name="fedtklump 2"><ellipse class="cls-5" cx="94.84" cy="85.71" rx="8.52" ry="5.38"/></g></svg>