<svg id="Layer_1" data-name="Layer 1" xmlns="http://www.w3.org/2000/svg" width="190" height="160" viewBox="0 0 190 160"><defs><style>.cls-1{fill:#649a43;}.cls-2{fill:#3c6f20;}</style></defs><title>broccoli</title><g id="Stilken"><path class="cls-1" d="M32.14,120.86c-.72-3.75,6.06-8.12,10.49-15.2a24.94,24.94,0,0,0,1.64-3.06,28.35,28.35,0,0,0,1.83-5.85c1.47-7.82.28-21.91.28-21.91-.68-8.09-1.24-10.6.41-11.88,2.13-1.64,7.23-.69,10.28.52,0,0,.18,0,.24.1.26.42-.54,1.86-.7,2.64-1.28,6.23-4.15,14,.85,18.69.38.34,1.85,1.72,2.88,1.24.81-.39.63-1.67,1.62-3.31,3.56-5.92,1.73-2.59,2.1-3.39,2.22-4.67,3.1-9.74,6.16-11.66,4.24-2.67,14.34,5.3,13.35,8.14-.25.71-1,.72-2.49,2.21a13,13,0,0,0-2.54,4c-2.69,6-11.77,16-10.15,18.16,2.37,3.07,26.64-11.91,28.33-9.12.23.37,0,1,.55,2.66.62,1.93,1.28,2.16,1.3,2.78.15,3.5-20.36,7.81-27.13,13.18a25.29,25.29,0,0,1-4.27,1.77c-2.8,1.13-3.68,1.14-5.47,2.24-1.48.91-1.62,2-3.41,5.14a58,58,0,0,1-5.35,7.74c-2.7,3.25-4.67,5.61-7.09,5.55-1.34,0-2.34-.8-4.23-2.25A24.93,24.93,0,0,1,38,126.34C33.72,121.7,32.45,122.48,32.14,120.86Z"/></g><g id="hovedet"><path class="cls-2" d="M60.57,66C64.14,71.39,64.74,79,72,81.78c3.33,1.28,7.7,4.39,11.12,3.77.84-.15,1.89-.32,2.44-.44.91-.2,1.41,2.63,3.58,3.12.94.22,1.12-.26,1.73-.06,2.29.75-.2,7.35,3,13a28.93,28.93,0,0,0,3.2,4.19c1,1.16,2.74,3.52,4.24,4.51,4.72,3.12,10,2.2,12.15,1.83,6.41-1.11,15.17-5.78,17.42-13.18,2.81-9.25-5.92-18.24-2.21-22,1-1,1.85-.47,4.06-1.49,6.4-2.94,8.53-11.87,8.76-12.88,2.13-9.45-2.76-20.23-10-22.81-5.63-2-12.49,1-13.34-1.36-.3-.84.47-1.48.92-2.93,1.28-4.23-1.84-10.22-6.16-12.71-6.41-3.69-14.22,1.11-16.75-3-.51-.82-.18-1-.76-2.37-1.94-4.56-7-6.27-8.47-6.77-8.28-2.79-19.14,1.22-22.59,7.09-1,1.68-3.2,5.41-2.61,8.32.07.32.29,1.24,0,1.45-.48.31-1.86-1.25-2.44-1.82-3.19-3.16-8.81-2.78-10.25-2.68-8.7.59-14.41,10.07-14.94,11-3.92,6.7-5.34,16.83-.06,23.87,6.51,8.68,19.4,7.63,21.64,6.66a3.73,3.73,0,0,1,1.95-.36A4.51,4.51,0,0,1,60.57,66Z"/></g></svg>