<svg id="Layer_1" data-name="Layer 1" xmlns="http://www.w3.org/2000/svg" width="155" height="155" viewBox="0 0 155 155"><defs><style>.cls-1{fill:#dd0505;}.cls-2{fill:#fff;}</style></defs><ellipse class="cls-1" cx="80" cy="81.07" rx="59.5" ry="58.07"/><path class="cls-2" d="M81.12,117.88c-13,.67-25.78-5.77-32-16.63a31.77,31.77,0,0,1-3.9-17.34l7.67.36a24.39,24.39,0,0,0,3,13.33c5.4,9.5,18.05,14.73,29.43,12.17,11.82-2.67,20.91-13.26,21.15-24.65.26-11.7-8.74-19.58-10.55-21.05a29.59,29.59,0,0,0-16.78-6.36l.45-7.48a37.41,37.41,0,0,1,21.24,8.07c2.28,1.85,13.65,11.83,13.32,27-.32,15-11.73,28.34-27.12,31.81A36.07,36.07,0,0,1,81.12,117.88Z"/><polygon class="cls-2" points="93.46 44.35 88.69 70.07 65 53.09 93.46 44.35"/></svg>