<svg id="Layer_1" data-name="Layer 1" xmlns="http://www.w3.org/2000/svg" xmlns:xlink="http://www.w3.org/1999/xlink" width="1920" height="1080" viewBox="0 0 1920 1080"><defs><style>.cls-1{fill:#94faff;}.cls-2{fill:#96ba51;}.cls-3{fill:#d3945d;}.cls-10,.cls-26,.cls-27,.cls-4,.cls-5{fill:none;}.cls-4{stroke:#4c9633;}.cls-10,.cls-13,.cls-16,.cls-17,.cls-24,.cls-26,.cls-27,.cls-33,.cls-36,.cls-37,.cls-4,.cls-5{stroke-miterlimit:10;}.cls-4,.cls-5{stroke-width:5px;}.cls-5{stroke:#4c9733;}.cls-6{fill:url(#linear-gradient);}.cls-7{fill:#f4b0cc;}.cls-8{fill:#eda2c0;}.cls-13,.cls-16,.cls-37,.cls-9{fill:#fff;}.cls-10{stroke:#c6c6c6;stroke-width:3px;}.cls-11{fill:#f7c026;opacity:0.85;}.cls-12{fill:#ffc112;}.cls-13{stroke:#fff;}.cls-14{opacity:0.8;}.cls-15{fill:#cf7b52;}.cls-16,.cls-17{stroke:#e1e1e1;}.cls-17{fill:#e0e0e0;}.cls-18{fill:#e71d24;}.cls-19{fill:#7ba02a;}.cls-20{fill:#8c6239;}.cls-21{fill:#603813;}.cls-22{fill:#e8c4a6;}.cls-23{fill:#efd4b6;}.cls-24,.cls-36,.cls-37{stroke:#000;}.cls-25{fill:#e2ba93;}.cls-26,.cls-27{stroke:#e2ba93;}.cls-26{stroke-width:6px;}.cls-27{stroke-width:7px;}.cls-28{fill:#d00602;}.cls-29{fill:#688faf;}.cls-30{fill:#f4dd56;}.cls-31{fill:#f2f2f2;}.cls-32{fill:#333;}.cls-33{fill:#006837;stroke:#006837;}.cls-34{fill:#daa374;}.cls-35{fill:#24242e;}.cls-36,.cls-37{stroke-width:0.75px;}.cls-38{fill:#6b6f79;}.cls-39{fill:#d10023;}.cls-40{opacity:0.9;}.cls-41{fill:#649a43;}.cls-42{fill:#3c6f20;}.cls-43{fill:#a51616;}.cls-44{fill:red;}</style><linearGradient id="linear-gradient" x1="1226.9" y1="724.34" x2="1758.19" y2="1032.1" gradientUnits="userSpaceOnUse"><stop offset="0" stop-opacity="0.2"/><stop offset="0.5" stop-opacity="0.2"/><stop offset="0.52" stop-opacity="0.2"/><stop offset="0.67" stop-opacity="0.2"/><stop offset="0.97" stop-opacity="0.2"/></linearGradient></defs><rect class="cls-1" width="1920" height="705"/><rect class="cls-2" x="-2" y="439" width="1920" height="641" transform="translate(1916 1519) rotate(-180)"/><polyline class="cls-3" points="724.41 960.48 734.66 959.46 731.53 954.12"/><path class="cls-4" d="M558.67,1017.46a36.43,36.43,0,0,1-9-14c-2.1-6.08-1.76-10.81-1-20,.79-9.49,2.17-24.21,11-39,2.61-4.36,4.16-5.88,4-6-.58-.47-24.94,19.67-32,49-2.82,11.7-2.19,22-3,22-1,0,0-16.05-3-35-4.27-27-16-47-18-50-1-1.49.43,9.9,1,24,1.48,36.24-8.78,71.27-14,71-2.61-.14-5.72-9.22-8-48"/><path class="cls-4" d="M184.67,862.46a36.43,36.43,0,0,1-9-14c-2.1-6.08-1.76-10.81-1-20,.79-9.49,2.17-24.21,11-39,2.61-4.36,4.16-5.88,4-6-.58-.47-24.94,19.67-32,49-2.82,11.7-2.19,22-3,22-1,0,0-16.05-3-35-4.27-27-16-47-18-50-1-1.49.43,9.9,1,24,1.48,36.24-8.78,71.27-14,71-2.61-.14-5.72-9.22-8-48"/><path class="cls-4" d="M1315.67,945.46a36.43,36.43,0,0,1-9-14c-2.1-6.08-1.76-10.81-1-20,.79-9.49,2.17-24.21,11-39,2.61-4.36,4.16-5.88,4-6-.58-.47-24.94,19.67-32,49-2.82,11.7-2.19,22-3,22-1,0,0-16.05-3-35-4.27-27-16-47-18-50-1-1.49.43,9.9,1,24,1.48,36.24-8.78,71.27-14,71-2.61-.14-5.72-9.22-8-48"/><path class="cls-4" d="M757.67,1045.46a36.43,36.43,0,0,1-9-14c-2.1-6.08-1.76-10.81-1-20,.79-9.49,2.17-24.21,11-39,2.61-4.36,4.16-5.88,4-6-.58-.47-24.94,19.67-32,49-2.82,11.7-2.19,22-3,22-1,0,0-16.05-3-35-4.27-27-16-47-18-50-1-1.49.43,9.9,1,24,1.48,36.24-8.78,71.27-14,71-2.61-.14-5.72-9.22-8-48"/><path class="cls-4" d="M1487.67,1017.46a36.43,36.43,0,0,1-9-14c-2.1-6.08-1.76-10.81-1-20,.79-9.49,2.17-24.21,11-39,2.61-4.36,4.16-5.88,4-6-.58-.47-24.94,19.67-32,49-2.82,11.7-2.19,22-3,22-1,0,0-16.05-3-35-4.27-27-16-47-18-50-1-1.49.43,9.9,1,24,1.48,36.24-8.78,71.27-14,71-2.61-.14-5.72-9.22-8-48"/><path class="cls-4" d="M558.67,848.46a36.43,36.43,0,0,1-9-14c-2.1-6.08-1.76-10.81-1-20,.79-9.49,2.17-24.21,11-39,2.61-4.36,4.16-5.88,4-6-.58-.47-24.94,19.67-32,49-2.82,11.7-2.19,22-3,22-1,0,0-16.05-3-35-4.27-27-16-47-18-50-1-1.49.43,9.9,1,24,1.48,36.24-8.78,71.27-14,71-2.61-.14-5.72-9.22-8-48"/><path class="cls-4" d="M1785.68,1017.46a36.32,36.32,0,0,0,9-14c2.1-6.08,1.77-10.81,1-20-.78-9.49-2.16-24.21-11-39-2.6-4.36-4.15-5.88-4-6,.58-.47,24.94,19.67,32,49,2.82,11.7,2.2,22,3,22,1,0,0-16.05,3-35,4.27-27,16-47,18-50,1-1.49-.42,9.9-1,24-1.47,36.24,8.79,71.27,14,71,2.61-.14,5.73-9.22,8-48"/><path class="cls-4" d="M1420.68,848.46a36.32,36.32,0,0,0,9-14c2.1-6.08,1.77-10.81,1-20-.78-9.49-2.16-24.21-11-39-2.6-4.36-4.15-5.88-4-6,.58-.47,24.94,19.67,32,49,2.82,11.7,2.2,22,3,22,1,0,0-16.05,3-35,4.27-27,16-47,18-50,1-1.49-.42,9.9-1,24-1.47,36.24,8.79,71.27,14,71,2.61-.14,5.73-9.22,8-48"/><path class="cls-4" d="M1099.68,833.46a36.32,36.32,0,0,0,9-14c2.1-6.08,1.77-10.81,1-20-.78-9.49-2.16-24.21-11-39-2.6-4.36-4.15-5.88-4-6,.58-.47,24.94,19.67,32,49,2.82,11.7,2.2,22,3,22,1,0,0-16.05,3-35,4.27-27,16-47,18-50,1-1.49-.42,9.9-1,24-1.47,36.24,8.79,71.27,14,71,2.61-.14,5.73-9.22,8-48"/><path class="cls-4" d="M221.68,982.46a36.32,36.32,0,0,0,9-14c2.1-6.08,1.77-10.81,1-20-.78-9.49-2.16-24.21-11-39-2.6-4.36-4.15-5.88-4-6,.58-.47,24.94,19.67,32,49,2.82,11.7,2.2,22,3,22,1,0,0-16.05,3-35,4.27-27,16-47,18-50,1-1.49-.42,9.9-1,24-1.47,36.24,8.79,71.27,14,71,2.61-.14,5.73-9.22,8-48"/><path class="cls-5" d="M838.18,977.09a63.11,63.11,0,0,1,9.41,16.74c7.64,20.86-.25,38.6,0,38.62.48,0,18.47-66.15,22.58-81.11a65.62,65.62,0,0,1,3.76-10.29c1.88-2.58-3.41,51.81-5.64,70.81-.48,4.06,3.47,20.15,5.64,20.59,3.34.68,13.17-30.89,13.17-28.32,0,1.64-.2,6.26,3.77,12.87,3.83,6.4,11.82,10.38,18.81,12.88"/><path class="cls-5" d="M1726.18,784.09a63.11,63.11,0,0,1,9.41,16.74c7.64,20.86-.25,38.6,0,38.62.48,0,18.47-66.15,22.58-81.11a65.62,65.62,0,0,1,3.76-10.29c1.88-2.58-3.41,51.81-5.64,70.81-.48,4.06,3.47,20.15,5.64,20.59,3.34.68,13.17-30.89,13.17-28.32,0,1.64-.2,6.26,3.77,12.87,3.83,6.4,11.82,10.38,18.81,12.88"/><path class="cls-5" d="M62.18,968.09a63.11,63.11,0,0,1,9.41,16.74c7.64,20.86-.25,38.6,0,38.62.48,0,18.47-66.15,22.58-81.11a65.62,65.62,0,0,1,3.76-10.29c1.88-2.58-3.41,51.81-5.64,70.81-.48,4.06,3.47,20.15,5.64,20.59,3.34.68,13.17-30.89,13.17-28.32,0,1.64-.2,6.26,3.77,12.87,3.83,6.4,11.82,10.38,18.81,12.88"/><path class="cls-5" d="M1576.18,870.09a63.11,63.11,0,0,1,9.41,16.74c7.64,20.86-.25,38.6,0,38.62.48,0,18.47-66.15,22.58-81.11a65.62,65.62,0,0,1,3.76-10.29c1.88-2.58-3.41,51.81-5.64,70.81-.48,4.06,3.47,20.15,5.64,20.59,3.34.68,13.17-30.89,13.17-28.32,0,1.64-.2,6.26,3.77,12.87,3.83,6.4,11.82,10.38,18.81,12.88"/><path class="cls-5" d="M1097.18,952.09a63.11,63.11,0,0,1,9.41,16.74c7.64,20.86-.25,38.6,0,38.62.48,0,18.47-66.15,22.58-81.11a65.62,65.62,0,0,1,3.76-10.29c1.88-2.58-3.41,51.81-5.64,70.81-.48,4.06,3.47,20.15,5.64,20.59,3.34.68,13.17-30.89,13.17-28.32,0,1.64-.2,6.26,3.77,12.87,3.83,6.4,11.82,10.38,18.81,12.88"/><path class="cls-5" d="M1038.68,977.09a63.39,63.39,0,0,0-9.41,16.74c-7.63,20.86.26,38.6,0,38.62-.48,0-18.47-66.15-22.57-81.11a64.23,64.23,0,0,0-3.77-10.29c-1.88-2.58,3.42,51.81,5.65,70.81.47,4.06-3.47,20.15-5.65,20.59-3.34.68-13.17-30.89-13.17-28.32,0,1.64.2,6.26-3.76,12.87-3.83,6.4-11.83,10.38-18.82,12.88"/><path class="cls-5" d="M411.68,824.09a63.39,63.39,0,0,0-9.41,16.74c-7.63,20.86.26,38.6,0,38.62-.48,0-18.47-66.15-22.57-81.11a64.23,64.23,0,0,0-3.77-10.29c-1.88-2.58,3.42,51.81,5.65,70.81.47,4.06-3.47,20.15-5.65,20.59-3.34.68-13.17-30.89-13.17-28.32,0,1.64.2,6.26-3.76,12.87-3.83,6.4-11.83,10.38-18.82,12.88"/><path class="cls-6" d="M1755.66,997H1201.25c-21.59,0-18-18.55-14.93-39.28l31.11-210.35c2.51-16.93,17.47-29.5,35.12-29.5h456.12c18,0,33.14,13.06,35.23,30.38l25.46,210.35C1771.84,979,1776.89,997,1755.66,997Z"/><path class="cls-7" d="M1756.11,989.13H1201.7c-21.6,0-18-18.55-14.93-39.27l31.11-210.35c2.51-16.94,17.47-29.51,35.12-29.51h456.12c18,0,33.13,13.06,35.23,30.38l25.46,210.35C1772.28,971.17,1777.34,989.13,1756.11,989.13Z"/><path class="cls-8" d="M1463.74,710a14.43,14.43,0,0,1,14.65,14.2V960.45a120.59,120.59,0,0,1-1.12,16.46,14.47,14.47,0,0,1-14.51,12.22H1198.84c-19.85,0-14.92-18.55-12.1-39.27l28.61-210.35c2.3-16.94,16.06-29.51,32.29-29.51Z"/><ellipse class="cls-9" cx="1278.35" cy="750" rx="42.61" ry="32.17"/><ellipse class="cls-9" cx="1408.42" cy="750" rx="42.61" ry="32.17"/><ellipse class="cls-9" cx="1673.05" cy="750" rx="42.61" ry="32.17"/><ellipse class="cls-9" cx="1687.85" cy="841.3" rx="42.61" ry="32.17"/><ellipse class="cls-9" cx="1687.4" cy="936.96" rx="42.61" ry="32.17"/><ellipse class="cls-9" cx="1538.05" cy="936.96" rx="42.61" ry="32.17"/><ellipse class="cls-9" cx="1412.46" cy="936.96" rx="42.61" ry="32.17"/><ellipse class="cls-9" cx="1268.48" cy="936.96" rx="42.61" ry="32.17"/><ellipse class="cls-9" cx="1264.44" cy="839.13" rx="42.61" ry="32.17"/><ellipse class="cls-9" cx="1538.05" cy="750" rx="42.61" ry="32.17"/><ellipse class="cls-10" cx="1268.26" cy="935.87" rx="38.12" ry="27.83"/><ellipse class="cls-10" cx="1412.68" cy="935.87" rx="38.12" ry="27.83"/><ellipse class="cls-10" cx="1538.27" cy="935.87" rx="38.12" ry="27.83"/><ellipse class="cls-10" cx="1687.63" cy="935.87" rx="38.12" ry="27.83"/><ellipse class="cls-10" cx="1687.63" cy="841.09" rx="38.12" ry="27.83"/><ellipse class="cls-10" cx="1672.83" cy="749.78" rx="38.12" ry="27.83"/><ellipse class="cls-10" cx="1537.82" cy="749.78" rx="38.12" ry="27.83"/><ellipse class="cls-10" cx="1408.2" cy="749.78" rx="38.12" ry="27.83"/><ellipse class="cls-10" cx="1278.12" cy="749.78" rx="38.12" ry="27.83"/><ellipse class="cls-10" cx="1264.22" cy="838.91" rx="38.12" ry="27.83"/><circle class="cls-11" cx="1847" cy="48" r="140"/><circle class="cls-12" cx="1844.5" cy="109.5" r="2.5"/><ellipse class="cls-9" cx="1184.5" cy="530" rx="18.5" ry="16"/><ellipse class="cls-13" cx="1132.5" cy="521.5" rx="11" ry="8"/><g class="cls-14"><path class="cls-15" d="M1548.67,767.76c4.19-1,6.34-3.6,11-7.41,4.31-3.5,6.11-4.49,7.31-6.64s1.34-4.12,1.56-7.13c.28-3.73.58-7.82-.75-9.93-6-9.5-53.72,6.53-57.16,15.05a10.13,10.13,0,0,0-.42,5.35,6.37,6.37,0,0,0,1.59,4.83,3,3,0,0,0,1.3,1,13.82,13.82,0,0,0,3,.51c1.61.29,1.74,1.76,3,3s1.34,1.08,4.32,1.9"/><g id="fedtkant1"><path class="cls-16" d="M1510.89,749.47a23.5,23.5,0,0,1,1-2.8c.88-2.29,1.1-2.37,1.42-3.57.52-1.92.09-2.12.71-3.31.53-1,.89-1,1.58-2.3a13.87,13.87,0,0,1,1-2,7.47,7.47,0,0,1,1.57-1.53,18.16,18.16,0,0,0,2.73-3.06c2-2.33,6.17-3.94,10-3.85a14.45,14.45,0,0,1,5.46,1.26c2.4,1,2.74,1.92,4.32,2.79,2.46,1.34,4.22.59,12.22.09,8.18-.51,9.83.06,10.93.61a10.11,10.11,0,0,1,4.76,5.2c2.14,5.84-3.36,11.93-5.14,13.89-1.57,1.74-1.53,1.18-8.17,7.15-4.21,3.79-3.92,3.74-4.88,4.35-4.38,2.79-9.17,3.06-14.22,3.35-4.39.24-3.24-.44-11.21-.87a5.73,5.73,0,0,1-3.46-1c-1.28-1.05-.71-2.09-1.87-3.05-1.49-1.23-3.16-.16-5.18-1.26-1.26-.69-1.74-1.72-2.6-3.56a11.59,11.59,0,0,1-1.16-5.68C1510.8,749.89,1510.89,749.47,1510.89,749.47Z"/><path class="cls-17" d="M1534.67,765.81a16,16,0,0,1-2.84-.25,59.9,59.9,0,0,0-6.82-.66h0a5.8,5.8,0,0,1-3.47-1,3,3,0,0,1-1-1.62,2.67,2.67,0,0,0-.86-1.43,3.61,3.61,0,0,0-2.42-.66,5.55,5.55,0,0,1-2.75-.59c-1.28-.7-1.76-1.72-2.63-3.59v0a11.53,11.53,0,0,1-1.15-5.69c0-.37.13-.77.14-.81h0a22.8,22.8,0,0,1,1-2.81c.4-1,.66-1.62.86-2a8.64,8.64,0,0,0,.56-1.52,8.21,8.21,0,0,0,.31-1.8,3.1,3.1,0,0,1,.41-1.52,4.13,4.13,0,0,1,.68-1,6,6,0,0,0,.89-1.33,8,8,0,0,0,.42-.93,4.48,4.48,0,0,1,.59-1.11,6.49,6.49,0,0,1,1.33-1.34l.26-.21a12.17,12.17,0,0,0,2.11-2.28c.2-.27.39-.53.6-.77,2.05-2.37,6.21-4,10.11-3.87a14.54,14.54,0,0,1,5.5,1.26,10.43,10.43,0,0,1,2.8,1.73,9.39,9.39,0,0,0,1.52,1.06c1.77,1,3.15.84,6.85.51,1.39-.13,3.13-.29,5.33-.42,8.66-.54,10,.15,11,.61a10,10,0,0,1,4.79,5.24c2.17,5.87-3.34,11.95-5.14,13.95a14.38,14.38,0,0,1-2,1.86c-1,.8-2.64,2.14-6.16,5.3-1.83,1.64-2.82,2.57-3.41,3.13a8.06,8.06,0,0,1-1.48,1.22c-4.39,2.8-9.18,3.07-14.26,3.36C1535.62,765.79,1535.11,765.81,1534.67,765.81ZM1511,749.48h0s-.09.44-.14.8a11.31,11.31,0,0,0,1.15,5.63v0c.86,1.83,1.33,2.85,2.57,3.52a5.44,5.44,0,0,0,2.67.58,3.67,3.67,0,0,1,2.51.69,2.76,2.76,0,0,1,.91,1.48,2.83,2.83,0,0,0,1,1.57,5.66,5.66,0,0,0,3.38,1h0a62.47,62.47,0,0,1,6.83.66,16.38,16.38,0,0,0,4.38.2c5-.28,9.82-.55,14.18-3.34a8.14,8.14,0,0,0,1.45-1.2c.6-.56,1.59-1.49,3.41-3.13,3.53-3.17,5.18-4.51,6.17-5.31a13.08,13.08,0,0,0,2-1.84c1.8-2,7.26-8,5.13-13.83a10,10,0,0,0-4.73-5.17c-1.14-.57-2.93-1.09-10.88-.6-2.2.14-3.93.3-5.33.42-3.73.34-5.13.46-6.93-.52a8.93,8.93,0,0,1-1.55-1.08,10,10,0,0,0-2.77-1.7,14.32,14.32,0,0,0-5.43-1.26c-3.87-.09-8,1.49-10,3.83-.2.23-.39.49-.59.76a12.15,12.15,0,0,1-2.14,2.31l-.26.21a6,6,0,0,0-1.3,1.31,4.22,4.22,0,0,0-.57,1.08,8.41,8.41,0,0,1-.43.95,5.54,5.54,0,0,1-.91,1.34,4.81,4.81,0,0,0-.66.95,3.14,3.14,0,0,0-.4,1.48,8.44,8.44,0,0,1-.31,1.82,8.86,8.86,0,0,1-.57,1.54c-.19.43-.46,1-.86,2A24.83,24.83,0,0,0,1511,749.48Z"/></g><g id="fedtkant2"><path class="cls-18" d="M1518.33,736.85a18.66,18.66,0,0,1,7.17-6.51,13,13,0,0,1,5.6-1.8,11.8,11.8,0,0,1,6.61,1.63,22.83,22.83,0,0,0,2.45,1.65,19.88,19.88,0,0,0,2.88,1.27c1,.35,4,1.07,14.09,0a11.12,11.12,0,0,1,3.73,0,9.76,9.76,0,0,1,5,2.79,7.19,7.19,0,0,1,2.46,4.44c.16,2-.95,3.59-2.43,5.61a30,30,0,0,1-3.73,4c-6.07,5.87-7.08,6.77-8.46,7.91a32,32,0,0,1-4.16,3.2c-1.42.77-3.52,1.62-11.06,2.19-7.24.55-10.9.79-12.79-.73s-1.39-3.06-3.75-4.31c-2.18-1.16-3.61-.38-5.61-1.39a6.88,6.88,0,0,1-3.61-5.34c-.11-1.11.26-2.22,1-4.45.15-.45.42-1.21,1.43-3.57A42.14,42.14,0,0,1,1518.33,736.85Z"/></g><g id="fedtklump_1" data-name="fedtklump 1"><path class="cls-9" d="M1537.21,730.49a8.61,8.61,0,0,0,1.37,3c.59.33,1.13.3,1.44.76a1.69,1.69,0,0,1,0,1.53c-.29.75-.74.77-1.29,1.79-.34.62-.19.65-.43.89-.68.7-1.68.23-2.44.9-.41.36-.69,1-.43,1.4s1.07.47,1.58.37c.91-.17,1.32-.84,1.87-1.4.85-.87,2-1.26,4.31-2.05,2.82-1,3-.38,4.88-1.29a6.85,6.85,0,0,1,2.73-.89c.8-.06,1.07.1,1.72,0A4.37,4.37,0,0,0,1555,734c.33-.35-1,.73.65-.45,2.72-1.92-3.16.64-7.48.4C1546.63,733.82,1536.68,728.93,1537.21,730.49Z"/><rect class="cls-9" x="1546.4" y="732.36" width="6.2" height="1.95" transform="matrix(1, 0, 0, 1, -2, 4.25)"/></g><g id="fedtklump_2" data-name="fedtklump 2"><ellipse class="cls-9" cx="1542.88" cy="752.37" rx="3.52" ry="2.1" transform="translate(-2.06 4.23) rotate(-0.16)"/></g></g><g class="cls-14"><path class="cls-15" d="M1697.67,859.76c4.19-1,6.34-3.6,11-7.41,4.31-3.5,6.11-4.49,7.31-6.64s1.34-4.12,1.56-7.13c.28-3.73.58-7.82-.75-9.93-6-9.5-53.72,6.53-57.16,15.05a10.13,10.13,0,0,0-.42,5.35,6.37,6.37,0,0,0,1.59,4.83,3,3,0,0,0,1.3,1,13.82,13.82,0,0,0,3,.51c1.61.29,1.74,1.76,3,3s1.34,1.08,4.32,1.9"/><g id="fedtkant1-2" data-name="fedtkant1"><path class="cls-16" d="M1659.89,841.47a23.5,23.5,0,0,1,1-2.8c.88-2.29,1.1-2.37,1.42-3.57.52-1.92.09-2.12.71-3.31.53-1,.89-1,1.58-2.3a13.87,13.87,0,0,1,1-2,7.47,7.47,0,0,1,1.57-1.53,18.16,18.16,0,0,0,2.73-3.06c2-2.33,6.17-3.94,10-3.85a14.45,14.45,0,0,1,5.46,1.26c2.4,1,2.74,1.92,4.32,2.79,2.46,1.34,4.22.59,12.22.09,8.18-.51,9.83.06,10.93.61a10.11,10.11,0,0,1,4.76,5.2c2.14,5.84-3.36,11.93-5.14,13.89-1.57,1.74-1.53,1.18-8.17,7.15-4.21,3.79-3.92,3.74-4.88,4.35-4.38,2.79-9.17,3.06-14.22,3.35-4.39.24-3.24-.44-11.21-.87a5.73,5.73,0,0,1-3.46-1c-1.28-1.05-.71-2.09-1.87-3.05-1.49-1.23-3.16-.16-5.18-1.26-1.26-.69-1.74-1.72-2.6-3.56a11.59,11.59,0,0,1-1.16-5.68C1659.8,841.89,1659.89,841.47,1659.89,841.47Z"/><path class="cls-17" d="M1683.67,857.81a16,16,0,0,1-2.84-.25,59.9,59.9,0,0,0-6.82-.66h0a5.8,5.8,0,0,1-3.47-1,3,3,0,0,1-1-1.62,2.67,2.67,0,0,0-.86-1.43,3.61,3.61,0,0,0-2.42-.66,5.55,5.55,0,0,1-2.75-.59c-1.28-.7-1.76-1.72-2.63-3.59v0a11.53,11.53,0,0,1-1.15-5.69c0-.37.13-.77.14-.81h0a22.8,22.8,0,0,1,1-2.81c.4-1,.66-1.62.86-2a8.64,8.64,0,0,0,.56-1.52,8.21,8.21,0,0,0,.31-1.8,3.1,3.1,0,0,1,.41-1.52,4.13,4.13,0,0,1,.68-1,6,6,0,0,0,.89-1.33,8,8,0,0,0,.42-.93,4.48,4.48,0,0,1,.59-1.11,6.49,6.49,0,0,1,1.33-1.34l.26-.21a12.17,12.17,0,0,0,2.11-2.28c.2-.27.39-.53.6-.77,2.05-2.37,6.21-4,10.11-3.87a14.54,14.54,0,0,1,5.5,1.26,10.43,10.43,0,0,1,2.8,1.73,9.39,9.39,0,0,0,1.52,1.06c1.77,1,3.15.84,6.85.51,1.39-.13,3.13-.29,5.33-.42,8.66-.54,10,.15,11,.61a10,10,0,0,1,4.79,5.24c2.17,5.87-3.34,11.95-5.14,13.95a14.38,14.38,0,0,1-2,1.86c-1,.8-2.64,2.14-6.16,5.3-1.83,1.64-2.82,2.57-3.41,3.13a8.06,8.06,0,0,1-1.48,1.22c-4.39,2.8-9.18,3.07-14.26,3.36C1684.62,857.79,1684.11,857.81,1683.67,857.81ZM1660,841.48h0s-.09.44-.14.8a11.31,11.31,0,0,0,1.15,5.63v0c.86,1.83,1.33,2.85,2.57,3.52a5.44,5.44,0,0,0,2.67.58,3.67,3.67,0,0,1,2.51.69,2.76,2.76,0,0,1,.91,1.48,2.83,2.83,0,0,0,1,1.57,5.66,5.66,0,0,0,3.38,1h0a62.47,62.47,0,0,1,6.83.66,16.38,16.38,0,0,0,4.38.2c5-.28,9.82-.55,14.18-3.34a8.14,8.14,0,0,0,1.45-1.2c.6-.56,1.59-1.49,3.41-3.13,3.53-3.17,5.18-4.51,6.17-5.31a13.08,13.08,0,0,0,2-1.84c1.8-2,7.26-8,5.13-13.83a10,10,0,0,0-4.73-5.17c-1.14-.57-2.93-1.09-10.88-.6-2.2.14-3.93.3-5.33.42-3.73.34-5.13.46-6.93-.52a8.93,8.93,0,0,1-1.55-1.08,10,10,0,0,0-2.77-1.7,14.32,14.32,0,0,0-5.43-1.26c-3.87-.09-8,1.49-10,3.83-.2.23-.39.49-.59.76a12.15,12.15,0,0,1-2.14,2.31l-.26.21a6,6,0,0,0-1.3,1.31,4.22,4.22,0,0,0-.57,1.08,8.41,8.41,0,0,1-.43.95,5.54,5.54,0,0,1-.91,1.34,4.81,4.81,0,0,0-.66.95,3.14,3.14,0,0,0-.4,1.48,8.44,8.44,0,0,1-.31,1.82,8.86,8.86,0,0,1-.57,1.54c-.19.43-.46,1-.86,2A24.83,24.83,0,0,0,1660,841.48Z"/></g><g id="fedtkant2-2" data-name="fedtkant2"><path class="cls-18" d="M1667.33,828.85a18.66,18.66,0,0,1,7.17-6.51,13,13,0,0,1,5.6-1.8,11.8,11.8,0,0,1,6.61,1.63,22.83,22.83,0,0,0,2.45,1.65,19.88,19.88,0,0,0,2.88,1.27c1,.35,4,1.07,14.09,0a11.12,11.12,0,0,1,3.73,0,9.76,9.76,0,0,1,5,2.79,7.19,7.19,0,0,1,2.46,4.44c.16,2-.95,3.59-2.43,5.61a30,30,0,0,1-3.73,4c-6.07,5.87-7.08,6.77-8.46,7.91a32,32,0,0,1-4.16,3.2c-1.42.77-3.52,1.62-11.06,2.19-7.24.55-10.9.79-12.79-.73s-1.39-3.06-3.75-4.31c-2.18-1.16-3.61-.38-5.61-1.39a6.88,6.88,0,0,1-3.61-5.34c-.11-1.11.26-2.22,1-4.45.15-.45.42-1.21,1.43-3.57A42.14,42.14,0,0,1,1667.33,828.85Z"/></g><g id="fedtklump_1-2" data-name="fedtklump 1"><path class="cls-9" d="M1686.21,822.49a8.61,8.61,0,0,0,1.37,3c.59.33,1.13.3,1.44.76a1.69,1.69,0,0,1,0,1.53c-.29.75-.74.77-1.29,1.79-.34.62-.19.65-.43.89-.68.7-1.68.23-2.44.9-.41.36-.69,1-.43,1.4s1.07.47,1.58.37c.91-.17,1.32-.84,1.87-1.4.85-.87,2-1.26,4.31-2.05,2.82-1,3-.38,4.88-1.29a6.85,6.85,0,0,1,2.73-.89c.8-.06,1.07.1,1.72,0A4.37,4.37,0,0,0,1704,826c.33-.35-1,.73.65-.45,2.72-1.92-3.16.64-7.48.4C1695.63,825.82,1685.68,820.93,1686.21,822.49Z"/><rect class="cls-9" x="1695.4" y="824.36" width="6.2" height="1.95" transform="matrix(1, 0, 0, 1, -2.26, 4.66)"/></g><g id="fedtklump_2-2" data-name="fedtklump 2"><ellipse class="cls-9" cx="1691.88" cy="844.37" rx="3.52" ry="2.1" transform="translate(-2.31 4.64) rotate(-0.16)"/></g></g><g class="cls-14"><path class="cls-15" d="M1275.67,955.76c4.19-1,6.34-3.6,11-7.41,4.31-3.5,6.11-4.49,7.31-6.64s1.34-4.12,1.56-7.13c.28-3.73.58-7.82-.75-9.93-6-9.5-53.72,6.53-57.16,15.05a10.13,10.13,0,0,0-.42,5.35,6.37,6.37,0,0,0,1.59,4.83,3,3,0,0,0,1.3,1,13.82,13.82,0,0,0,3,.51c1.61.29,1.74,1.76,3,3s1.34,1.08,4.32,1.9"/><g id="fedtkant1-3" data-name="fedtkant1"><path class="cls-16" d="M1237.89,937.47a23.5,23.5,0,0,1,1-2.8c.88-2.29,1.1-2.37,1.42-3.57.52-1.92.09-2.12.71-3.31.53-1,.89-1,1.58-2.3a13.87,13.87,0,0,1,1-2,7.47,7.47,0,0,1,1.57-1.53,18.16,18.16,0,0,0,2.73-3.06c2-2.33,6.17-3.94,10-3.85a14.45,14.45,0,0,1,5.46,1.26c2.4,1,2.74,1.92,4.32,2.79,2.46,1.34,4.22.59,12.22.09,8.18-.51,9.83.06,10.93.61a10.11,10.11,0,0,1,4.76,5.2c2.14,5.84-3.36,11.93-5.14,13.89-1.57,1.74-1.53,1.18-8.17,7.15-4.21,3.79-3.92,3.74-4.88,4.35-4.38,2.79-9.17,3.06-14.22,3.35-4.39.24-3.24-.44-11.21-.87a5.73,5.73,0,0,1-3.46-1c-1.28-1.05-.71-2.09-1.87-3.05-1.49-1.23-3.16-.16-5.18-1.26-1.26-.69-1.74-1.72-2.6-3.56a11.59,11.59,0,0,1-1.16-5.68C1237.8,937.89,1237.89,937.47,1237.89,937.47Z"/><path class="cls-17" d="M1261.67,953.81a16,16,0,0,1-2.84-.25,59.9,59.9,0,0,0-6.82-.66h0a5.8,5.8,0,0,1-3.47-1,3,3,0,0,1-1-1.62,2.67,2.67,0,0,0-.86-1.43,3.61,3.61,0,0,0-2.42-.66,5.55,5.55,0,0,1-2.75-.59c-1.28-.7-1.76-1.72-2.63-3.59v0a11.53,11.53,0,0,1-1.15-5.69c0-.37.13-.77.14-.81h0a22.8,22.8,0,0,1,1-2.81c.4-1,.66-1.62.86-2a8.64,8.64,0,0,0,.56-1.52,8.21,8.21,0,0,0,.31-1.8,3.1,3.1,0,0,1,.41-1.52,4.13,4.13,0,0,1,.68-1,6,6,0,0,0,.89-1.33,8,8,0,0,0,.42-.93,4.48,4.48,0,0,1,.59-1.11,6.49,6.49,0,0,1,1.33-1.34l.26-.21a12.17,12.17,0,0,0,2.11-2.28c.2-.27.39-.53.6-.77,2.05-2.37,6.21-4,10.11-3.87a14.54,14.54,0,0,1,5.5,1.26,10.43,10.43,0,0,1,2.8,1.73,9.39,9.39,0,0,0,1.52,1.06c1.77,1,3.15.84,6.85.51,1.39-.13,3.13-.29,5.33-.42,8.66-.54,10,.15,11,.61a10,10,0,0,1,4.79,5.24c2.17,5.87-3.34,11.95-5.14,13.95a14.38,14.38,0,0,1-2,1.86c-1,.8-2.64,2.14-6.16,5.3-1.83,1.64-2.82,2.57-3.41,3.13a8.06,8.06,0,0,1-1.48,1.22c-4.39,2.8-9.18,3.07-14.26,3.36C1262.62,953.79,1262.11,953.81,1261.67,953.81ZM1238,937.48h0s-.09.44-.14.8a11.31,11.31,0,0,0,1.15,5.63v0c.86,1.83,1.33,2.85,2.57,3.52a5.44,5.44,0,0,0,2.67.58,3.67,3.67,0,0,1,2.51.69,2.76,2.76,0,0,1,.91,1.48,2.83,2.83,0,0,0,1,1.57,5.66,5.66,0,0,0,3.38,1h0a62.47,62.47,0,0,1,6.83.66,16.38,16.38,0,0,0,4.38.2c5-.28,9.82-.55,14.18-3.34a8.14,8.14,0,0,0,1.45-1.2c.6-.56,1.59-1.49,3.41-3.13,3.53-3.17,5.18-4.51,6.17-5.31a13.08,13.08,0,0,0,2-1.84c1.8-2,7.26-8,5.13-13.83a10,10,0,0,0-4.73-5.17c-1.14-.57-2.93-1.09-10.88-.6-2.2.14-3.93.3-5.33.42-3.73.34-5.13.46-6.93-.52a8.93,8.93,0,0,1-1.55-1.08,10,10,0,0,0-2.77-1.7,14.32,14.32,0,0,0-5.43-1.26c-3.87-.09-8,1.49-10,3.83-.2.23-.39.49-.59.76a12.15,12.15,0,0,1-2.14,2.31l-.26.21a6,6,0,0,0-1.3,1.31,4.22,4.22,0,0,0-.57,1.08,8.41,8.41,0,0,1-.43.95,5.54,5.54,0,0,1-.91,1.34,4.81,4.81,0,0,0-.66.95,3.14,3.14,0,0,0-.4,1.48,8.44,8.44,0,0,1-.31,1.82,8.86,8.86,0,0,1-.57,1.54c-.19.43-.46,1-.86,2A24.83,24.83,0,0,0,1238,937.48Z"/></g><g id="fedtkant2-3" data-name="fedtkant2"><path class="cls-18" d="M1245.33,924.85a18.66,18.66,0,0,1,7.17-6.51,13,13,0,0,1,5.6-1.8,11.8,11.8,0,0,1,6.61,1.63,22.83,22.83,0,0,0,2.45,1.65,19.88,19.88,0,0,0,2.88,1.27c1,.35,4,1.07,14.09,0a11.12,11.12,0,0,1,3.73,0,9.76,9.76,0,0,1,5,2.79,7.19,7.19,0,0,1,2.46,4.44c.16,2-.95,3.59-2.43,5.61a30,30,0,0,1-3.73,4c-6.07,5.87-7.08,6.77-8.46,7.91a32,32,0,0,1-4.16,3.2c-1.42.77-3.52,1.62-11.06,2.19-7.24.55-10.9.79-12.79-.73s-1.39-3.06-3.75-4.31c-2.18-1.16-3.61-.38-5.61-1.39a6.88,6.88,0,0,1-3.61-5.34c-.11-1.11.26-2.22,1-4.45.15-.45.42-1.21,1.43-3.57A42.14,42.14,0,0,1,1245.33,924.85Z"/></g><g id="fedtklump_1-3" data-name="fedtklump 1"><path class="cls-9" d="M1264.21,918.49a8.61,8.61,0,0,0,1.37,3c.59.33,1.13.3,1.44.76a1.69,1.69,0,0,1,0,1.53c-.29.75-.74.77-1.29,1.79-.34.62-.19.65-.43.89-.68.7-1.68.23-2.44.9-.41.36-.69,1-.43,1.4s1.07.47,1.58.37c.91-.17,1.32-.84,1.87-1.4.85-.87,2-1.26,4.31-2.05,2.82-1,3-.38,4.88-1.29a6.85,6.85,0,0,1,2.73-.89c.8-.06,1.07.1,1.72,0A4.37,4.37,0,0,0,1282,922c.33-.35-1,.73.65-.45,2.72-1.92-3.16.64-7.48.4C1273.63,921.82,1263.68,916.93,1264.21,918.49Z"/><rect class="cls-9" x="1273.4" y="920.36" width="6.2" height="1.95" transform="matrix(1, 0, 0, 1, -2.52, 3.5)"/></g><g id="fedtklump_2-3" data-name="fedtklump 2"><ellipse class="cls-9" cx="1269.88" cy="940.37" rx="3.52" ry="2.1" transform="translate(-2.57 3.48) rotate(-0.16)"/></g></g><g class="cls-14"><path class="cls-15" d="M1548.67,956.76c4.19-1,6.34-3.6,11-7.41,4.31-3.5,6.11-4.49,7.31-6.64s1.34-4.12,1.56-7.13c.28-3.73.58-7.82-.75-9.93-6-9.5-53.72,6.53-57.16,15.05a10.13,10.13,0,0,0-.42,5.35,6.37,6.37,0,0,0,1.59,4.83,3,3,0,0,0,1.3,1,13.82,13.82,0,0,0,3,.51c1.61.29,1.74,1.76,3,3s1.34,1.08,4.32,1.9"/><g id="fedtkant1-4" data-name="fedtkant1"><path class="cls-16" d="M1510.89,938.47a23.5,23.5,0,0,1,1-2.8c.88-2.29,1.1-2.37,1.42-3.57.52-1.92.09-2.12.71-3.31.53-1,.89-1,1.58-2.3a13.87,13.87,0,0,1,1-2,7.47,7.47,0,0,1,1.57-1.53,18.16,18.16,0,0,0,2.73-3.06c2-2.33,6.17-3.94,10-3.85a14.45,14.45,0,0,1,5.46,1.26c2.4,1,2.74,1.92,4.32,2.79,2.46,1.34,4.22.59,12.22.09,8.18-.51,9.83.06,10.93.61a10.11,10.11,0,0,1,4.76,5.2c2.14,5.84-3.36,11.93-5.14,13.89-1.57,1.74-1.53,1.18-8.17,7.15-4.21,3.79-3.92,3.74-4.88,4.35-4.38,2.79-9.17,3.06-14.22,3.35-4.39.24-3.24-.44-11.21-.87a5.73,5.73,0,0,1-3.46-1c-1.28-1.05-.71-2.09-1.87-3.05-1.49-1.23-3.16-.16-5.18-1.26-1.26-.69-1.74-1.72-2.6-3.56a11.59,11.59,0,0,1-1.16-5.68C1510.8,938.89,1510.89,938.47,1510.89,938.47Z"/><path class="cls-17" d="M1534.67,954.81a16,16,0,0,1-2.84-.25,59.9,59.9,0,0,0-6.82-.66h0a5.8,5.8,0,0,1-3.47-1,3,3,0,0,1-1-1.62,2.67,2.67,0,0,0-.86-1.43,3.61,3.61,0,0,0-2.42-.66,5.55,5.55,0,0,1-2.75-.59c-1.28-.7-1.76-1.72-2.63-3.59v0a11.53,11.53,0,0,1-1.15-5.69c0-.37.13-.77.14-.81h0a22.8,22.8,0,0,1,1-2.81c.4-1,.66-1.62.86-2a8.64,8.64,0,0,0,.56-1.52,8.21,8.21,0,0,0,.31-1.8,3.1,3.1,0,0,1,.41-1.52,4.13,4.13,0,0,1,.68-1,6,6,0,0,0,.89-1.33,8,8,0,0,0,.42-.93,4.48,4.48,0,0,1,.59-1.11,6.49,6.49,0,0,1,1.33-1.34l.26-.21a12.17,12.17,0,0,0,2.11-2.28c.2-.27.39-.53.6-.77,2.05-2.37,6.21-4,10.11-3.87a14.54,14.54,0,0,1,5.5,1.26,10.43,10.43,0,0,1,2.8,1.73,9.39,9.39,0,0,0,1.52,1.06c1.77,1,3.15.84,6.85.51,1.39-.13,3.13-.29,5.33-.42,8.66-.54,10,.15,11,.61a10,10,0,0,1,4.79,5.24c2.17,5.87-3.34,11.95-5.14,13.95a14.38,14.38,0,0,1-2,1.86c-1,.8-2.64,2.14-6.16,5.3-1.83,1.64-2.82,2.57-3.41,3.13a8.06,8.06,0,0,1-1.48,1.22c-4.39,2.8-9.18,3.07-14.26,3.36C1535.62,954.79,1535.11,954.81,1534.67,954.81ZM1511,938.48h0s-.09.44-.14.8a11.31,11.31,0,0,0,1.15,5.63v0c.86,1.83,1.33,2.85,2.57,3.52a5.44,5.44,0,0,0,2.67.58,3.67,3.67,0,0,1,2.51.69,2.76,2.76,0,0,1,.91,1.48,2.83,2.83,0,0,0,1,1.57,5.66,5.66,0,0,0,3.38,1h0a62.47,62.47,0,0,1,6.83.66,16.38,16.38,0,0,0,4.38.2c5-.28,9.82-.55,14.18-3.34a8.14,8.14,0,0,0,1.45-1.2c.6-.56,1.59-1.49,3.41-3.13,3.53-3.17,5.18-4.51,6.17-5.31a13.08,13.08,0,0,0,2-1.84c1.8-2,7.26-8,5.13-13.83a10,10,0,0,0-4.73-5.17c-1.14-.57-2.93-1.09-10.88-.6-2.2.14-3.93.3-5.33.42-3.73.34-5.13.46-6.93-.52a8.93,8.93,0,0,1-1.55-1.08,10,10,0,0,0-2.77-1.7,14.32,14.32,0,0,0-5.43-1.26c-3.87-.09-8,1.49-10,3.83-.2.23-.39.49-.59.76a12.15,12.15,0,0,1-2.14,2.31l-.26.21a6,6,0,0,0-1.3,1.31,4.22,4.22,0,0,0-.57,1.08,8.41,8.41,0,0,1-.43.95,5.54,5.54,0,0,1-.91,1.34,4.81,4.81,0,0,0-.66.95,3.14,3.14,0,0,0-.4,1.48,8.44,8.44,0,0,1-.31,1.82,8.86,8.86,0,0,1-.57,1.54c-.19.43-.46,1-.86,2A24.83,24.83,0,0,0,1511,938.48Z"/></g><g id="fedtkant2-4" data-name="fedtkant2"><path class="cls-18" d="M1518.33,925.85a18.66,18.66,0,0,1,7.17-6.51,13,13,0,0,1,5.6-1.8,11.8,11.8,0,0,1,6.61,1.63,22.83,22.83,0,0,0,2.45,1.65,19.88,19.88,0,0,0,2.88,1.27c1,.35,4,1.07,14.09,0a11.12,11.12,0,0,1,3.73,0,9.76,9.76,0,0,1,5,2.79,7.19,7.19,0,0,1,2.46,4.44c.16,2-.95,3.59-2.43,5.61a30,30,0,0,1-3.73,4c-6.07,5.87-7.08,6.77-8.46,7.91a32,32,0,0,1-4.16,3.2c-1.42.77-3.52,1.62-11.06,2.19-7.24.55-10.9.79-12.79-.73s-1.39-3.06-3.75-4.31c-2.18-1.16-3.61-.38-5.61-1.39a6.88,6.88,0,0,1-3.61-5.34c-.11-1.11.26-2.22,1-4.45.15-.45.42-1.21,1.43-3.57A42.14,42.14,0,0,1,1518.33,925.85Z"/></g><g id="fedtklump_1-4" data-name="fedtklump 1"><path class="cls-9" d="M1537.21,919.49a8.61,8.61,0,0,0,1.37,3c.59.33,1.13.3,1.44.76a1.69,1.69,0,0,1,0,1.53c-.29.75-.74.77-1.29,1.79-.34.62-.19.65-.43.89-.68.7-1.68.23-2.44.9-.41.36-.69,1-.43,1.4s1.07.47,1.58.37c.91-.17,1.32-.84,1.87-1.4.85-.87,2-1.26,4.31-2.05,2.82-1,3-.38,4.88-1.29a6.85,6.85,0,0,1,2.73-.89c.8-.06,1.07.1,1.72,0A4.37,4.37,0,0,0,1555,923c.33-.35-1,.73.65-.45,2.72-1.92-3.16.64-7.48.4C1546.63,922.82,1536.68,917.93,1537.21,919.49Z"/><rect class="cls-9" x="1546.4" y="921.36" width="6.2" height="1.95" transform="matrix(1, 0, 0, 1, -2.52, 4.25)"/></g><g id="fedtklump_2-4" data-name="fedtklump 2"><ellipse class="cls-9" cx="1542.88" cy="941.37" rx="3.52" ry="2.1" transform="translate(-2.57 4.23) rotate(-0.16)"/></g></g><g class="cls-14"><path class="cls-15" d="M1288.67,769.76c4.19-1,6.34-3.6,11-7.41,4.31-3.5,6.11-4.49,7.31-6.64s1.34-4.12,1.56-7.13c.28-3.73.58-7.82-.75-9.93-6-9.5-53.72,6.53-57.16,15.05a10.13,10.13,0,0,0-.42,5.35,6.37,6.37,0,0,0,1.59,4.83,3,3,0,0,0,1.3,1,13.82,13.82,0,0,0,3,.51c1.61.29,1.74,1.76,3,3s1.34,1.08,4.32,1.9"/><g id="fedtkant1-5" data-name="fedtkant1"><path class="cls-16" d="M1250.89,751.47a23.5,23.5,0,0,1,1-2.8c.88-2.29,1.1-2.37,1.42-3.57.52-1.92.09-2.12.71-3.31.53-1,.89-1,1.58-2.3a13.87,13.87,0,0,1,1-2,7.47,7.47,0,0,1,1.57-1.53,18.16,18.16,0,0,0,2.73-3.06c2-2.33,6.17-3.94,10-3.85a14.45,14.45,0,0,1,5.46,1.26c2.4,1,2.74,1.92,4.32,2.79,2.46,1.34,4.22.59,12.22.09,8.18-.51,9.83.06,10.93.61a10.11,10.11,0,0,1,4.76,5.2c2.14,5.84-3.36,11.93-5.14,13.89-1.57,1.74-1.53,1.18-8.17,7.15-4.21,3.79-3.92,3.74-4.88,4.35-4.38,2.79-9.17,3.06-14.22,3.35-4.39.24-3.24-.44-11.21-.87a5.73,5.73,0,0,1-3.46-1c-1.28-1.05-.71-2.09-1.87-3.05-1.49-1.23-3.16-.16-5.18-1.26-1.26-.69-1.74-1.72-2.6-3.56a11.59,11.59,0,0,1-1.16-5.68C1250.8,751.89,1250.89,751.47,1250.89,751.47Z"/><path class="cls-17" d="M1274.67,767.81a16,16,0,0,1-2.84-.25,59.9,59.9,0,0,0-6.82-.66h0a5.8,5.8,0,0,1-3.47-1,3,3,0,0,1-1-1.62,2.67,2.67,0,0,0-.86-1.43,3.61,3.61,0,0,0-2.42-.66,5.55,5.55,0,0,1-2.75-.59c-1.28-.7-1.76-1.72-2.63-3.59v0a11.53,11.53,0,0,1-1.15-5.69c0-.37.13-.77.14-.81h0a22.8,22.8,0,0,1,1-2.81c.4-1,.66-1.62.86-2a8.64,8.64,0,0,0,.56-1.52,8.21,8.21,0,0,0,.31-1.8,3.1,3.1,0,0,1,.41-1.52,4.13,4.13,0,0,1,.68-1,6,6,0,0,0,.89-1.33,8,8,0,0,0,.42-.93,4.48,4.48,0,0,1,.59-1.11,6.49,6.49,0,0,1,1.33-1.34l.26-.21a12.17,12.17,0,0,0,2.11-2.28c.2-.27.39-.53.6-.77,2.05-2.37,6.21-4,10.11-3.87a14.54,14.54,0,0,1,5.5,1.26,10.43,10.43,0,0,1,2.8,1.73,9.39,9.39,0,0,0,1.52,1.06c1.77,1,3.15.84,6.85.51,1.39-.13,3.13-.29,5.33-.42,8.66-.54,10,.15,11,.61a10,10,0,0,1,4.79,5.24c2.17,5.87-3.34,11.95-5.14,13.95a14.38,14.38,0,0,1-2,1.86c-1,.8-2.64,2.14-6.16,5.3-1.83,1.64-2.82,2.57-3.41,3.13a8.06,8.06,0,0,1-1.48,1.22c-4.39,2.8-9.18,3.07-14.26,3.36C1275.62,767.79,1275.11,767.81,1274.67,767.81ZM1251,751.48h0s-.09.44-.14.8a11.31,11.31,0,0,0,1.15,5.63v0c.86,1.83,1.33,2.85,2.57,3.52a5.44,5.44,0,0,0,2.67.58,3.67,3.67,0,0,1,2.51.69,2.76,2.76,0,0,1,.91,1.48,2.83,2.83,0,0,0,1,1.57,5.66,5.66,0,0,0,3.38,1h0a62.47,62.47,0,0,1,6.83.66,16.38,16.38,0,0,0,4.38.2c5-.28,9.82-.55,14.18-3.34a8.14,8.14,0,0,0,1.45-1.2c.6-.56,1.59-1.49,3.41-3.13,3.53-3.17,5.18-4.51,6.17-5.31a13.08,13.08,0,0,0,2-1.84c1.8-2,7.26-8,5.13-13.83a10,10,0,0,0-4.73-5.17c-1.14-.57-2.93-1.09-10.88-.6-2.2.14-3.93.3-5.33.42-3.73.34-5.13.46-6.93-.52a8.93,8.93,0,0,1-1.55-1.08,10,10,0,0,0-2.77-1.7,14.32,14.32,0,0,0-5.43-1.26c-3.87-.09-8,1.49-10,3.83-.2.23-.39.49-.59.76a12.15,12.15,0,0,1-2.14,2.31l-.26.21a6,6,0,0,0-1.3,1.31,4.22,4.22,0,0,0-.57,1.08,8.41,8.41,0,0,1-.43.95,5.54,5.54,0,0,1-.91,1.34,4.81,4.81,0,0,0-.66.95,3.14,3.14,0,0,0-.4,1.48,8.44,8.44,0,0,1-.31,1.82,8.86,8.86,0,0,1-.57,1.54c-.19.43-.46,1-.86,2A24.83,24.83,0,0,0,1251,751.48Z"/></g><g id="fedtkant2-5" data-name="fedtkant2"><path class="cls-18" d="M1258.33,738.85a18.66,18.66,0,0,1,7.17-6.51,13,13,0,0,1,5.6-1.8,11.8,11.8,0,0,1,6.61,1.63,22.83,22.83,0,0,0,2.45,1.65,19.88,19.88,0,0,0,2.88,1.27c1,.35,4,1.07,14.09,0a11.12,11.12,0,0,1,3.73,0,9.76,9.76,0,0,1,5,2.79,7.19,7.19,0,0,1,2.46,4.44c.16,2-.95,3.59-2.43,5.61a30,30,0,0,1-3.73,4c-6.07,5.87-7.08,6.77-8.46,7.91a32,32,0,0,1-4.16,3.2c-1.42.77-3.52,1.62-11.06,2.19-7.24.55-10.9.79-12.79-.73s-1.39-3.06-3.75-4.31c-2.18-1.16-3.61-.38-5.61-1.39a6.88,6.88,0,0,1-3.61-5.34c-.11-1.11.26-2.22,1-4.45.15-.45.42-1.21,1.43-3.57A42.14,42.14,0,0,1,1258.33,738.85Z"/></g><g id="fedtklump_1-5" data-name="fedtklump 1"><path class="cls-9" d="M1277.21,732.49a8.61,8.61,0,0,0,1.37,3c.59.33,1.13.3,1.44.76a1.69,1.69,0,0,1,0,1.53c-.29.75-.74.77-1.29,1.79-.34.62-.19.65-.43.89-.68.7-1.68.23-2.44.9-.41.36-.69,1-.43,1.4s1.07.47,1.58.37c.91-.17,1.32-.84,1.87-1.4.85-.87,2-1.26,4.31-2.05,2.82-1,3-.38,4.88-1.29a6.85,6.85,0,0,1,2.73-.89c.8-.06,1.07.1,1.72,0A4.37,4.37,0,0,0,1295,736c.33-.35-1,.73.65-.45,2.72-1.92-3.16.64-7.48.4C1286.63,735.82,1276.68,730.93,1277.21,732.49Z"/><rect class="cls-9" x="1286.4" y="734.36" width="6.2" height="1.95" transform="matrix(1, 0, 0, 1, -2.01, 3.54)"/></g><g id="fedtklump_2-5" data-name="fedtklump 2"><ellipse class="cls-9" cx="1282.88" cy="754.37" rx="3.52" ry="2.1" transform="translate(-2.06 3.52) rotate(-0.16)"/></g></g><ellipse class="cls-2" cx="173.52" cy="145.49" rx="99.81" ry="104.3"/><ellipse class="cls-2" cx="263.17" cy="183.26" rx="89.05" ry="91.71"/><path class="cls-19" d="M357,182.66c0,51-38.52,92.3-86.05,92.3a80.44,80.44,0,0,1-16.74-1.75c39.51-8.35,69.3-45.72,69.3-90.55a97.13,97.13,0,0,0-11.68-46.46c-12.22-22.47-33.05-38.9-57.62-44.1A80.44,80.44,0,0,1,271,90.35a81.8,81.8,0,0,1,50.85,17.83C343.14,125,357,152.08,357,182.66Z"/><ellipse class="cls-2" cx="81.49" cy="231.21" rx="79.49" ry="79.72"/><path class="cls-19" d="M163.36,230.61c0,44.36-34,80.32-76,80.32a73.06,73.06,0,0,1-14.8-1.52c34.92-7.27,61.24-39.79,61.24-78.8a83.3,83.3,0,0,0-10.32-40.42c-10.79-19.55-29.2-33.85-50.92-38.38a72.8,72.8,0,0,1,59.73,14C151.12,180.42,163.36,204,163.36,230.61Z"/><polygon class="cls-20" points="168.93 332.42 158.99 341.98 88.06 267.77 98 258.21 168.93 332.42"/><rect class="cls-21" x="183.68" y="198.24" width="5.98" height="237.36"/><polygon class="cls-21" points="186.5 330.14 183.71 328.37 259.66 207.94 262.45 209.71 186.5 330.14"/><polygon class="cls-21" points="160.97 322.92 159.08 324.73 96.7 259.46 98.59 257.65 160.97 322.92"/><path class="cls-19" d="M276.92,140.1c0,55.28-42.66,100.1-95.3,100.1a91.06,91.06,0,0,1-18.26-1.84c43.91-8.94,77-49.53,77-98.26s-33.13-89.32-77-98.26A91.06,91.06,0,0,1,181.62,40C234.26,40,276.92,84.81,276.92,140.1Z"/><rect class="cls-20" x="159.78" y="198.24" width="29.88" height="239.76"/><polygon class="cls-20" points="183.66 328.01 173.72 321.4 252.1 202.91 262.03 209.52 183.66 328.01"/><ellipse class="cls-2" cx="85.52" cy="148.49" rx="99.81" ry="104.3"/><ellipse class="cls-2" cx="175.17" cy="186.26" rx="89.05" ry="91.71"/><path class="cls-19" d="M269,185.66c0,51-38.52,92.3-86.05,92.3a80.44,80.44,0,0,1-16.74-1.75c39.51-8.35,69.3-45.72,69.3-90.55a97.13,97.13,0,0,0-11.68-46.46c-12.22-22.47-33.05-38.9-57.62-44.1A80.44,80.44,0,0,1,183,93.35a81.8,81.8,0,0,1,50.85,17.83C255.14,128,269,155.08,269,185.66Z"/><ellipse class="cls-2" cx="-6.51" cy="234.21" rx="79.49" ry="79.72"/><path class="cls-19" d="M75.36,233.61c0,44.36-34,80.32-76,80.32a73.06,73.06,0,0,1-14.8-1.52c34.92-7.27,61.24-39.79,61.24-78.8a83.3,83.3,0,0,0-10.32-40.42c-10.79-19.55-29.2-33.85-50.92-38.38a72.36,72.36,0,0,1,14.8-1.52,72.93,72.93,0,0,1,44.93,15.52C63.12,183.42,75.36,207,75.36,233.61Z"/><polygon class="cls-20" points="80.93 335.42 70.99 344.98 0.06 270.77 10 261.21 80.93 335.42"/><rect class="cls-21" x="95.68" y="201.24" width="5.98" height="237.36"/><polygon class="cls-21" points="98.5 333.14 95.71 331.37 171.66 210.94 174.45 212.71 98.5 333.14"/><polygon class="cls-21" points="72.97 325.92 71.08 327.73 8.7 262.46 10.59 260.65 72.97 325.92"/><path class="cls-19" d="M188.92,143.1c0,55.28-42.66,100.1-95.3,100.1a91.06,91.06,0,0,1-18.26-1.84c43.91-8.94,77-49.53,77-98.26s-33.13-89.32-77-98.26A91.06,91.06,0,0,1,93.62,43C146.26,43,188.92,87.81,188.92,143.1Z"/><rect class="cls-20" x="71.78" y="201.24" width="29.88" height="239.76"/><polygon class="cls-20" points="95.66 331.01 85.72 324.4 164.1 205.91 174.03 212.52 95.66 331.01"/><ellipse class="cls-2" cx="31.52" cy="163.49" rx="99.81" ry="104.3"/><ellipse class="cls-2" cx="121.17" cy="201.26" rx="89.05" ry="91.71"/><path class="cls-19" d="M215,200.66c0,51-38.52,92.3-86.05,92.3a80.44,80.44,0,0,1-16.74-1.75c39.51-8.35,69.3-45.72,69.3-90.55a97.13,97.13,0,0,0-11.68-46.46c-12.22-22.47-33.05-38.9-57.62-44.1A80.44,80.44,0,0,1,129,108.35a81.8,81.8,0,0,1,50.85,17.83C201.14,143,215,170.08,215,200.66Z"/><ellipse class="cls-2" cx="-60.51" cy="249.21" rx="79.49" ry="79.72"/><path class="cls-19" d="M21.36,248.61c0,44.36-34,80.32-76,80.32a73.06,73.06,0,0,1-14.8-1.52c34.92-7.27,61.24-39.79,61.24-78.8a83.3,83.3,0,0,0-10.32-40.42c-10.79-19.55-29.2-33.85-50.92-38.38a72.36,72.36,0,0,1,14.8-1.52A72.93,72.93,0,0,1-9.75,183.81C9.12,198.42,21.36,222,21.36,248.61Z"/><polygon class="cls-20" points="26.93 350.42 16.99 359.98 -53.94 285.77 -44 276.21 26.93 350.42"/><rect class="cls-21" x="41.68" y="216.24" width="5.98" height="237.36"/><polygon class="cls-21" points="44.5 348.14 41.71 346.37 117.66 225.94 120.45 227.71 44.5 348.14"/><polygon class="cls-21" points="18.97 340.92 17.08 342.73 -45.3 277.46 -43.41 275.65 18.97 340.92"/><path class="cls-19" d="M134.92,158.1c0,55.28-42.66,100.1-95.3,100.1a91.06,91.06,0,0,1-18.26-1.84c43.91-8.94,77-49.53,77-98.26s-33.13-89.32-77-98.26A91.06,91.06,0,0,1,39.62,58C92.26,58,134.92,102.81,134.92,158.1Z"/><rect class="cls-20" x="17.78" y="216.24" width="29.88" height="239.76"/><polygon class="cls-20" points="41.66 346.01 31.72 339.4 110.1 220.91 120.03 227.52 41.66 346.01"/><ellipse class="cls-2" cx="361.52" cy="156.49" rx="99.81" ry="104.3"/><ellipse class="cls-2" cx="451.17" cy="194.26" rx="89.05" ry="91.71"/><path class="cls-19" d="M545,193.66c0,51-38.52,92.3-86.05,92.3a80.44,80.44,0,0,1-16.74-1.75c39.51-8.35,69.3-45.72,69.3-90.55a97.13,97.13,0,0,0-11.68-46.46c-12.22-22.47-33.05-38.9-57.62-44.1A80.44,80.44,0,0,1,459,101.35a81.8,81.8,0,0,1,50.85,17.83C531.14,136,545,163.08,545,193.66Z"/><ellipse class="cls-2" cx="269.49" cy="242.21" rx="79.49" ry="79.72"/><path class="cls-19" d="M351.36,241.61c0,44.36-34,80.32-76,80.32a73.06,73.06,0,0,1-14.8-1.52c34.92-7.27,61.24-39.79,61.24-78.8a83.3,83.3,0,0,0-10.32-40.42c-10.79-19.55-29.2-33.85-50.92-38.38a72.8,72.8,0,0,1,59.73,14C339.12,191.42,351.36,215,351.36,241.61Z"/><polygon class="cls-20" points="356.93 343.42 346.99 352.98 276.06 278.77 286 269.21 356.93 343.42"/><rect class="cls-21" x="371.68" y="209.24" width="5.98" height="237.36"/><polygon class="cls-21" points="374.5 341.14 371.71 339.37 447.66 218.94 450.45 220.71 374.5 341.14"/><polygon class="cls-21" points="348.97 333.92 347.08 335.73 284.7 270.46 286.59 268.65 348.97 333.92"/><path class="cls-19" d="M464.92,151.1c0,55.28-42.66,100.1-95.3,100.1a91.06,91.06,0,0,1-18.26-1.84c43.91-8.94,77-49.53,77-98.26s-33.13-89.32-77-98.26A91.06,91.06,0,0,1,369.62,51C422.26,51,464.92,95.81,464.92,151.1Z"/><rect class="cls-20" x="347.78" y="209.24" width="29.88" height="239.76"/><polygon class="cls-20" points="371.66 339.01 361.72 332.4 440.1 213.91 450.03 220.52 371.66 339.01"/><ellipse class="cls-2" cx="463.52" cy="157.49" rx="99.81" ry="104.3"/><ellipse class="cls-2" cx="553.17" cy="195.26" rx="89.05" ry="91.71"/><path class="cls-19" d="M647,194.66c0,51-38.52,92.3-86,92.3a80.44,80.44,0,0,1-16.74-1.75c39.51-8.35,69.3-45.72,69.3-90.55a97.13,97.13,0,0,0-11.68-46.46c-12.22-22.47-33.05-38.9-57.62-44.1A80.44,80.44,0,0,1,561,102.35a81.8,81.8,0,0,1,50.85,17.83C633.14,137,647,164.08,647,194.66Z"/><ellipse class="cls-2" cx="371.49" cy="243.21" rx="79.49" ry="79.72"/><path class="cls-19" d="M453.36,242.61c0,44.36-34,80.32-76,80.32a73.06,73.06,0,0,1-14.8-1.52c34.92-7.27,61.24-39.79,61.24-78.8a83.3,83.3,0,0,0-10.32-40.42c-10.79-19.55-29.2-33.85-50.92-38.38a72.8,72.8,0,0,1,59.73,14C441.12,192.42,453.36,216,453.36,242.61Z"/><polygon class="cls-20" points="458.93 344.42 448.99 353.98 378.06 279.77 388 270.21 458.93 344.42"/><rect class="cls-21" x="473.68" y="210.24" width="5.98" height="237.36"/><polygon class="cls-21" points="476.5 342.14 473.71 340.37 549.66 219.94 552.45 221.71 476.5 342.14"/><polygon class="cls-21" points="450.97 334.92 449.08 336.73 386.7 271.46 388.59 269.65 450.97 334.92"/><path class="cls-19" d="M566.92,152.1c0,55.28-42.66,100.1-95.3,100.1a91.06,91.06,0,0,1-18.26-1.84c43.91-8.94,77-49.53,77-98.26s-33.13-89.32-77-98.26A91.06,91.06,0,0,1,471.62,52C524.26,52,566.92,96.81,566.92,152.1Z"/><rect class="cls-20" x="449.78" y="210.24" width="29.88" height="239.76"/><polygon class="cls-20" points="473.66 340.01 463.72 333.4 542.1 214.91 552.03 221.52 473.66 340.01"/><ellipse class="cls-2" cx="539.52" cy="156.49" rx="99.81" ry="104.3"/><ellipse class="cls-2" cx="629.17" cy="194.26" rx="89.05" ry="91.71"/><path class="cls-19" d="M723,193.66c0,51-38.52,92.3-86,92.3a80.44,80.44,0,0,1-16.74-1.75c39.51-8.35,69.3-45.72,69.3-90.55a97.13,97.13,0,0,0-11.68-46.46c-12.22-22.47-33.05-38.9-57.62-44.1A80.44,80.44,0,0,1,637,101.35a81.8,81.8,0,0,1,50.85,17.83C709.14,136,723,163.08,723,193.66Z"/><ellipse class="cls-2" cx="447.49" cy="242.21" rx="79.49" ry="79.72"/><path class="cls-19" d="M529.36,241.61c0,44.36-34,80.32-76,80.32a73.06,73.06,0,0,1-14.8-1.52c34.92-7.27,61.24-39.79,61.24-78.8a83.3,83.3,0,0,0-10.32-40.42c-10.79-19.55-29.2-33.85-50.92-38.38a72.8,72.8,0,0,1,59.73,14C517.12,191.42,529.36,215,529.36,241.61Z"/><polygon class="cls-20" points="534.93 343.42 524.99 352.98 454.06 278.77 464 269.21 534.93 343.42"/><rect class="cls-21" x="549.68" y="209.24" width="5.98" height="237.36"/><polygon class="cls-21" points="552.5 341.14 549.71 339.37 625.66 218.94 628.45 220.71 552.5 341.14"/><polygon class="cls-21" points="526.97 333.92 525.08 335.73 462.7 270.46 464.59 268.65 526.97 333.92"/><path class="cls-19" d="M642.92,151.1c0,55.28-42.66,100.1-95.3,100.1a91.06,91.06,0,0,1-18.26-1.84c43.91-8.94,77-49.53,77-98.26s-33.13-89.32-77-98.26A91.06,91.06,0,0,1,547.62,51C600.26,51,642.92,95.81,642.92,151.1Z"/><rect class="cls-20" x="525.78" y="209.24" width="29.88" height="239.76"/><polygon class="cls-20" points="549.66 339.01 539.72 332.4 618.1 213.91 628.03 220.52 549.66 339.01"/><ellipse class="cls-2" cx="641.52" cy="158.49" rx="99.81" ry="104.3"/><ellipse class="cls-2" cx="731.17" cy="196.26" rx="89.05" ry="91.71"/><path class="cls-19" d="M825,195.66c0,51-38.52,92.3-86,92.3a80.44,80.44,0,0,1-16.74-1.75c39.51-8.35,69.3-45.72,69.3-90.55a97.13,97.13,0,0,0-11.68-46.46c-12.22-22.47-33.05-38.9-57.62-44.1A80.44,80.44,0,0,1,739,103.35a81.8,81.8,0,0,1,50.85,17.83C811.14,138,825,165.08,825,195.66Z"/><ellipse class="cls-2" cx="549.49" cy="244.21" rx="79.49" ry="79.72"/><path class="cls-19" d="M631.36,243.61c0,44.36-34,80.32-76,80.32a73.06,73.06,0,0,1-14.8-1.52c34.92-7.27,61.24-39.79,61.24-78.8a83.3,83.3,0,0,0-10.32-40.42c-10.79-19.55-29.2-33.85-50.92-38.38a72.8,72.8,0,0,1,59.73,14C619.12,193.42,631.36,217,631.36,243.61Z"/><polygon class="cls-20" points="636.93 345.42 626.99 354.98 556.06 280.77 566 271.21 636.93 345.42"/><rect class="cls-21" x="651.68" y="211.24" width="5.98" height="237.36"/><polygon class="cls-21" points="654.5 343.14 651.71 341.37 727.66 220.94 730.45 222.71 654.5 343.14"/><polygon class="cls-21" points="628.97 335.92 627.08 337.73 564.7 272.46 566.59 270.65 628.97 335.92"/><path class="cls-19" d="M744.92,153.1c0,55.28-42.66,100.1-95.3,100.1a91.06,91.06,0,0,1-18.26-1.84c43.91-8.94,77-49.53,77-98.26s-33.13-89.32-77-98.26A91.06,91.06,0,0,1,649.62,53C702.26,53,744.92,97.81,744.92,153.1Z"/><rect class="cls-20" x="627.78" y="211.24" width="29.88" height="239.76"/><polygon class="cls-20" points="651.66 341.01 641.72 334.4 720.1 215.91 730.03 222.52 651.66 341.01"/><ellipse class="cls-2" cx="757.52" cy="156.49" rx="99.81" ry="104.3"/><ellipse class="cls-2" cx="847.17" cy="194.26" rx="89.05" ry="91.71"/><path class="cls-19" d="M941,193.66c0,51-38.52,92.3-86,92.3a80.44,80.44,0,0,1-16.74-1.75c39.51-8.35,69.3-45.72,69.3-90.55a97.13,97.13,0,0,0-11.68-46.46c-12.22-22.47-33.05-38.9-57.62-44.1A80.44,80.44,0,0,1,855,101.35a81.8,81.8,0,0,1,50.85,17.83C927.14,136,941,163.08,941,193.66Z"/><ellipse class="cls-2" cx="665.49" cy="242.21" rx="79.49" ry="79.72"/><path class="cls-19" d="M747.36,241.61c0,44.36-34,80.32-76,80.32a73.06,73.06,0,0,1-14.8-1.52c34.92-7.27,61.24-39.79,61.24-78.8a83.3,83.3,0,0,0-10.32-40.42c-10.79-19.55-29.2-33.85-50.92-38.38a72.8,72.8,0,0,1,59.73,14C735.12,191.42,747.36,215,747.36,241.61Z"/><polygon class="cls-20" points="752.93 343.42 742.99 352.98 672.06 278.77 682 269.21 752.93 343.42"/><rect class="cls-21" x="767.68" y="209.24" width="5.98" height="237.36"/><polygon class="cls-21" points="770.5 341.14 767.71 339.37 843.66 218.94 846.45 220.71 770.5 341.14"/><polygon class="cls-21" points="744.97 333.92 743.08 335.73 680.7 270.46 682.59 268.65 744.97 333.92"/><path class="cls-19" d="M860.92,151.1c0,55.28-42.66,100.1-95.3,100.1a91.06,91.06,0,0,1-18.26-1.84c43.91-8.94,77-49.53,77-98.26s-33.13-89.32-77-98.26A91.06,91.06,0,0,1,765.62,51C818.26,51,860.92,95.81,860.92,151.1Z"/><rect class="cls-20" x="743.78" y="209.24" width="29.88" height="239.76"/><polygon class="cls-20" points="767.66 339.01 757.72 332.4 836.1 213.91 846.03 220.52 767.66 339.01"/><ellipse class="cls-2" cx="840.52" cy="167.49" rx="99.81" ry="104.3"/><ellipse class="cls-2" cx="930.17" cy="205.26" rx="89.05" ry="91.71"/><path class="cls-19" d="M1024,204.66c0,51-38.52,92.3-86,92.3a80.44,80.44,0,0,1-16.74-1.75c39.51-8.35,69.3-45.72,69.3-90.55a97.13,97.13,0,0,0-11.68-46.46c-12.22-22.47-33.05-38.9-57.62-44.1A80.44,80.44,0,0,1,938,112.35a81.8,81.8,0,0,1,50.85,17.83C1010.14,147,1024,174.08,1024,204.66Z"/><ellipse class="cls-2" cx="748.49" cy="253.21" rx="79.49" ry="79.72"/><path class="cls-19" d="M830.36,252.61c0,44.36-34,80.32-76,80.32a73.06,73.06,0,0,1-14.8-1.52c34.92-7.27,61.24-39.79,61.24-78.8a83.3,83.3,0,0,0-10.32-40.42c-10.79-19.55-29.2-33.85-50.92-38.38a72.8,72.8,0,0,1,59.73,14C818.12,202.42,830.36,226,830.36,252.61Z"/><polygon class="cls-20" points="835.93 354.42 825.99 363.98 755.06 289.77 765 280.21 835.93 354.42"/><rect class="cls-21" x="850.68" y="220.24" width="5.98" height="237.36"/><polygon class="cls-21" points="853.5 352.14 850.71 350.37 926.66 229.94 929.45 231.71 853.5 352.14"/><polygon class="cls-21" points="827.97 344.92 826.08 346.73 763.7 281.46 765.59 279.65 827.97 344.92"/><path class="cls-19" d="M943.92,162.1c0,55.28-42.66,100.1-95.3,100.1a91.06,91.06,0,0,1-18.26-1.84c43.91-8.94,77-49.53,77-98.26s-33.13-89.32-77-98.26A91.06,91.06,0,0,1,848.62,62C901.26,62,943.92,106.81,943.92,162.1Z"/><rect class="cls-20" x="826.78" y="220.24" width="29.88" height="239.76"/><polygon class="cls-20" points="850.66 350.01 840.72 343.4 919.1 224.91 929.03 231.52 850.66 350.01"/><ellipse class="cls-2" cx="907.52" cy="163.49" rx="99.81" ry="104.3"/><ellipse class="cls-2" cx="997.17" cy="201.26" rx="89.05" ry="91.71"/><path class="cls-19" d="M1091,200.66c0,51-38.52,92.3-86,92.3a80.44,80.44,0,0,1-16.74-1.75c39.51-8.35,69.3-45.72,69.3-90.55a97.13,97.13,0,0,0-11.68-46.46c-12.22-22.47-33-38.9-57.62-44.1a80.44,80.44,0,0,1,16.74-1.75,81.8,81.8,0,0,1,50.85,17.83C1077.14,143,1091,170.08,1091,200.66Z"/><ellipse class="cls-2" cx="815.49" cy="249.21" rx="79.49" ry="79.72"/><path class="cls-19" d="M897.36,248.61c0,44.36-34,80.32-76,80.32a73.06,73.06,0,0,1-14.8-1.52c34.92-7.27,61.24-39.79,61.24-78.8a83.3,83.3,0,0,0-10.32-40.42c-10.79-19.55-29.2-33.85-50.92-38.38a72.8,72.8,0,0,1,59.73,14C885.12,198.42,897.36,222,897.36,248.61Z"/><polygon class="cls-20" points="902.93 350.42 892.99 359.98 822.06 285.77 832 276.21 902.93 350.42"/><rect class="cls-21" x="917.68" y="216.24" width="5.98" height="237.36"/><polygon class="cls-21" points="920.5 348.14 917.71 346.37 993.66 225.94 996.45 227.71 920.5 348.14"/><polygon class="cls-21" points="894.97 340.92 893.08 342.73 830.7 277.46 832.59 275.65 894.97 340.92"/><path class="cls-19" d="M1010.92,158.1c0,55.28-42.66,100.1-95.3,100.1a91.06,91.06,0,0,1-18.26-1.84c43.91-8.94,77-49.53,77-98.26s-33.13-89.32-77-98.26A91.06,91.06,0,0,1,915.62,58C968.26,58,1010.92,102.81,1010.92,158.1Z"/><rect class="cls-20" x="893.78" y="216.24" width="29.88" height="239.76"/><polygon class="cls-20" points="917.66 346.01 907.72 339.4 986.1 220.91 996.03 227.52 917.66 346.01"/><ellipse class="cls-2" cx="129.52" cy="150.49" rx="99.81" ry="104.3"/><ellipse class="cls-2" cx="219.17" cy="188.26" rx="89.05" ry="91.71"/><path class="cls-19" d="M313,187.66c0,51-38.52,92.3-86.05,92.3a80.44,80.44,0,0,1-16.74-1.75c39.51-8.35,69.3-45.72,69.3-90.55a97.13,97.13,0,0,0-11.68-46.46c-12.22-22.47-33-38.9-57.62-44.1A80.44,80.44,0,0,1,227,95.35a81.8,81.8,0,0,1,50.85,17.83C299.14,130,313,157.08,313,187.66Z"/><ellipse class="cls-2" cx="37.49" cy="236.21" rx="79.49" ry="79.72"/><path class="cls-19" d="M119.36,235.61c0,44.36-34,80.32-76,80.32a73.06,73.06,0,0,1-14.8-1.52c34.92-7.27,61.24-39.79,61.24-78.8a83.3,83.3,0,0,0-10.32-40.42c-10.79-19.55-29.2-33.85-50.92-38.38a72.8,72.8,0,0,1,59.73,14C107.12,185.42,119.36,209,119.36,235.61Z"/><polygon class="cls-20" points="124.93 337.42 114.99 346.98 44.06 272.77 54 263.21 124.93 337.42"/><rect class="cls-21" x="139.68" y="203.24" width="5.98" height="237.36"/><polygon class="cls-21" points="142.5 335.14 139.71 333.37 215.66 212.94 218.45 214.71 142.5 335.14"/><polygon class="cls-21" points="116.97 327.92 115.08 329.73 52.7 264.46 54.59 262.65 116.97 327.92"/><path class="cls-19" d="M232.92,145.1c0,55.28-42.66,100.1-95.3,100.1a91.06,91.06,0,0,1-18.26-1.84c43.91-8.94,77-49.53,77-98.26s-33.13-89.32-77-98.26A91.06,91.06,0,0,1,137.62,45C190.26,45,232.92,89.81,232.92,145.1Z"/><rect class="cls-20" x="115.78" y="203.24" width="29.88" height="239.76"/><polygon class="cls-20" points="139.66 333.01 129.72 326.4 208.1 207.91 218.03 214.52 139.66 333.01"/><ellipse class="cls-2" cx="703.52" cy="164.49" rx="99.81" ry="104.3"/><ellipse class="cls-2" cx="793.17" cy="202.26" rx="89.05" ry="91.71"/><path class="cls-19" d="M887,201.66c0,51-38.52,92.3-86,92.3a80.44,80.44,0,0,1-16.74-1.75c39.51-8.35,69.3-45.72,69.3-90.55a97.13,97.13,0,0,0-11.68-46.46c-12.22-22.47-33.05-38.9-57.62-44.1A80.44,80.44,0,0,1,801,109.35a81.8,81.8,0,0,1,50.85,17.83C873.14,144,887,171.08,887,201.66Z"/><ellipse class="cls-2" cx="611.49" cy="250.21" rx="79.49" ry="79.72"/><path class="cls-19" d="M693.36,249.61c0,44.36-34,80.32-76,80.32a73.06,73.06,0,0,1-14.8-1.52c34.92-7.27,61.24-39.79,61.24-78.8a83.3,83.3,0,0,0-10.32-40.42c-10.79-19.55-29.2-33.85-50.92-38.38a72.8,72.8,0,0,1,59.73,14C681.12,199.42,693.36,223,693.36,249.61Z"/><polygon class="cls-20" points="698.93 351.42 688.99 360.98 618.06 286.77 628 277.21 698.93 351.42"/><rect class="cls-21" x="713.68" y="217.24" width="5.98" height="237.36"/><polygon class="cls-21" points="716.5 349.14 713.71 347.37 789.66 226.94 792.45 228.71 716.5 349.14"/><polygon class="cls-21" points="690.97 341.92 689.08 343.73 626.7 278.46 628.59 276.65 690.97 341.92"/><path class="cls-19" d="M806.92,159.1c0,55.28-42.66,100.1-95.3,100.1a91.06,91.06,0,0,1-18.26-1.84c43.91-8.94,77-49.53,77-98.26s-33.13-89.32-77-98.26A91.06,91.06,0,0,1,711.62,59C764.26,59,806.92,103.81,806.92,159.1Z"/><rect class="cls-20" x="689.78" y="217.24" width="29.88" height="239.76"/><polygon class="cls-20" points="713.66 347.01 703.72 340.4 782.1 221.91 792.03 228.52 713.66 347.01"/><ellipse class="cls-2" cx="412.52" cy="165.49" rx="99.81" ry="104.3"/><ellipse class="cls-2" cx="502.17" cy="203.26" rx="89.05" ry="91.71"/><path class="cls-19" d="M596,202.66c0,51-38.52,92.3-86.05,92.3a80.44,80.44,0,0,1-16.74-1.75c39.51-8.35,69.3-45.72,69.3-90.55a97.13,97.13,0,0,0-11.68-46.46c-12.22-22.47-33.05-38.9-57.62-44.1A80.44,80.44,0,0,1,510,110.35a81.8,81.8,0,0,1,50.85,17.83C582.14,145,596,172.08,596,202.66Z"/><ellipse class="cls-2" cx="320.49" cy="251.21" rx="79.49" ry="79.72"/><path class="cls-19" d="M402.36,250.61c0,44.36-34,80.32-76,80.32a73.06,73.06,0,0,1-14.8-1.52c34.92-7.27,61.24-39.79,61.24-78.8a83.3,83.3,0,0,0-10.32-40.42c-10.79-19.55-29.2-33.85-50.92-38.38a72.8,72.8,0,0,1,59.73,14C390.12,200.42,402.36,224,402.36,250.61Z"/><polygon class="cls-20" points="407.93 352.42 397.99 361.98 327.06 287.77 337 278.21 407.93 352.42"/><rect class="cls-21" x="422.68" y="218.24" width="5.98" height="237.36"/><polygon class="cls-21" points="425.5 350.14 422.71 348.37 498.66 227.94 501.45 229.71 425.5 350.14"/><polygon class="cls-21" points="399.97 342.92 398.08 344.73 335.7 279.46 337.59 277.65 399.97 342.92"/><path class="cls-19" d="M515.92,160.1c0,55.28-42.66,100.1-95.3,100.1a91.06,91.06,0,0,1-18.26-1.84c43.91-8.94,77-49.53,77-98.26s-33.13-89.32-77-98.26A91.06,91.06,0,0,1,420.62,60C473.26,60,515.92,104.81,515.92,160.1Z"/><rect class="cls-20" x="398.78" y="218.24" width="29.88" height="239.76"/><polygon class="cls-20" points="422.66 348.01 412.72 341.4 491.1 222.91 501.03 229.52 422.66 348.01"/><ellipse class="cls-2" cx="299.52" cy="165.49" rx="99.81" ry="104.3"/><ellipse class="cls-2" cx="389.17" cy="203.26" rx="89.05" ry="91.71"/><path class="cls-19" d="M483,202.66c0,51-38.52,92.3-86.05,92.3a80.44,80.44,0,0,1-16.74-1.75c39.51-8.35,69.3-45.72,69.3-90.55a97.13,97.13,0,0,0-11.68-46.46c-12.22-22.47-33.05-38.9-57.62-44.1A80.44,80.44,0,0,1,397,110.35a81.8,81.8,0,0,1,50.85,17.83C469.14,145,483,172.08,483,202.66Z"/><ellipse class="cls-2" cx="207.49" cy="251.21" rx="79.49" ry="79.72"/><path class="cls-19" d="M289.36,250.61c0,44.36-34,80.32-76,80.32a73.06,73.06,0,0,1-14.8-1.52c34.92-7.27,61.24-39.79,61.24-78.8a83.3,83.3,0,0,0-10.32-40.42c-10.79-19.55-29.2-33.85-50.92-38.38a72.8,72.8,0,0,1,59.73,14C277.12,200.42,289.36,224,289.36,250.61Z"/><polygon class="cls-20" points="294.93 352.42 284.99 361.98 214.06 287.77 224 278.21 294.93 352.42"/><rect class="cls-21" x="309.68" y="218.24" width="5.98" height="237.36"/><polygon class="cls-21" points="312.5 350.14 309.71 348.37 385.66 227.94 388.45 229.71 312.5 350.14"/><polygon class="cls-21" points="286.97 342.92 285.08 344.73 222.7 279.46 224.59 277.65 286.97 342.92"/><path class="cls-19" d="M402.92,160.1c0,55.28-42.66,100.1-95.3,100.1a91.06,91.06,0,0,1-18.26-1.84c43.91-8.94,77-49.53,77-98.26s-33.13-89.32-77-98.26A91.06,91.06,0,0,1,307.62,60C360.26,60,402.92,104.81,402.92,160.1Z"/><rect class="cls-20" x="285.78" y="218.24" width="29.88" height="239.76"/><polygon class="cls-20" points="309.66 348.01 299.72 341.4 378.1 222.91 388.03 229.52 309.66 348.01"/><path class="cls-8" d="M123.78,532.14c-3.23-61.91,8.95-79.83,20.93-84.53,4.64-1.83,4.51.2,38.88,0,16.59-.1,25.55-.63,42.86,0,14.05.5,21.08.75,23.93,1.83,23.51,8.92,21.36,61.38,19.93,80.86Z"/><polygon class="cls-22" points="169.57 426.4 169.57 459.89 197.96 479.64 225.68 464.18 225.68 426.4 169.57 426.4"/><path class="cls-23" d="M264.69,382.37c-.48,3.54-.49,4.88-1.39,5.31-3.27,1.58-5.43,2.62-8.14,2.6s-1.51,5.52-1.4,6.65a.61.61,0,0,1,0,.14c0,.3,0,.62,0,.95a21.78,21.78,0,0,0-30.54,19.71A21.35,21.35,0,0,0,229,432.3c-.7.43-1.4.84-2.12,1.24-18.75,10.38-37.69,5.52-41.48,4.55,0,0-13.18-3.39-27.8-15.76a49.21,49.21,0,0,1-8.19-8.93l-.29-.45a44.55,44.55,0,0,1-5.1-11.07c-1.52-4.91-2-9.14-1.48-10.73a2.65,2.65,0,0,0,0-1.77s-.49-.71-.89-.45c-2.72,1.75-4.95-.92-6.29-2.27-1.77-1.77-2.19-5-2.19-8,0-.27,0-.56,0-.87v0a13.78,13.78,0,0,1,.9-5.14,9.49,9.49,0,0,1,1.41-2.38c.73-.89,2.24-2.74,4.07-2.63,1.11.07,2.42.85,2.71.47.06-.09,0-.19,0-.44a6,6,0,0,1,.24-1.55c.24-2,0-7.1,0-7.1-.48-4.52,1.49-17,2.2-20.17,2.84-12.71,18.89-24.49,32.22-29.92,17.88-7.27,39.65-6.69,56.29,3.11,4.07,2.4,13.09,7.72,18.32,18.34A44.91,44.91,0,0,1,256,347.69c0,4.09-1.23,21.22-.62,20.85,3.62-2.19,6.35.46,8.53,4.06C265,374.45,265.4,377.14,264.69,382.37Z"/><ellipse class="cls-24" cx="173.52" cy="376.32" rx="7.54" ry="5.63" transform="translate(-204.24 546.68) rotate(-89.52)"/><ellipse class="cls-24" cx="225.32" cy="376.73" rx="7.54" ry="5.63" transform="translate(-153.28 598.89) rotate(-89.52)"/><path class="cls-25" d="M168.08,352.76c4.26,1.47,14.7,6.47,16.16,6.78a1.74,1.74,0,0,1,.9.45,1.59,1.59,0,0,1,.44.89,2.11,2.11,0,0,1-.91,1.77,2.45,2.45,0,0,1-.91.44,3.32,3.32,0,0,1-2.25-.46,68.52,68.52,0,0,0-9.43-4.07c-2-.64-3.82-1.7-5.83-2.27-.35-.1-1.12-.31-1.35-.9s.56-1.75.92-2.21a1.89,1.89,0,0,1,.46-.44A2.22,2.22,0,0,1,168.08,352.76Z"/><path class="cls-25" d="M230.64,353.26c-4.28,1.4-14.8,6.23-16.27,6.52a1.82,1.82,0,0,0-.9.44,1.56,1.56,0,0,0-.46.88,2.08,2.08,0,0,0,.89,1.78,2.28,2.28,0,0,0,.89.45,3.22,3.22,0,0,0,2.26-.42,69.81,69.81,0,0,1,9.49-3.92c2-.6,3.86-1.63,5.88-2.17.35-.09,1.11-.29,1.35-.88s-.52-1.76-.88-2.22a1.69,1.69,0,0,0-.45-.45A2.2,2.2,0,0,0,230.64,353.26Z"/><path class="cls-26" d="M182.16,421a23.45,23.45,0,0,1,14.48-7.43c11.7-1.26,19.49,7.33,20.2,8.15"/><path class="cls-27" d="M193.33,395.7c1.86-4.34,6.06-6.14,8.87-4.92,2.5,1.09,3.21,4.28,3.3,4.71"/><path class="cls-25" d="M146.29,373a5.59,5.59,0,0,0-9.47.81,4.62,4.62,0,0,0-.93,3.55c.4,5.33,1.08,5.8,1.75,6.67a5.34,5.34,0,0,0,4.94,1.81c2.54-.42,4.45-2.79,4.08-3.52-.17-.35-.77-.07-1.79-.45a4,4,0,0,1-2.68-3.13,3.79,3.79,0,0,1,1.83-3.09c1.23-.81,2.45-.58,2.71-1.31C146.89,373.86,146.55,373.36,146.29,373Z"/><path class="cls-25" d="M251.26,373.83a5.59,5.59,0,0,1,9.45,1,4.56,4.56,0,0,1,.87,3.56c-.47,5.33-1.16,5.78-1.85,6.64a5.36,5.36,0,0,1-5,1.74c-2.53-.46-4.4-2.87-4-3.58.19-.35.77-.07,1.81-.43a4,4,0,0,0,2.73-3.09,3.8,3.8,0,0,0-1.78-3.12c-1.22-.82-2.45-.61-2.69-1.35C250.64,374.69,251,374.19,251.26,373.83Z"/><path class="cls-28" d="M198,291.93a44.56,44.56,0,0,1,23.21-2.3c14,2.43,22.54,11.7,24.94,14.36,4.51,5,6.47,9.41,9.87,17.23,6.06,14,4.24,21.34,11,40.21a18.82,18.82,0,0,1,1.45,7.18c.13.7-.71,1.6-.58,2.3,0,.1-1.64,4.65-1.74,6.32a35.55,35.55,0,0,0,0,4c0,3.52-.58,2.3-.58,4.6,0,3.95,3.19,6,2,8.32-.86,1.75-3.21,2.23-6.38,2.88-3,.6-6,1.22-8.12,0-2.51-1.46-3-5.14-2.91-13.79.27-17.68,2.79-25.19-1.74-30.44a24.48,24.48,0,0,0-4.64-4c-4.39-3-6.45-2.39-8.7-4-6-4.38-2.45-16.73-4.64-17.23-1.5-.34-1.94,7.44-7.54,10.92-3.34,2.07-5.22.6-16.83.57-10.86,0-12.26,1.25-15.66-.57-5.6-3-6.93-9.3-9.28-8.62-1.89.54-1.05,4.3-3.48,6.89-5,5.33-16-3-22.63,1.15-5.35,3.39-.57,10.51-4.64,30.45-1.79,8.77-4.65,21-5.8,27.57-.15.85-.5,2.93-1.16,5.74-.61,2.58-.77,2.75-1.16,4.6-1,4.88-.25,5.32-1.16,6.32-2.63,2.86-10.39.59-10.43.57h0s-.08-8.85,0-13.79a184.08,184.08,0,0,1,1.74-20.67c1.74-12,3.21-11.81,4.64-21.26,2.63-17.23-1.86-20.33,1.75-33.89,1.45-5.48,3.32-12.36,9.28-18.38,8.29-8.38,19.71-9.57,24.94-9.76l13.35,2.87A45.76,45.76,0,0,1,198,291.93Z"/><path class="cls-23" d="M253.81,398a13.81,13.81,0,0,1-.22,2.4,22,22,0,0,0-3.06-.21,21.35,21.35,0,0,0-21.46,21.25,21,21,0,0,0,2.19,9.36c-.74.51-1.5,1-2.26,1.48a21.35,21.35,0,0,1-5.73-14.57A21.78,21.78,0,0,1,253.81,398Z"/><path class="cls-23" d="M253.59,400.42c-1.43,8.63-9.88,21.85-22.33,30.4a21,21,0,0,1-2.19-9.36,21.35,21.35,0,0,1,21.46-21.25A22,22,0,0,1,253.59,400.42Z"/><path class="cls-28" d="M272,421.46a21.51,21.51,0,0,1-40.74,9.36c12.45-8.55,20.9-21.77,22.33-30.4A21.34,21.34,0,0,1,272,421.46Z"/><path class="cls-29" d="M482.51,541c-3.13-62.5,8.66-80.59,20.25-85.34,4.49-1.84,4.36.2,37.62,0,16-.1,24.71-.63,41.46,0,13.6.51,20.39.76,23.15,1.86,22.74,9,20.67,62,19.29,81.62Z"/><polygon class="cls-22" points="531.12 423.97 531.12 457.78 556.85 477.72 581.96 462.11 581.96 423.97 531.12 423.97"/><path class="cls-23" d="M614.75,373.8c3.75-2.19,6.5.7,8.67,4.58,1.12,2,1.49,4.85.68,10.36-.55,3.74-.58,5.15-1.52,5.58-3.37,1.56-5.61,2.59-8.38,2.48s-1.65,5.79-1.55,7c.77,9.47-10.8,28.56-28.16,37.84-19.4,10.37-38.74,4.59-42.6,3.44,0,0-13.46-4-28.23-17.59a52.64,52.64,0,0,1-8.24-9.72c-.15-.23-.25-.41-.3-.49-5.48-9.06-7.28-20.4-6.38-23.28a2.87,2.87,0,0,0,0-1.87s-.49-.77-.91-.51c-2.81,1.76-5.05-1.15-6.4-2.61-1.79-1.93-2.17-5.35-2.11-8.54,0-2.31.1-5.9,2.52-8.82.76-.92,2.34-2.83,4.22-2.65,1.14.11,2.47,1,2.76.58.07-.1,0-.2,0-.47a6.54,6.54,0,0,1,.27-1.63c.28-2.1.18-7.51.18-7.51-.42-4.8,1.81-17.95,2.58-21.27,3.13-13.35,19.78-25.28,33.54-30.58,18.45-7.09,40.76-5.76,57.65,5.17,4.13,2.67,13.29,8.59,18.47,20a49.31,49.31,0,0,1,4.18,18.49C615.71,356.09,614.12,374.18,614.75,373.8Z"/><ellipse class="cls-24" cx="530.74" cy="379.31" rx="7.98" ry="5.77" transform="translate(148.62 908.04) rotate(-89.7)"/><ellipse class="cls-24" cx="583.84" cy="381.47" rx="7.98" ry="5.77" transform="translate(199.28 963.28) rotate(-89.7)"/><path class="cls-25" d="M525.57,354.21c4.34,1.69,15,7.33,16.45,7.71a1.83,1.83,0,0,1,.91.51,1.77,1.77,0,0,1,.44,1,2.24,2.24,0,0,1-1,1.84,2.46,2.46,0,0,1-.93.43,3.27,3.27,0,0,1-2.3-.57,71.84,71.84,0,0,0-9.59-4.61c-2-.74-3.9-1.92-6-2.59-.36-.12-1.14-.37-1.36-1s.59-1.84,1-2.31a1.78,1.78,0,0,1,.47-.45A2.23,2.23,0,0,1,525.57,354.21Z"/><path class="cls-25" d="M589.69,356.81c-4.42,1.34-15.28,6.11-16.79,6.37a1.74,1.74,0,0,0-.93.43,1.69,1.69,0,0,0-.49.92,2.31,2.31,0,0,0,.88,1.91,2.6,2.6,0,0,0,.91.51,3.2,3.2,0,0,0,2.32-.38,70.34,70.34,0,0,1,9.8-3.83c2.06-.57,4-1.59,6.06-2.1.36-.09,1.15-.27,1.4-.88s-.5-1.88-.86-2.38a2,2,0,0,0-.45-.49A2.24,2.24,0,0,0,589.69,356.81Z"/><path class="cls-26" d="M538.86,426.85a23.38,23.38,0,0,1,15-7.38c12-1,19.85,8.4,20.57,9.29"/><path class="cls-27" d="M550.73,400.48c2-4.53,6.31-6.29,9.17-4.91,2.55,1.24,3.23,4.64,3.31,5.09"/><path class="cls-30" d="M498.8,354.53a2.71,2.71,0,0,1-.45-1,8.54,8.54,0,0,1-.44-1.9c-1.52-17,3.54-28,3.54-28,7-14.71,20.28-21.05,29.76-25.56,6.57-3.13,17.74-8.45,33.16-8.05,5.06.13,29.43,1.38,45.88,20.19,13.69,15.65,16.73,37.58,14.37,38.63-.53.23-1.32-.6-2.35-1.51-6.48-5.71-14-7.11-20.83-8.36-7.16-1.32-13.55-.14-26.34,2.22s-10.09,3.19-15.85,3.58c-13.52.91-30.82-3.61-35.65-8-.43-.4-2.07-2-3.31-1.55-.82.29-.68,1.39-1.51,3.23-.58,1.27-1,1.47-3,4.11-2.31,3-2,3-3,4.1-.72.81-1.38,1.39-6.32,4.44C502.14,353.8,499.58,355.25,498.8,354.53Z"/><path class="cls-25" d="M502.89,374.89a5.76,5.76,0,0,0-4.56-2.53,5.57,5.57,0,0,0-5.16,3.08,4.89,4.89,0,0,0-1,3.71c.31,5.66,1,6.18,1.68,7.12a5.48,5.48,0,0,0,5,2.08c2.61-.35,4.61-2.81,4.25-3.58-.18-.38-.79-.11-1.84-.55a4.26,4.26,0,0,1-2.69-3.4,4,4,0,0,1,1.93-3.21c1.27-.81,2.52-.52,2.8-1.29A1.78,1.78,0,0,0,502.89,374.89Z"/><path class="cls-25" d="M610.48,379.27a5.52,5.52,0,0,1,4.67-2.16,5.78,5.78,0,0,1,5,3.49,5,5,0,0,1,.83,3.79c-.58,5.62-1.29,6.08-2,7a5.29,5.29,0,0,1-5.12,1.67c-2.59-.56-4.47-3.17-4.07-3.92.19-.36.79,0,1.86-.39a4.09,4.09,0,0,0,2.85-3.17,4.13,4.13,0,0,0-1.77-3.36c-1.24-.92-2.5-.74-2.74-1.53C609.83,380.16,610.2,379.64,610.48,379.27Z"/><path class="cls-31" d="M325.85,549c-1.94-39.47,5.36-50.89,12.53-53.89,2.78-1.16,2.7.13,23.28,0,9.94-.06,15.3-.4,25.67,0,8.41.32,12.62.48,14.32,1.17,14.08,5.69,12.79,39.13,11.94,51.55Z"/><polygon class="cls-22" points="353.27 481.59 353.27 502.94 370.27 515.53 386.87 505.68 386.87 481.59 353.27 481.59"/><path class="cls-23" d="M410.22,453.52c-.29,2.26-.29,3.11-.83,3.39-2,1-3.25,1.67-4.87,1.66s-.91,3.51-.84,4.23c0,0,0,.06,0,.09,0,.2,0,.4,0,.61a12.42,12.42,0,0,0-5.26-1.17c-7.2,0-13,6.15-13,13.73a14.08,14.08,0,0,0,3.43,9.29c-.41.28-.83.54-1.27.79-11.22,6.62-22.56,3.52-24.83,2.9,0,0-7.9-2.15-16.65-10a30.67,30.67,0,0,1-4.9-5.7L341,473a29.34,29.34,0,0,1-3-7.05c-.91-3.13-1.18-5.83-.89-6.84a1.77,1.77,0,0,0,0-1.13s-.3-.45-.54-.29c-1.62,1.12-3-.58-3.76-1.44-1.06-1.13-1.31-3.18-1.31-5.11v-.55h0a9.77,9.77,0,0,1,.54-3.29,6.36,6.36,0,0,1,.85-1.51c.43-.57,1.34-1.74,2.44-1.67.66,0,1.45.54,1.62.29,0-.06,0-.12,0-.28a4.12,4.12,0,0,1,.14-1c.14-1.27,0-4.52,0-4.52-.29-2.89.89-10.85,1.32-12.86,1.7-8.1,11.31-15.62,19.29-19.07,10.71-4.64,23.74-4.27,33.71,2a27.35,27.35,0,0,1,11,11.69A30.36,30.36,0,0,1,405,431.42c0,2.6-.74,13.52-.37,13.29,2.16-1.4,3.8.29,5.1,2.58C410.4,448.48,410.65,450.19,410.22,453.52Z"/><ellipse cx="355.63" cy="449.66" rx="4.81" ry="3.37" transform="translate(-96.45 802.21) rotate(-89.61)"/><path d="M355.61,454.74h0a3.17,3.17,0,0,1-2.57-1.53,6.28,6.28,0,0,1-1-3.58c0-2.8,1.65-5.06,3.66-5.05a3.21,3.21,0,0,1,2.57,1.54,6.27,6.27,0,0,1,1,3.57h0C359.23,452.49,357.6,454.74,355.61,454.74Zm0-9.61c-1.72,0-3.12,2-3.14,4.51a5.66,5.66,0,0,0,.91,3.24,2.73,2.73,0,0,0,2.18,1.32h0c1.72,0,3.13-2,3.14-4.51a5.63,5.63,0,0,0-.91-3.24,2.68,2.68,0,0,0-2.17-1.32Z"/><ellipse cx="386.65" cy="449.93" rx="4.81" ry="3.37" transform="translate(-65.91 833.49) rotate(-89.61)"/><path d="M386.63,455h0a3.21,3.21,0,0,1-2.57-1.54,6.27,6.27,0,0,1-1-3.57c0-2.79,1.65-5,3.64-5h0a3.2,3.2,0,0,1,2.57,1.53,6.28,6.28,0,0,1,1,3.58C390.25,452.75,388.62,455,386.63,455Zm0-9.62c-1.71,0-3.12,2-3.13,4.51a5.61,5.61,0,0,0,.91,3.24,2.68,2.68,0,0,0,2.17,1.32h0c1.72,0,3.12-2,3.14-4.51h0a5.66,5.66,0,0,0-.91-3.24,2.73,2.73,0,0,0-2.18-1.32Z"/><path class="cls-25" d="M352.37,434.64c2.56.94,8.81,4.13,9.68,4.33a1,1,0,0,1,.54.29,1,1,0,0,1,.26.56,1.37,1.37,0,0,1-.54,1.13,1.4,1.4,0,0,1-.55.28,1.88,1.88,0,0,1-1.34-.29,39.32,39.32,0,0,0-5.65-2.6c-1.19-.4-2.29-1.08-3.49-1.44-.21-.07-.67-.2-.81-.57s.33-1.12.55-1.41.23-.26.28-.28A1.24,1.24,0,0,1,352.37,434.64Z"/><path class="cls-25" d="M389.84,435c-2.57.9-8.87,4-9.75,4.16a1.11,1.11,0,0,0-.54.28,1,1,0,0,0-.27.56,1.37,1.37,0,0,0,.53,1.14,1.4,1.4,0,0,0,.54.29,1.87,1.87,0,0,0,1.35-.27,39.47,39.47,0,0,1,5.68-2.5c1.2-.39,2.31-1,3.52-1.39a1.1,1.1,0,0,0,.81-.55c.18-.47-.31-1.13-.53-1.42a1.13,1.13,0,0,0-.26-.29A1.3,1.3,0,0,0,389.84,435Z"/><path class="cls-25" d="M380.47,479.69c-.46-.56-4.62-5.38-10.84-4.67a12.38,12.38,0,0,0-7.74,4.24L359.72,477a15.36,15.36,0,0,1,9.6-5.23c7.69-.88,12.8,5,13.36,5.72Z"/><path class="cls-25" d="M369.09,462.79l-3.18-1.53c1.42-3.55,4.81-5.4,7.57-4.13,2.2,1,2.85,3.59,3,4.36l-3.4.8a2.49,2.49,0,0,0-.95-1.65C371.38,460.29,369.82,461,369.09,462.79Z"/><path class="cls-25" d="M339.33,447.54a3.25,3.25,0,0,0-5.67.52,3,3,0,0,0-.56,2.26c.24,3.4.65,3.7,1,4.25a3.09,3.09,0,0,0,3,1.16c1.52-.27,2.66-1.78,2.44-2.24-.1-.23-.46-.05-1.07-.3a2.15,2.15,0,0,1-.51-4c.73-.51,1.47-.37,1.62-.83C339.69,448.1,339.48,447.78,339.33,447.54Z"/><path class="cls-25" d="M402.18,448.08a3.25,3.25,0,0,1,2.71-1.39,3.31,3.31,0,0,1,2.95,2,3,3,0,0,1,.52,2.27c-.28,3.4-.7,3.69-1.11,4.23a3.08,3.08,0,0,1-3,1.11c-1.52-.29-2.64-1.83-2.41-2.28.11-.23.46,0,1.08-.28a2.5,2.5,0,0,0,1.63-2,2.47,2.47,0,0,0-1.06-2c-.73-.53-1.47-.39-1.61-.86A1,1,0,0,1,402.18,448.08Z"/><path class="cls-32" d="M370.31,395.87a25.18,25.18,0,0,1,13.89-1.47c8.36,1.55,13.5,7.46,14.94,9.16,2.7,3.18,3.87,6,5.91,11,3.63,8.9,2.54,13.6,6.6,25.64a12.58,12.58,0,0,1,.87,4.57c.08.45-.43,1-.35,1.47a30.31,30.31,0,0,0-1,4,24,24,0,0,0,0,2.56c0,2.24-.35,1.46-.35,2.93,0,2.52,1.91,3.8,1.21,5.31-.51,1.11-1.92,1.42-3.82,1.83s-3.6.78-4.86,0c-1.5-.93-1.81-3.27-1.74-8.79.16-11.27,1.67-16.06-1-19.41a15.43,15.43,0,0,0-2.78-2.56c-2.63-1.89-3.86-1.52-5.21-2.56-3.59-2.8-1.46-10.67-2.78-11-.9-.22-1.16,4.74-4.51,7-2,1.32-3.12.38-10.08.36-6.5,0-7.34.8-9.38-.36-3.35-1.92-4.14-5.93-5.55-5.49-1.14.34-.63,2.73-2.09,4.39-3,3.4-9.6-1.93-13.55.73-3.2,2.16-.34,6.7-2.78,19.41-1.07,5.59-2.78,13.38-3.47,17.58-.09.54-.3,1.87-.69,3.66-.37,1.64-.47,1.75-.7,2.93-.62,3.11-.15,3.39-.69,4-1.58,1.82-6.22.37-6.25.36h0s-.05-5.64,0-8.79a124.19,124.19,0,0,1,1.05-13.18c1-7.65,1.91-7.53,2.77-13.55,1.58-11-1.11-13,1.05-21.6.87-3.5,2-7.88,5.55-11.72,5-5.34,11.81-6.1,14.94-6.23l8,1.84A26.8,26.8,0,0,1,370.31,395.87Z"/><path class="cls-23" d="M403.71,463.5a10.53,10.53,0,0,1-.13,1.53,12.32,12.32,0,0,0-1.83-.14c-7.1,0-12.86,6.07-12.86,13.55a14.11,14.11,0,0,0,1.32,6c-.44.33-.9.64-1.36.94a14.08,14.08,0,0,1-3.43-9.29c0-7.58,5.83-13.73,13-13.73A12.42,12.42,0,0,1,403.71,463.5Z"/><path class="cls-23" d="M403.58,465c-.86,5.5-5.92,13.93-13.37,19.38a14.11,14.11,0,0,1-1.32-6c0-7.48,5.76-13.55,12.86-13.55A12.32,12.32,0,0,1,403.58,465Z"/><path class="cls-32" d="M414.6,478.44c0,7.48-5.76,13.55-12.85,13.55a12.8,12.8,0,0,1-11.54-7.58c7.45-5.45,12.51-13.88,13.37-19.38A13.35,13.35,0,0,1,414.6,478.44Z"/><path class="cls-33" d="M367.5,612.5c-8.52-7.25-18.34-.85-18-23,.58-38.22,36.44-84.09,72-77,20.77,4.14,27.66-30.81,44-34,15.35-3,24.21,14.1,43-1,13.82-11.11,46.09-24.66,63-22,39.9,6.29,52,22,76,57,15.38,22.42,26.15,1,52,7,25,5.84,46.18,46.86,40,81-4.94,27.3-22.82,30.08-43,30-8.93,0-14.7.66-31,1-11.94.25-19.67-2.22-25-1-37.77,8.65-34-5-73-4-20.4.52-36.26,4.79-54,7-28.84,3.59-37.08-10.81-65-6-15.94,2.75-22.75-2.28-39-1C392.37,627.85,377.06,621.48,367.5,612.5Z"/><path class="cls-33" d="M1605.3,495.41c-4.87-4.26-10.49-.51-10.3-13.51.34-22.45,20.84-49.39,41.17-45.22,11.87,2.43,15.81-18.1,25.15-20,8.78-1.76,13.84,8.28,24.58-.59,7.91-6.52,26.35-14.49,36-12.92,22.81,3.69,29.73,12.92,43.45,33.48,8.79,13.16,15,.57,29.73,4.11,14.32,3.43,26.4,27.52,22.86,47.57-2.82,16-13,17.66-24.58,17.62-5.1,0-8.4.39-17.72.59-6.83.14-11.25-1.31-14.29-.59-21.6,5.08-19.44-2.94-41.74-2.35-11.66.31-20.73,2.81-30.87,4.11-16.48,2.11-21.2-6.35-37.16-3.52-9.11,1.61-13-1.34-22.29-.59A31.3,31.3,0,0,1,1605.3,495.41Z"/><path class="cls-33" d="M1516.11,495.54c-2.89-3.2-6.22-.37-6.11-10.16.2-16.9,12.36-37.17,24.41-34,7,1.83,9.38-13.62,14.92-15,5.2-1.33,8.2,6.23,14.58-.45,4.68-4.9,15.62-10.9,21.35-9.72,13.53,2.78,17.63,9.72,25.77,25.19,5.21,9.91,8.86.43,17.63,3.1,8.49,2.58,15.65,20.71,13.56,35.8-1.68,12.06-7.74,13.29-14.58,13.26-3,0-5,.29-10.51.44-4.05.11-6.67-1-8.48-.44-12.8,3.82-11.52-2.21-24.74-1.77-6.92.23-12.3,2.12-18.31,3.09-9.77,1.59-12.57-4.77-22-2.65-5.4,1.22-7.71-1-13.22-.44A16.36,16.36,0,0,1,1516.11,495.54Z"/><path class="cls-33" d="M-2.5,603.5c-8.52-7.25-18.34-.85-18-23,.58-38.22,36.44-84.09,72-77,20.77,4.14,27.66-30.81,44-34,15.35-3,24.21,14.1,43-1,13.82-11.11,46.09-24.66,63-22,39.9,6.29,52,22,76,57,15.38,22.42,26.15,1,52,7,25.05,5.84,46.18,46.86,40,81-4.94,27.3-22.82,30.08-43,30-8.93,0-14.7.66-31,1-11.94.25-19.67-2.22-25-1-37.77,8.65-34-5-73-4-20.4.52-36.26,4.79-54,7-28.84,3.59-37.08-10.81-65-6-15.94,2.75-22.75-2.28-39-1C22.37,618.85,7.06,612.48-2.5,603.5Z"/><path id="Hale" class="cls-34" d="M736.85,870c-5.57-3.21-12.35-7.12-17.28-12.77-23.55-27-4.8-94,.91-93.86.82,0,1.55,2.32,3,6.93,4.87,15.75,3.78,23.37,5.71,31.34,3.93,16.2,19,28.51,32.14,31.46,10.59,2.39,15.26-2.37,19.14,2,7.4,8.27,1,37.42-13.13,43.79C758.83,882.65,749.58,877.31,736.85,870Z"/><path id="Krop" class="cls-34" d="M802.48,687.26C796,699.4,786,718,784.45,743.33c-1.19,20,4,26.22,3,56.07-.46,13.88-1.77,17.89-3,31.15-3.5,37.38-7.16,76.54,10.52,90.34,3.54,2.76,9.2,5.49,60.1-3.12,48.52-8.2,43.06-10.62,57.09-10.9,39.64-.78,49.28,19.21,91.65,15.58,28.68-2.46,34.59-12.51,36.06-15.58,3.12-6.53.9-12.19,0-24.92-1.25-17.43,1.47-27.24,3-40.5,4.41-38.18-2.14-88.39-3-95-7.08-54.17-10.61-81.26-28.55-101.24-39.8-44.31-126.74-41.05-172.78-3.11C817.78,659.2,804,684.5,802.48,687.26Z"/><rect id="Hoved" class="cls-34" x="782.95" y="466.36" width="276.45" height="213.11" rx="56.41"/><path id="re_1" data-name="re 1" class="cls-35" d="M844.83,472.42c3.69,9.55,5,20.51,7.51,42.05,1.18,10.12,1.53,15.19-1.5,20.25-2.43,4-7.51,8.9-13.52,9.34-3.45.26-4.88-1.11-12-1.55a61.7,61.7,0,0,0-7.51,0c-12.91.53-20.27-4.62-39.07-6.23-9.89-.86-13.09.12-16.52-3.12-4.87-4.59-6.4-14.08-3-18.69,1.43-1.94,2.74-1.67,6-4.67a30.36,30.36,0,0,0,6-7.79c2.49-4.27,31.85-41.13,57.09-46.73,2.32-.51.3-.77,3,0C833.71,456,838.23,455.33,844.83,472.42Z"/><path id="re_2" data-name="re 2" class="cls-35" d="M1011.61,453.13a19.16,19.16,0,0,0-4.51,0c-6,.91-9.83,9.39-10.51,10.9-1.91,4.19-2.1,7.1-3,18.69-.93,11.91-1.39,17.86-1.5,18.69-1.54,12-3.41,14.62-3,23.37.35,7.53,1.79,10.57,3,12.46A19.3,19.3,0,0,0,1002.6,545c1.91.59,4.49,1,12,0a113.08,113.08,0,0,0,15-3.11,102.17,102.17,0,0,1,24-3.12c6.61-.12,6.51.55,10.51,0,4.84-.65,15.15-2.06,18-9.34,1.71-4.3.34-9.43-1.5-12.46-1.15-1.9-2.08-2.31-7.51-7.79l-4.51-4.67c-5.22-5.42-41.79-46-51.08-49.84A24.87,24.87,0,0,0,1011.61,453.13Z"/><ellipse id="je_1" data-name="je 1" class="cls-36" cx="853.56" cy="581.34" rx="19.53" ry="20.25"/><ellipse id="je_2" data-name="je 2" class="cls-36" cx="988.78" cy="581.34" rx="19.53" ry="20.25"/><ellipse id="pupil_1" data-name="pupil 1" class="cls-37" cx="862.42" cy="572.91" rx="6.01" ry="6.23" transform="matrix(1, -0.02, 0.02, 1, -13.64, 21.08)"/><ellipse id="pupil_2" data-name="pupil 2" class="cls-37" cx="993.26" cy="572.91" rx="6.01" ry="6.23"/><path id="Mund" class="cls-38" d="M930.19,690.37a89.42,89.42,0,0,0-16.53,0,95.41,95.41,0,0,0-10.52,1.56c-10.6,2.19-12.57,4.53-19.53,6.23-3.74.92-17.34,4.24-28.54-3.12-2-1.31-10.48-6-10.52-12.46,0-1.06.21-2.24,3-7.78a100.34,100.34,0,0,1,6-10.91c6-9.11,8.6-19.25,13.53-29.59,3.86-8.11,9.68-20.24,19.53-28,19.33-15.29,53.72-13.48,69.11,3.12,4.45,4.8,8.47,13.06,16.53,29.59,5.37,11,5.92,13.93,10.51,20.25,4.17,5.73,7.17,8.08,9,14,.8,2.58,2.91,9.35,0,15.57-4.44,9.49-17.23,10.69-19.53,10.91-3.59.33-10-1.33-22.54-4.68S935.55,690.92,930.19,690.37Z"/><path id="Inderkrop" class="cls-3" d="M861.38,937.15c-26.6,7.88,2-37.29,1.26-78.22-.75-43.83,6.52-65.41,15.94-82.2C897,744,933.82,739,951.83,767.43c6.57,10.37,9,25.46,13.73,55.21,9.21,58.49,39.69,119.12,6,113C925.09,927.33,910.24,922.68,861.38,937.15Z"/><ellipse id="Pote_2" data-name="Pote 2" class="cls-38" cx="1010.57" cy="920.11" rx="39.06" ry="32.71"/><path id="Nse" class="cls-36" d="M952.33,602.28c-.59,17.86-27.5,35.76-37.84,30.13-11.8-6.42-18.83-10.62-22.16-17.62a27.36,27.36,0,0,1-2.26-9.78,26.91,26.91,0,0,1-.05-5C891.82,590.86,952.88,586,952.33,602.28Z"/><path id="Bagbenet" class="cls-3" d="M769.43,769.81a147.22,147.22,0,0,0-4.51,28c-1.51,24.36,4.18,32,0,51.4-2.83,13.16-5.78,11.25-9,26.48-1.73,8.12-4.75,23.17,0,40.5,2.27,8.3,7,24.79,15.77,25.7,15,1.55,4.73-16.79,10.52-31.16,6.64-16.49,19.34-22.51,15.77-69.31-2.39-31.4-2-49.72-12-74.76-1.93-4.78,4.92-20.3.75-19.47S769.46,764.48,769.43,769.81Z"/><ellipse id="Pote_2-2" data-name="Pote 2" class="cls-38" cx="816.76" cy="924.78" rx="39.06" ry="32.71"/><line class="cls-3" x1="777.69" y1="755.38" x2="785.2" y2="744.11"/><path class="cls-3" d="M885.86,508.36c16.33,4.28,39.09,7.37,63,.65q3.95-1.11,7.58-2.45"/><path d="M957.86,640.38a41.92,41.92,0,0,1-11.75,29.5,35,35,0,0,1-4.49,3.94,34,34,0,0,1-20.36,6.8,32.84,32.84,0,0,1-7.52-.85,34.53,34.53,0,0,1-12.84-5.95c-9.78-7.21-16.24-19.5-16.24-33.44Z"/><path class="cls-39" d="M957.86,648.06a15.54,15.54,0,0,1-1.89,7.48l-6.56,11.94a40.18,40.18,0,0,1-4.95,4.82A35.15,35.15,0,0,1,922,680.62a32.62,32.62,0,0,1-8.28-1,15.7,15.7,0,0,1,1.72-5.13l18.64-33.94c3.7-6.74,11.6-8.86,17.65-4.71A14.85,14.85,0,0,1,957.86,648.06Z"/><g class="cls-40"><g id="Stilken"><path class="cls-41" d="M1389.52,764.06c-.2-1.37,2.29-3.07,4-5.72a9.92,9.92,0,0,0,.63-1.15,10.6,10.6,0,0,0,.74-2.17,41.39,41.39,0,0,0,.4-8c-.14-3-.31-3.87.3-4.36.79-.63,2.61-.35,3.69,0,0,0,.06,0,.08,0s-.22.69-.29,1c-.54,2.31-1.67,5.2.06,6.85.13.12.64.61,1,.41s.25-.61.63-1.23c1.36-2.22.65-1,.8-1.27.86-1.75,1.24-3.62,2.37-4.37,1.56-1,5.08,1.76,4.68,2.81-.1.27-.39.28-.92.85a5,5,0,0,0-1,1.49c-1,2.24-4.44,6-3.89,6.8.81,1.1,9.73-4.73,10.3-3.73.07.13,0,.38.16,1s.43.78.43,1c0,1.28-7.42,3.14-9.92,5.2a8.37,8.37,0,0,1-1.56.71,12.08,12.08,0,0,0-2,.9c-.54.35-.61.74-1.29,1.93a23.52,23.52,0,0,1-2,2.92c-1,1.22-1.75,2.12-2.62,2.13-.48,0-.83-.27-1.49-.77a7.91,7.91,0,0,1-1.25-1.28C1390.08,764.34,1389.61,764.65,1389.52,764.06Z"/></g><g id="hovedet"><path class="cls-42" d="M1400.47,743.54c1.21,1.93,1.32,4.7,3.9,5.63,1.18.43,2.71,1.51,3.94,1.24l.88-.19c.34-.09.48.94,1.25,1.09.34.07.41-.11.62,0,.81.24-.17,2.7.89,4.74a9.52,9.52,0,0,0,1.09,1.5,9,9,0,0,0,1.46,1.6,5.64,5.64,0,0,0,4.34.5c2.31-.49,5.52-2.32,6.43-5.07,1.13-3.43-1.88-6.61-.5-8,.39-.4.67-.2,1.48-.6,2.34-1.17,3.22-4.47,3.32-4.84.89-3.5-.72-7.39-3.29-8.24-2-.66-4.5.53-4.77-.32-.1-.31.19-.55.37-1.09a4.32,4.32,0,0,0-2-4.58c-2.26-1.27-5.12.6-6-.88-.17-.3,0-.36-.24-.86a4.41,4.41,0,0,0-2.95-2.37c-2.93-.91-6.88.71-8.2,2.9-.38.63-1.22,2-1,3.09,0,.12.09.46,0,.54s-.65-.44-.85-.64c-1.1-1.11-3.13-.9-3.65-.84-3.12.33-5.3,3.89-5.51,4.23-1.49,2.51-2.14,6.25-.34,8.76,2.22,3.1,6.86,2.54,7.68,2.15a1.42,1.42,0,0,1,.71-.16A1.5,1.5,0,0,1,1400.47,743.54Z"/></g></g><g class="cls-40"><g id="Stilken-2" data-name="Stilken"><path class="cls-41" d="M1657.52,767.06c-.2-1.37,2.29-3.07,4-5.72a9.92,9.92,0,0,0,.63-1.15,10.6,10.6,0,0,0,.74-2.17,41.39,41.39,0,0,0,.4-8c-.14-3-.31-3.87.3-4.36.79-.63,2.61-.35,3.69,0,0,0,.06,0,.08,0s-.22.69-.29,1c-.54,2.31-1.67,5.2.06,6.85.13.12.64.61,1,.41s.25-.61.63-1.23c1.36-2.22.65-1,.8-1.27.86-1.75,1.24-3.62,2.37-4.37,1.56-1,5.08,1.76,4.68,2.81-.1.27-.39.28-.92.85a5,5,0,0,0-1,1.49c-1,2.24-4.44,6-3.89,6.8.81,1.1,9.73-4.73,10.3-3.73.07.13,0,.38.16,1s.43.78.43,1c0,1.28-7.42,3.14-9.92,5.2a8.37,8.37,0,0,1-1.56.71,12.08,12.08,0,0,0-2,.9c-.54.35-.61.74-1.29,1.93a23.52,23.52,0,0,1-2,2.92c-1,1.22-1.75,2.12-2.62,2.13-.48,0-.83-.27-1.49-.77a7.91,7.91,0,0,1-1.25-1.28C1658.08,767.34,1657.61,767.65,1657.52,767.06Z"/></g><g id="hovedet-2" data-name="hovedet"><path class="cls-42" d="M1668.47,746.54c1.21,1.93,1.32,4.7,3.9,5.63,1.18.43,2.71,1.51,3.94,1.24l.88-.19c.34-.09.48.94,1.25,1.09.34.07.41-.11.62,0,.81.24-.17,2.7.89,4.74a9.52,9.52,0,0,0,1.09,1.5,9,9,0,0,0,1.46,1.6,5.64,5.64,0,0,0,4.34.5c2.31-.49,5.52-2.32,6.43-5.07,1.13-3.43-1.88-6.61-.5-8,.39-.4.67-.2,1.48-.6,2.34-1.17,3.22-4.47,3.32-4.84.89-3.5-.72-7.39-3.29-8.24-2-.66-4.5.53-4.77-.32-.1-.31.19-.55.37-1.09a4.32,4.32,0,0,0-2-4.58c-2.26-1.27-5.12.6-6-.88-.17-.3,0-.36-.24-.86a4.41,4.41,0,0,0-2.95-2.37c-2.93-.91-6.88.71-8.2,2.9-.38.63-1.22,2-1,3.09,0,.12.09.46,0,.54s-.65-.44-.85-.64c-1.1-1.11-3.13-.9-3.65-.84-3.12.33-5.3,3.89-5.51,4.23-1.49,2.51-2.14,6.25-.34,8.76,2.22,3.1,6.86,2.54,7.68,2.15a1.42,1.42,0,0,1,.71-.16A1.5,1.5,0,0,1,1668.47,746.54Z"/></g></g><g class="cls-40"><g id="Stilken-3" data-name="Stilken"><path class="cls-41" d="M1672.52,953.06c-.2-1.37,2.29-3.07,4-5.72a9.92,9.92,0,0,0,.63-1.15,10.6,10.6,0,0,0,.74-2.17,41.39,41.39,0,0,0,.4-8c-.14-3-.31-3.87.3-4.36.79-.63,2.61-.35,3.69,0,0,0,.06,0,.08,0s-.22.69-.29,1c-.54,2.31-1.67,5.2.06,6.85.13.12.64.61,1,.41s.25-.61.63-1.23c1.36-2.22.65-1,.8-1.27.86-1.75,1.24-3.62,2.37-4.37,1.56-1,5.08,1.76,4.68,2.81-.1.27-.39.28-.92.85a5,5,0,0,0-1,1.49c-1,2.24-4.44,6-3.89,6.8.81,1.1,9.73-4.73,10.3-3.73.07.13,0,.38.16,1s.43.78.43,1c0,1.28-7.42,3.14-9.92,5.2a8.37,8.37,0,0,1-1.56.71,12.08,12.08,0,0,0-2,.9c-.54.35-.61.74-1.29,1.93a23.52,23.52,0,0,1-2,2.92c-1,1.22-1.75,2.12-2.62,2.13-.48,0-.83-.27-1.49-.77a7.91,7.91,0,0,1-1.25-1.28C1673.08,953.34,1672.61,953.65,1672.52,953.06Z"/></g><g id="hovedet-3" data-name="hovedet"><path class="cls-42" d="M1683.47,932.54c1.21,1.93,1.32,4.7,3.9,5.63,1.18.43,2.71,1.51,3.94,1.24l.88-.19c.34-.09.48.94,1.25,1.09.34.07.41-.11.62,0,.81.24-.17,2.7.89,4.74a9.52,9.52,0,0,0,1.09,1.5,9,9,0,0,0,1.46,1.6,5.64,5.64,0,0,0,4.34.5c2.31-.49,5.52-2.32,6.43-5.07,1.13-3.43-1.88-6.61-.5-8,.39-.4.67-.2,1.48-.6,2.34-1.17,3.22-4.47,3.32-4.84.89-3.5-.72-7.39-3.29-8.24-2-.66-4.5.53-4.77-.32-.1-.31.19-.55.37-1.09a4.32,4.32,0,0,0-2-4.58c-2.26-1.27-5.12.6-6-.88-.17-.3,0-.36-.24-.86a4.41,4.41,0,0,0-2.95-2.37c-2.93-.91-6.88.71-8.2,2.9-.38.63-1.22,2-1,3.09,0,.12.09.46,0,.54s-.65-.44-.85-.64c-1.1-1.11-3.13-.9-3.65-.84-3.12.33-5.3,3.89-5.51,4.23-1.49,2.51-2.14,6.25-.34,8.76,2.22,3.1,6.86,2.54,7.68,2.15a1.42,1.42,0,0,1,.71-.16A1.5,1.5,0,0,1,1683.47,932.54Z"/></g></g><g class="cls-40"><g id="Stilken-4" data-name="Stilken"><path class="cls-41" d="M1395.52,953.06c-.2-1.37,2.29-3.07,4-5.72a9.92,9.92,0,0,0,.63-1.15,10.6,10.6,0,0,0,.74-2.17,41.39,41.39,0,0,0,.4-8c-.14-3-.31-3.87.3-4.36.79-.63,2.61-.35,3.69,0,0,0,.06,0,.08,0s-.22.69-.29,1c-.54,2.31-1.67,5.2.06,6.85.13.12.64.61,1,.41s.25-.61.63-1.23c1.36-2.22.65-1,.8-1.27.86-1.75,1.24-3.62,2.37-4.37,1.56-1,5.08,1.76,4.68,2.81-.1.27-.39.28-.92.85a5,5,0,0,0-1,1.49c-1,2.24-4.44,6-3.89,6.8.81,1.1,9.73-4.73,10.3-3.73.07.13,0,.38.16,1s.43.78.43,1c0,1.28-7.42,3.14-9.92,5.2a8.37,8.37,0,0,1-1.56.71,12.08,12.08,0,0,0-2,.9c-.54.35-.61.74-1.29,1.93a23.52,23.52,0,0,1-2,2.92c-1,1.22-1.75,2.12-2.62,2.13-.48,0-.83-.27-1.49-.77a7.91,7.91,0,0,1-1.25-1.28C1396.08,953.34,1395.61,953.65,1395.52,953.06Z"/></g><g id="hovedet-4" data-name="hovedet"><path class="cls-42" d="M1406.47,932.54c1.21,1.93,1.32,4.7,3.9,5.63,1.18.43,2.71,1.51,3.94,1.24l.88-.19c.34-.09.48.94,1.25,1.09.34.07.41-.11.62,0,.81.24-.17,2.7.89,4.74a9.52,9.52,0,0,0,1.09,1.5,9,9,0,0,0,1.46,1.6,5.64,5.64,0,0,0,4.34.5c2.31-.49,5.52-2.32,6.43-5.07,1.13-3.43-1.88-6.61-.5-8,.39-.4.67-.2,1.48-.6,2.34-1.17,3.22-4.47,3.32-4.84.89-3.5-.72-7.39-3.29-8.24-2-.66-4.5.53-4.77-.32-.1-.31.19-.55.37-1.09a4.32,4.32,0,0,0-2-4.58c-2.26-1.27-5.12.6-6-.88-.17-.3,0-.36-.24-.86a4.41,4.41,0,0,0-2.95-2.37c-2.93-.91-6.88.71-8.2,2.9-.38.63-1.22,2-1,3.09,0,.12.09.46,0,.54s-.65-.44-.85-.64c-1.1-1.11-3.13-.9-3.65-.84-3.12.33-5.3,3.89-5.51,4.23-1.49,2.51-2.14,6.25-.34,8.76,2.22,3.1,6.86,2.54,7.68,2.15a1.42,1.42,0,0,1,.71-.16A1.5,1.5,0,0,1,1406.47,932.54Z"/></g></g><g class="cls-40"><g id="Stilken-5" data-name="Stilken"><path class="cls-41" d="M1246.52,858.06c-.2-1.37,2.29-3.07,4-5.72a9.92,9.92,0,0,0,.63-1.15,10.6,10.6,0,0,0,.74-2.17,41.39,41.39,0,0,0,.4-8c-.14-3-.31-3.87.3-4.36.79-.63,2.61-.35,3.69,0,0,0,.06,0,.08,0s-.22.69-.29,1c-.54,2.31-1.67,5.2.06,6.85.13.12.64.61,1,.41s.25-.61.63-1.23c1.36-2.22.65-1,.8-1.27.86-1.75,1.24-3.62,2.37-4.37,1.56-1,5.08,1.76,4.68,2.81-.1.27-.39.28-.92.85a5,5,0,0,0-1,1.49c-1,2.24-4.44,6-3.89,6.8.81,1.1,9.73-4.73,10.3-3.73.07.13,0,.38.16,1s.43.78.43,1c0,1.28-7.42,3.14-9.92,5.2a8.37,8.37,0,0,1-1.56.71,12.08,12.08,0,0,0-2,.9c-.54.35-.61.74-1.29,1.93a23.52,23.52,0,0,1-2,2.92c-1,1.22-1.75,2.12-2.62,2.13-.48,0-.83-.27-1.49-.77a7.91,7.91,0,0,1-1.25-1.28C1247.08,858.34,1246.61,858.65,1246.52,858.06Z"/></g><g id="hovedet-5" data-name="hovedet"><path class="cls-42" d="M1257.47,837.54c1.21,1.93,1.32,4.7,3.9,5.63,1.18.43,2.71,1.51,3.94,1.24l.88-.19c.34-.09.48.94,1.25,1.09.34.07.41-.11.62,0,.81.24-.17,2.7.89,4.74a9.52,9.52,0,0,0,1.09,1.5,9,9,0,0,0,1.46,1.6,5.64,5.64,0,0,0,4.34.5c2.31-.49,5.52-2.32,6.43-5.07,1.13-3.43-1.88-6.61-.5-8,.39-.4.67-.2,1.48-.6,2.34-1.17,3.22-4.47,3.32-4.84.89-3.5-.72-7.39-3.29-8.24-2-.66-4.5.53-4.77-.32-.1-.31.19-.55.37-1.09a4.32,4.32,0,0,0-2-4.58c-2.26-1.27-5.12.6-6-.88-.17-.3,0-.36-.24-.86a4.41,4.41,0,0,0-2.95-2.37c-2.93-.91-6.88.71-8.2,2.9-.38.63-1.22,2-1,3.09,0,.12.09.46,0,.54s-.65-.44-.85-.64c-1.1-1.11-3.13-.9-3.65-.84-3.12.33-5.3,3.89-5.51,4.23-1.49,2.51-2.14,6.25-.34,8.76,2.22,3.1,6.86,2.54,7.68,2.15a1.42,1.42,0,0,1,.71-.16A1.5,1.5,0,0,1,1257.47,837.54Z"/></g></g><path class="cls-9" d="M1423.47,533.05c.41,1.46,4.22-1.89,17.22,5.8,13.19,7.81,9.54,12.6,10.6,15.1,2.9,6.86-1.73,16.9-9.28,22.06-5.69,3.89-9.18,3-11.91,7-4.18,6,2,10.93-1.33,18.58-2.5,5.72-8.41,8.61-14.57,11.61-3.6,1.76-12.13,5.93-22.51,4.65-5.26-.65-5.92-2.82-9.27-2.32-4.94.73.26,5.22-6.62,13.93-6.29,8-16.06,11.94-21.19,13.93-4.7,1.82-9.72,1-19.87,0-9.13-.87-16-1.53-22.51-5.8-5.35-3.54-8.41-8.24-10.6-11.62-4.91-7.55-5.09-12.48-7.94-12.77-3.13-.31-4.14,5.49-9.28,9.29-9.31,6.89-30.58,6.14-41.05-4.64-7.93-8.17-8.52-22.5-7.95-27.87.26-2.4,4-2.55,4-4.64,0-1.51-1.82-2.47-4-7l-.15-.32c-3.24-6.91-4.56-16.52-4.56-16.52a76.19,76.19,0,0,1-.58-14.51h0c.29-.41.2-.77.26-1.25,0-.05.06-.25.16-.64,0,0,.15-.59.32-1.17,3.89-13.12,12.5-17.84,12.5-17.84h0c5.08-2.79,9-2.81,15.38-4,8.81-1.62,10.43-3.27,11.11-4.16a6.82,6.82,0,0,0,1.32-3.48c.78-6.28,13.52-26.54,37.08-33.67,6.9-2.09,18.75-2.19,30.46-1.16,9.68.84,26.58,20.3,27.82,24.38a17.9,17.9,0,0,0,5.29,1.16c5.88.27,8.84-2.95,13.25-4.64,10.62-4.09,24.34,2.67,30.46,7,2.94,2.07,6,4.25,7.94,8.13C1427.06,523,1421.78,527,1423.47,533.05Z"/><g class="cls-14"><path class="cls-15" d="M1348.89,595.44c8-1.76,12.11-6.22,21.12-12.82,8.25-6,11.68-7.77,14-11.48s2.56-7.12,3-12.33c.53-6.44,1.11-13.52-1.43-17.16-11.43-16.41-102.68,11.32-109.27,26a16,16,0,0,0-.8,9.25c0,1.57-.33,5,3,8.35a5.72,5.72,0,0,0,2.48,1.76c2,.72,4,.56,5.77.86,3.07.51,3.33,3.05,5.78,5.27s2.57,1.86,8.25,3.27"/><g id="fedtkant1-6" data-name="fedtkant1"><path class="cls-16" d="M1276.68,563.84a39,39,0,0,1,1.91-4.84c1.7-4,2.11-4.09,2.73-6.17,1-3.33.17-3.67,1.36-5.73,1-1.73,1.7-1.68,3-4,1-1.66.91-2.25,1.92-3.52a13.56,13.56,0,0,1,3-2.65c2.87-2.15,3.84-3.87,5.21-5.3,3.84-4,11.79-6.81,19.21-6.65a30,30,0,0,1,10.45,2.17c4.57,1.78,5.22,3.33,8.25,4.82,4.7,2.31,8.06,1,23.35.15,15.63-.88,18.8.1,20.89,1.05a18,18,0,0,1,9.09,9c4.1,10.08-6.43,20.62-9.83,24-3,3-2.91,2-15.62,12.36-8,6.55-7.5,6.45-9.32,7.51-8.37,4.83-17.53,5.3-27.19,5.8-8.39.43-6.18-.76-21.43-1.49-1.76-.08-4.5-.19-6.6-1.74-2.45-1.8-1.36-3.6-3.58-5.27-2.84-2.12-6-.26-9.9-2.17-2.4-1.19-3.32-3-5-6.15-.25-.48-2.84-5.32-2.21-9.82C1276.52,564.56,1276.68,563.84,1276.68,563.84Z"/><path class="cls-17" d="M1322.13,592.08a33.71,33.71,0,0,1-5.43-.44,127,127,0,0,0-13-1.14h-.06c-1.8-.08-4.51-.21-6.62-1.77a5,5,0,0,1-1.94-2.8,4.48,4.48,0,0,0-1.65-2.47c-1.42-1.06-2.9-1.1-4.62-1.14a11.47,11.47,0,0,1-5.25-1c-2.44-1.21-3.36-3-5-6.2l0,0c-.66-1.27-2.77-5.73-2.2-9.84.09-.64.24-1.32.26-1.4h0a38.79,38.79,0,0,1,1.91-4.86c.77-1.78,1.28-2.79,1.65-3.54a13.76,13.76,0,0,0,1.08-2.62,13.56,13.56,0,0,0,.58-3.11,5.18,5.18,0,0,1,.79-2.63,8,8,0,0,1,1.3-1.69,10.44,10.44,0,0,0,1.71-2.28,14.67,14.67,0,0,0,.8-1.62,7.74,7.74,0,0,1,1.12-1.92,12,12,0,0,1,2.54-2.31l.5-.36a21.58,21.58,0,0,0,4-4c.39-.47.76-.92,1.16-1.33,3.91-4.1,11.87-6.85,19.32-6.7a30.2,30.2,0,0,1,10.51,2.18,20.44,20.44,0,0,1,5.36,3,18.19,18.19,0,0,0,2.9,1.83c3.37,1.66,6,1.45,13.09.87,2.67-.22,6-.49,10.18-.73,16.56-.93,19.21.27,21,1.06a17.93,17.93,0,0,1,9.16,9.06c4.12,10.14-6.39,20.66-9.85,24.12a26.15,26.15,0,0,1-3.86,3.2c-1.88,1.38-5,3.7-11.78,9.17-3.49,2.84-5.38,4.45-6.51,5.41a15.34,15.34,0,0,1-2.82,2.11c-8.4,4.85-17.56,5.32-27.26,5.82C1323.94,592.05,1323,592.07,1322.13,592.08Zm-45.31-28.22h0c0,.08-.17.75-.26,1.39-.56,4,1.53,8.47,2.18,9.73l0,0c1.64,3.17,2.55,4.92,4.91,6.09a11.06,11.06,0,0,0,5.12,1c1.7,0,3.3.08,4.8,1.2a4.7,4.7,0,0,1,1.72,2.57,5,5,0,0,0,1.86,2.7c2,1.5,4.7,1.63,6.46,1.71h.06a126.14,126.14,0,0,1,13,1.15,35.52,35.52,0,0,0,8.36.34c9.66-.5,18.78-1,27.12-5.78a15.37,15.37,0,0,0,2.78-2.08c1.13-1,3-2.57,6.52-5.41,6.73-5.48,9.9-7.8,11.79-9.18a26.29,26.29,0,0,0,3.83-3.18c3.43-3.44,13.88-13.89,9.8-23.91a17.72,17.72,0,0,0-9-8.94c-2.19-1-5.61-1.88-20.81-1-4.2.24-7.51.51-10.17.73-7.14.58-9.81.8-13.26-.9a18.62,18.62,0,0,1-3-1.86,20.24,20.24,0,0,0-5.29-3,29.81,29.81,0,0,0-10.39-2.16c-7.39-.16-15.24,2.56-19.1,6.61-.4.41-.76.85-1.15,1.32a21.5,21.5,0,0,1-4.08,4l-.5.37a11.38,11.38,0,0,0-2.49,2.26,7.34,7.34,0,0,0-1.09,1.87,17.16,17.16,0,0,1-.81,1.64,11,11,0,0,1-1.74,2.33,7.24,7.24,0,0,0-1.27,1.64,5,5,0,0,0-.76,2.55,14.61,14.61,0,0,1-1.69,5.8c-.37.74-.88,1.76-1.64,3.53A40.81,40.81,0,0,0,1276.82,563.86Z"/></g><g id="fedtkant2-6" data-name="fedtkant2"><path class="cls-18" d="M1290.91,542a33.58,33.58,0,0,1,5.2-5.74,36.58,36.58,0,0,1,8.51-5.52c3.24-1.5,6.31-2.91,10.7-3.11.91,0,7.44-.28,12.65,2.82a43.17,43.17,0,0,0,4.68,2.85,39.75,39.75,0,0,0,5.5,2.19c2,.6,7.56,1.85,26.92-.08a23.74,23.74,0,0,1,7.14,0,19.34,19.34,0,0,1,9.63,4.82c1.54,1.4,4.37,4,4.69,7.69.31,3.52-1.81,6.2-4.64,9.69-1.67,2.06-3,3.22-7.12,6.84-11.61,10.15-13.54,11.72-16.18,13.69-4.17,3.13-6.26,4.7-7.95,5.52-2.73,1.34-6.74,2.82-21.14,3.8-13.85.95-20.85,1.37-24.46-1.25s-2.66-5.29-7.16-7.46c-4.16-2-6.9-.65-10.72-2.39a12,12,0,0,1-6.9-9.23c-.2-1.92.5-3.85,1.91-7.7a64.49,64.49,0,0,1,2.73-6.17C1287.68,547.41,1289.12,544.44,1290.91,542Z"/></g><g id="fedtklump_1-6" data-name="fedtklump 1"><path class="cls-9" d="M1327,531c1.13,3,2.13,4.92,2.62,5.16,1.13.56,2.14.51,2.75,1.31a2.7,2.7,0,0,1,0,2.64c-.56,1.3-1.41,1.34-2.46,3.09-.65,1.07-.37,1.12-.82,1.54-1.31,1.21-3.21.41-4.67,1.56-.79.62-1.32,1.72-.82,2.42s2,.82,3,.65c1.73-.29,2.51-1.45,3.56-2.43,1.62-1.5,3.82-2.18,8.23-3.54,5.39-1.67,5.65-.67,9.34-2.23a14.15,14.15,0,0,1,5.21-1.55c1.54-.1,2,.18,3.3,0A8.62,8.62,0,0,0,1361,537c.62-.6-2,1.26,1.24-.78,5.21-3.31-6,1.12-14.29.7C1345,536.76,1326,528.33,1327,531Z"/><rect class="cls-9" x="1344.58" y="534.24" width="11.85" height="3.37" transform="matrix(1, 0, 0, 1, -1.46, 3.7)"/></g><g id="fedtklump_2-6" data-name="fedtklump 2"><ellipse class="cls-9" cx="1337.83" cy="568.85" rx="6.73" ry="3.63" transform="translate(-1.55 3.67) rotate(-0.16)"/></g></g><g class="cls-14"><path class="cls-43" d="M1121.84,228.14q6.71-3.4,13.46-6.67l23.1,48a17.53,17.53,0,0,0,2.23,2.89,16.55,16.55,0,0,0,5.1,3.72,20.38,20.38,0,0,0,7.87,1.91c3.08.2,6.61-.61,10.65-2.39s6.88-3.78,8.77-6.16a20.39,20.39,0,0,0,3.81-7.06,16.37,16.37,0,0,0,.7-6.21,16.54,16.54,0,0,0-.61-3.55l-19.83-49.53q6.92-2.76,13.88-5.38,9.35,24.93,18.68,49.86a23.7,23.7,0,0,1,.7,2.91,28.06,28.06,0,0,1,.41,5.66,42.23,42.23,0,0,1-.85,7.45,26.64,26.64,0,0,1-3.2,8.22,33.4,33.4,0,0,1-6.61,8,40.81,40.81,0,0,1-11.13,6.85,44.31,44.31,0,0,1-12.61,3.73,33.73,33.73,0,0,1-10.27-.22,26.89,26.89,0,0,1-8.14-2.92,33.68,33.68,0,0,1-6-4.29,28.15,28.15,0,0,1-3.93-4.3,25.44,25.44,0,0,1-2-3Z"/><path class="cls-43" d="M1273.9,172.57l18.57,79.48q-6.3,1.47-12.58,3.08l-2.16-8.42a30.53,30.53,0,0,1-7.39,10,29.65,29.65,0,0,1-22.66,7.26,30.82,30.82,0,0,1-10.86-3.27,32,32,0,0,1-9.1-7,30,30,0,0,1-6.1-10.31,28.36,28.36,0,0,1-1.61-11.89,29.47,29.47,0,0,1,3.22-11.25,30.32,30.32,0,0,1,7.57-9.29,31,31,0,0,1,11.12-5.89,30.59,30.59,0,0,1,14-1A29.51,29.51,0,0,1,1268,209q-4.23-16.47-8.45-32.92Q1266.73,174.24,1273.9,172.57ZM1259,250.48a19.86,19.86,0,0,0,6.78-3.41,20.4,20.4,0,0,0,4.84-5.37,19.31,19.31,0,0,0,2.57-6.59,16.19,16.19,0,0,0-.25-7.15,15.71,15.71,0,0,0-3.26-6.37,17.64,17.64,0,0,0-5.6-4.38,21.13,21.13,0,0,0-27.26,7.93,17.54,17.54,0,0,0-2.38,6.71,15.64,15.64,0,0,0,.66,7.13,16.17,16.17,0,0,0,3.63,6.17,19.36,19.36,0,0,0,5.73,4.17,20.12,20.12,0,0,0,7,1.92A19.85,19.85,0,0,0,1259,250.48Z"/><path class="cls-43" d="M1324.66,174.89a13.6,13.6,0,0,0-4.45,1.88,3.92,3.92,0,0,0-1.65,2.56,12.35,12.35,0,0,0,.15,3.66q.48,2.87,1,5.75,7.6-1.28,15.24-2.37.86,5.92,1.7,11.87-7.48,1.06-15,2.32,3.71,22.08,7.4,44.16-6.36,1.07-12.7,2.27L1308,203q-5.38,1-10.75,2.14-1.23-5.86-2.45-11.74,5.42-1.12,10.83-2.16c-.38-2-.75-4-1.13-5.94-.87-4.54-.5-8.23,1.14-11.07a18,18,0,0,1,6.81-6.75,33.79,33.79,0,0,1,9.54-3.65c3.47-.77,6.62-1.35,9.47-1.75q.79,5.59,1.6,11.21A74.67,74.67,0,0,0,1324.66,174.89Z"/><path class="cls-43" d="M1357,240.71q-4.82-40.52-9.62-81.05,7.27-.85,14.57-1.57,3.93,40.64,7.85,81.25Q1363.43,240,1357,240.71Z"/><path class="cls-43" d="M1382.3,179.48q7.07-.48,14.12-.81.88,19.13,1.78,38.24a10.06,10.06,0,0,0,.4,2,7.19,7.19,0,0,0,1.52,2.74,8.94,8.94,0,0,0,3.36,2.34,17.18,17.18,0,0,0,11.63-.33,9,9,0,0,0,3.16-2.53,7.43,7.43,0,0,0,1.37-2.77,10.24,10.24,0,0,0,.28-2L1419.5,178q7.07-.07,14.14,0l-.42,38.28c0,.29-.1,1-.27,2.14a19,19,0,0,1-1.13,3.95,24.09,24.09,0,0,1-2.5,4.71,20.74,20.74,0,0,1-4.24,4.62,22.52,22.52,0,0,1-6.38,3.57,28.13,28.13,0,0,1-9.06,1.57,29.5,29.5,0,0,1-9.19-1,23.69,23.69,0,0,1-6.62-3,17.5,17.5,0,0,1-4.43-4.14,24.32,24.32,0,0,1-2.71-4.57,20.5,20.5,0,0,1-1.36-4,20.15,20.15,0,0,1-.41-2.5Q1383.61,198.58,1382.3,179.48Z"/><path class="cls-43" d="M1514.3,187.26q-3.78,27.47-7.54,54.93a30.37,30.37,0,0,1-2.25,7.8,18.76,18.76,0,0,1-5.48,7,26.18,26.18,0,0,1-9.89,4.7c-4.1,1.09-9.31,1.33-15.71.8a75.1,75.1,0,0,1-10.68-1.51,51.51,51.51,0,0,1-6.71-2,18.77,18.77,0,0,1-4.55-2.64q.27-5.94.52-11.87a38.5,38.5,0,0,0,5.71,2.48,57.87,57.87,0,0,0,7,2,71.73,71.73,0,0,0,9.71,1.39,33.58,33.58,0,0,0,9.15-.27,17.24,17.24,0,0,0,5.9-2.21,8.85,8.85,0,0,0,3.27-3.51,12.34,12.34,0,0,0,1.24-4.12c.26-2.22.52-4.45.77-6.67a32.66,32.66,0,0,1-9,4.12,27.94,27.94,0,0,1-10.12,1,28.42,28.42,0,0,1-10.92-3.13,31.15,31.15,0,0,1-8.8-6.78,30.47,30.47,0,0,1-5.86-9.56,28.63,28.63,0,0,1-1.91-11.46,27.84,27.84,0,0,1,9.81-20.4,31.3,31.3,0,0,1,33.3-4.23,31.06,31.06,0,0,1,8.61,6.13c.14-1.24.28-2.48.43-3.72Q1507.31,186.31,1514.3,187.26Zm-36,39.36a17.22,17.22,0,0,0,6.55-.67,17.93,17.93,0,0,0,10.11-7.73,16.24,16.24,0,0,0,2.25-6.17c.06-.54.13-1.09.19-1.63a15.71,15.71,0,0,0-.83-6.52,17,17,0,0,0-3.31-5.62,18.13,18.13,0,0,0-12-6,17.59,17.59,0,0,0-7.09.81,18.5,18.5,0,0,0-6,3.27,16.33,16.33,0,0,0-5.93,11.75,17,17,0,0,0,4.32,12.5,18.74,18.74,0,0,0,5.24,4.07A16.8,16.8,0,0,0,1478.35,226.62Z"/><path class="cls-43" d="M1571,208.37q-7.39-1.73-14.83-3.28-4.58,22-9.17,43.94-6.43-1.35-12.9-2.54l8.19-44.13q-5.26-1-10.54-1.86l2-11.83q5.38.9,10.74,1.9,1.88-10.06,3.73-20.12,7.71-.75,15.48-1.32-2.54,12.1-5.06,24.23,7.58,1.57,15.11,3.34Z"/><path class="cls-43" d="M1621.84,208a35.17,35.17,0,0,1,11.27,5.59,27.31,27.31,0,0,1,6.54,7.08,22.78,22.78,0,0,1,3,7.56,29.63,29.63,0,0,1,.57,7.06,24.7,24.7,0,0,1-.8,5.5c-.43,1.53-.74,2.56-1,3.11l-2,5.37q-22.5-8.31-45.45-14.8a9.54,9.54,0,0,0,0,3.58,16.12,16.12,0,0,0,1.78,5.16,19.07,19.07,0,0,0,4.3,5.31,20.32,20.32,0,0,0,7.61,4.06,47.32,47.32,0,0,0,9,2,62,62,0,0,0,7.41.42,36.61,36.61,0,0,0,7-.57q-2.07,5.78-4.13,11.55a10.54,10.54,0,0,1-4,.7,42.79,42.79,0,0,1-6.18-.32c-2.28-.26-4.56-.6-6.86-1a46.06,46.06,0,0,1-5.83-1.35c-.84-.26-2.11-.78-3.84-1.54a33,33,0,0,1-5.56-3.24,39.78,39.78,0,0,1-5.89-5.08,28,28,0,0,1-4.92-7.07,28.66,28.66,0,0,1-2.65-9.42,33.22,33.22,0,0,1,1.13-12.16,23.53,23.53,0,0,1,4.6-8.91,26.81,26.81,0,0,1,8.56-6.93,32.57,32.57,0,0,1,11.88-3.39A35.93,35.93,0,0,1,1621.84,208Zm8.05,27.44a15.24,15.24,0,0,0-.16-7,16.37,16.37,0,0,0-3.09-5.91c-1.56-2-4.15-3.57-7.76-4.71a23.1,23.1,0,0,0-9.46-1.24,18.34,18.34,0,0,0-6.72,1.92,12.8,12.8,0,0,0-4.15,3.38,10.52,10.52,0,0,0-1.83,3.2Q1613.42,229.74,1629.89,235.4Z"/><path class="cls-43" d="M1646.49,279.15l21.87-54.4q6.67,2.69,13.3,5.52c-1.11,2.48-2.21,5-3.32,7.43a17.85,17.85,0,0,1,5.83-1.91,28.51,28.51,0,0,1,7,0,31,31,0,0,1,9.51,3c4.49,2.09,7.79,4.4,9.89,6.86a15.34,15.34,0,0,1,3.74,7.62,17.66,17.66,0,0,1-.63,7.94,49.36,49.36,0,0,1-3.23,7.92l-16.18,31.76q-5.89-3-11.83-5.86l15.8-32.81a8.52,8.52,0,0,0,.23-6.72c-.84-2.43-2.84-4.39-6-5.83a23.83,23.83,0,0,0-6.42-2,16.27,16.27,0,0,0-6.13.17,13.48,13.48,0,0,0-5.28,2.51,12.38,12.38,0,0,0-3.76,5.08l-12.3,28.72Q1652.56,281.59,1646.49,279.15Z"/></g><path class="cls-44" d="M1121.84,224.14q6.71-3.4,13.46-6.67l23.1,48a17.53,17.53,0,0,0,2.23,2.89,16.55,16.55,0,0,0,5.1,3.72,20.38,20.38,0,0,0,7.87,1.91c3.08.2,6.61-.61,10.65-2.39s6.88-3.78,8.77-6.16a20.39,20.39,0,0,0,3.81-7.06,16.37,16.37,0,0,0,.7-6.21,16.54,16.54,0,0,0-.61-3.55l-19.83-49.53q6.92-2.76,13.88-5.38,9.35,24.93,18.68,49.86a23.7,23.7,0,0,1,.7,2.91,28.06,28.06,0,0,1,.41,5.66,42.23,42.23,0,0,1-.85,7.45,26.64,26.64,0,0,1-3.2,8.22,33.4,33.4,0,0,1-6.61,8,40.56,40.56,0,0,1-11.13,6.85,44.31,44.31,0,0,1-12.61,3.73,33.73,33.73,0,0,1-10.27-.22,26.89,26.89,0,0,1-8.14-2.92,33.68,33.68,0,0,1-6-4.29,28.15,28.15,0,0,1-3.93-4.3,25.44,25.44,0,0,1-2-3Z"/><path class="cls-44" d="M1273.9,168.57l18.57,79.48q-6.3,1.47-12.58,3.08l-2.16-8.42a30.53,30.53,0,0,1-7.39,10,29.65,29.65,0,0,1-22.66,7.26,30.82,30.82,0,0,1-10.86-3.27,32,32,0,0,1-9.1-7,30,30,0,0,1-6.1-10.31,28.36,28.36,0,0,1-1.61-11.89,29.47,29.47,0,0,1,3.22-11.25,30.32,30.32,0,0,1,7.57-9.29,31,31,0,0,1,11.12-5.89,30.59,30.59,0,0,1,14-1A29.51,29.51,0,0,1,1268,205q-4.23-16.47-8.45-32.92Q1266.73,170.24,1273.9,168.57ZM1259,246.48a19.86,19.86,0,0,0,6.78-3.41,20.4,20.4,0,0,0,4.84-5.37,19.31,19.31,0,0,0,2.57-6.59,16.19,16.19,0,0,0-.25-7.15,15.71,15.71,0,0,0-3.26-6.37,17.64,17.64,0,0,0-5.6-4.38,21.13,21.13,0,0,0-27.26,7.93,17.54,17.54,0,0,0-2.38,6.71,15.64,15.64,0,0,0,.66,7.13,16.17,16.17,0,0,0,3.63,6.17,19.36,19.36,0,0,0,5.73,4.17,20.12,20.12,0,0,0,7,1.92A19.85,19.85,0,0,0,1259,246.48Z"/><path class="cls-44" d="M1324.66,170.89a13.6,13.6,0,0,0-4.45,1.88,3.92,3.92,0,0,0-1.65,2.56,12.35,12.35,0,0,0,.15,3.66q.48,2.87,1,5.75,7.6-1.28,15.24-2.37.86,5.92,1.7,11.87-7.48,1.06-15,2.32,3.71,22.08,7.4,44.16-6.36,1.07-12.7,2.27L1308,199q-5.38,1-10.75,2.14-1.23-5.86-2.45-11.74,5.42-1.12,10.83-2.16c-.38-2-.75-4-1.13-5.94-.87-4.54-.5-8.23,1.14-11.07a18,18,0,0,1,6.81-6.75,33.79,33.79,0,0,1,9.54-3.65c3.47-.77,6.62-1.35,9.47-1.75q.79,5.59,1.6,11.21A74.67,74.67,0,0,0,1324.66,170.89Z"/><path class="cls-44" d="M1357,236.71q-4.82-40.52-9.62-81.05,7.27-.85,14.57-1.57,3.93,40.64,7.85,81.25Q1363.43,236,1357,236.71Z"/><path class="cls-44" d="M1382.3,175.48q7.07-.48,14.12-.81.88,19.13,1.78,38.24a10.06,10.06,0,0,0,.4,2,7.19,7.19,0,0,0,1.52,2.74,8.94,8.94,0,0,0,3.36,2.34,17.18,17.18,0,0,0,11.63-.33,9,9,0,0,0,3.16-2.53,7.43,7.43,0,0,0,1.37-2.77,10.24,10.24,0,0,0,.28-2L1419.5,174q7.07-.07,14.14,0l-.42,38.28c0,.29-.1,1-.27,2.14a19,19,0,0,1-1.13,3.95,24.09,24.09,0,0,1-2.5,4.71,20.74,20.74,0,0,1-4.24,4.62,22.52,22.52,0,0,1-6.38,3.57,28.13,28.13,0,0,1-9.06,1.57,29.5,29.5,0,0,1-9.19-1,23.69,23.69,0,0,1-6.62-3,17.5,17.5,0,0,1-4.43-4.14,24.32,24.32,0,0,1-2.71-4.57,20.5,20.5,0,0,1-1.36-4,20.15,20.15,0,0,1-.41-2.5Q1383.61,194.58,1382.3,175.48Z"/><path class="cls-44" d="M1514.3,183.26q-3.78,27.47-7.54,54.93a30.37,30.37,0,0,1-2.25,7.8,18.76,18.76,0,0,1-5.48,7,26.18,26.18,0,0,1-9.89,4.7c-4.1,1.09-9.31,1.33-15.71.8a75.1,75.1,0,0,1-10.68-1.51,51.51,51.51,0,0,1-6.71-2,18.77,18.77,0,0,1-4.55-2.64q.27-5.94.52-11.87a38.5,38.5,0,0,0,5.71,2.48,57.87,57.87,0,0,0,7,2,71.73,71.73,0,0,0,9.71,1.39,33.58,33.58,0,0,0,9.15-.27,17.24,17.24,0,0,0,5.9-2.21,8.85,8.85,0,0,0,3.27-3.51,12.34,12.34,0,0,0,1.24-4.12c.26-2.22.52-4.45.77-6.67a33,33,0,0,1-9,4.12,27.94,27.94,0,0,1-10.12,1,28.42,28.42,0,0,1-10.92-3.13,31.15,31.15,0,0,1-8.8-6.78,30.47,30.47,0,0,1-5.86-9.56,28.63,28.63,0,0,1-1.91-11.46,27.84,27.84,0,0,1,9.81-20.4,31.3,31.3,0,0,1,33.3-4.23,31.06,31.06,0,0,1,8.61,6.13c.14-1.24.28-2.48.43-3.72Q1507.31,182.31,1514.3,183.26Zm-36,39.36a17.22,17.22,0,0,0,6.55-.67,17.93,17.93,0,0,0,10.11-7.73,16.24,16.24,0,0,0,2.25-6.17c.06-.54.13-1.09.19-1.63a15.71,15.71,0,0,0-.83-6.52,17,17,0,0,0-3.31-5.62,17.81,17.81,0,0,0-5.33-4.08,18.35,18.35,0,0,0-6.66-1.88,17.59,17.59,0,0,0-7.09.81,18.5,18.5,0,0,0-6,3.27,16.33,16.33,0,0,0-5.93,11.75,17,17,0,0,0,4.32,12.5,18.74,18.74,0,0,0,5.24,4.07A16.8,16.8,0,0,0,1478.35,222.62Z"/><path class="cls-44" d="M1571,204.37q-7.39-1.73-14.83-3.28-4.58,22-9.17,43.94-6.43-1.35-12.9-2.54l8.19-44.13q-5.26-1-10.54-1.86l2-11.83q5.38.9,10.74,1.9,1.88-10.06,3.73-20.12,7.71-.75,15.48-1.32-2.54,12.1-5.06,24.23,7.58,1.57,15.11,3.34Z"/><path class="cls-44" d="M1621.84,204a35.17,35.17,0,0,1,11.27,5.59,27.31,27.31,0,0,1,6.54,7.08,22.78,22.78,0,0,1,3,7.56,29.63,29.63,0,0,1,.57,7.06,24.7,24.7,0,0,1-.8,5.5c-.43,1.53-.74,2.56-1,3.11l-2,5.37q-22.5-8.31-45.45-14.8a9.54,9.54,0,0,0,0,3.58,16.12,16.12,0,0,0,1.78,5.16,19.07,19.07,0,0,0,4.3,5.31,20.32,20.32,0,0,0,7.61,4.06,47.32,47.32,0,0,0,9,2,62,62,0,0,0,7.41.42,36.61,36.61,0,0,0,7-.57q-2.07,5.78-4.13,11.55a10.54,10.54,0,0,1-4,.7,42.79,42.79,0,0,1-6.18-.32c-2.28-.26-4.56-.6-6.86-1a46.06,46.06,0,0,1-5.83-1.35c-.84-.26-2.11-.78-3.84-1.54a33,33,0,0,1-5.56-3.24,39.78,39.78,0,0,1-5.89-5.08,28,28,0,0,1-4.92-7.07,28.66,28.66,0,0,1-2.65-9.42,33.22,33.22,0,0,1,1.13-12.16,23.53,23.53,0,0,1,4.6-8.91,26.81,26.81,0,0,1,8.56-6.93,32.57,32.57,0,0,1,11.88-3.39A35.93,35.93,0,0,1,1621.84,204Zm8.05,27.44a15.24,15.24,0,0,0-.16-7,16.37,16.37,0,0,0-3.09-5.91c-1.56-2-4.15-3.57-7.76-4.71a23.1,23.1,0,0,0-9.46-1.24,18.34,18.34,0,0,0-6.72,1.92,12.8,12.8,0,0,0-4.15,3.38,10.52,10.52,0,0,0-1.83,3.2Q1613.42,225.74,1629.89,231.4Z"/><path class="cls-44" d="M1646.49,275.15l21.87-54.4q6.67,2.69,13.3,5.52c-1.11,2.48-2.21,5-3.32,7.43a17.85,17.85,0,0,1,5.83-1.91,28.51,28.51,0,0,1,7,0,31,31,0,0,1,9.51,3c4.49,2.09,7.79,4.4,9.89,6.86a15.34,15.34,0,0,1,3.74,7.62,17.66,17.66,0,0,1-.63,7.94,49.36,49.36,0,0,1-3.23,7.92l-16.18,31.76q-5.89-3-11.83-5.86l15.8-32.81a8.52,8.52,0,0,0,.23-6.72c-.84-2.43-2.84-4.39-6-5.83a23.83,23.83,0,0,0-6.42-2,16.27,16.27,0,0,0-6.13.17,13.48,13.48,0,0,0-5.28,2.51,12.45,12.45,0,0,0-3.76,5.08l-12.3,28.72Q1652.56,277.59,1646.49,275.15Z"/></svg>