<svg id="Layer_1" data-name="Layer 1" xmlns="http://www.w3.org/2000/svg" width="500" height="640" viewBox="0 0 500 640"><defs><style>.cls-1{fill:#d2a67b;}.cls-2{fill:#24242d;}.cls-3{fill:#6c6f78;}.cls-4{fill:#ca9866;}.cls-5,.cls-6{stroke:#000;stroke-miterlimit:10;stroke-width:0.75px;}.cls-6{fill:none;}</style></defs><path id="Hale" class="cls-1" d="M47.7,498.42c-5.92-3.34-13.14-7.41-18.38-13.29-25.06-28.1-5.12-97.77,1-97.67.87,0,1.65,2.41,3.17,7.2,5.19,16.4,4,24.33,6.08,32.62C43.71,444.14,59.78,457,73.73,460c11.27,2.48,16.25-2.48,20.37,2,7.87,8.6,1.06,38.93-14,45.56C71.09,511.61,61.25,506.06,47.7,498.42Z"/><path id="Krop" class="cls-1" d="M117.55,308.28c-6.94,12.64-17.58,32-19.19,58.35-1.27,20.82,4.26,27.29,3.2,58.35-.49,14.44-1.88,18.62-3.2,32.42-3.72,38.9-7.63,79.65,11.19,94,3.77,2.88,9.79,5.71,64-3.24,51.63-8.54,45.82-11.06,60.75-11.35,42.18-.81,52.45,20,97.53,16.21,30.53-2.56,36.81-13,38.38-16.21,3.32-6.79,1-12.68,0-25.93-1.33-18.14,1.56-28.35,3.19-42.14,4.7-39.74-2.28-92-3.19-98.88-7.53-56.37-11.29-84.56-30.38-105.35-42.35-46.12-134.88-42.72-183.87-3.24C133.82,279.08,119.12,305.41,117.55,308.28Z"/><rect id="Hoved" class="cls-1" x="96.76" y="78.41" width="294.19" height="221.77" rx="56.41"/><path id="Øre_1" data-name="Øre 1" class="cls-2" d="M162.61,84.71c3.93,9.94,5.34,21.34,8,43.76,1.25,10.53,1.63,15.81-1.6,21.07-2.59,4.22-8,9.26-14.39,9.73-3.68.26-5.19-1.16-12.79-1.63a72.55,72.55,0,0,0-8,0c-13.74.56-21.56-4.79-41.57-6.48-10.52-.89-13.93.13-17.58-3.24-5.18-4.78-6.82-14.65-3.2-19.45,1.52-2,2.91-1.74,6.39-4.86a31.83,31.83,0,0,0,6.4-8.11c2.65-4.44,33.89-42.8,60.76-48.62,2.46-.54.31-.81,3.19,0C150.78,67.59,155.59,66.92,162.61,84.71Z"/><path id="Øre_2" data-name="Øre 2" class="cls-2" d="M340.1,64.63a21.69,21.69,0,0,0-4.8,0c-6.37,1-10.46,9.78-11.19,11.35-2,4.36-2.24,7.38-3.2,19.45-1,12.39-1.49,18.59-1.6,19.45-1.64,12.51-3.63,15.21-3.2,24.31.37,7.84,1.91,11,3.2,13a20.71,20.71,0,0,0,11.19,8.11c2,.6,4.78,1.07,12.79,0a123.72,123.72,0,0,0,16-3.25,111.43,111.43,0,0,1,25.58-3.24c7-.13,6.93.57,11.2,0,5.15-.68,16.11-2.14,19.18-9.72,1.81-4.48.36-9.81-1.6-13-1.22-2-2.21-2.4-8-8.1l-4.8-4.87c-5.55-5.64-44.47-47.87-54.36-51.86A27.14,27.14,0,0,0,340.1,64.63Z"/><path id="Mund" class="cls-3" d="M253.45,311.52a98.06,98.06,0,0,0-17.59,0,103.24,103.24,0,0,0-11.19,1.62c-11.29,2.28-13.39,4.72-20.79,6.49-4,.95-18.45,4.41-30.37-3.25-2.14-1.37-11.15-6.21-11.2-13,0-1.11.23-2.34,3.2-8.11a103.94,103.94,0,0,1,6.4-11.34c6.33-9.48,9.15-20,14.39-30.8,4.11-8.44,10.3-21.06,20.78-29.17,20.57-15.93,57.17-14,73.55,3.24,4.73,5,9,13.59,17.59,30.79,5.71,11.48,6.3,14.5,11.19,21.08,4.44,6,7.62,8.4,9.59,14.58.86,2.69,3.1,9.73,0,16.21-4.72,9.87-18.33,11.12-20.78,11.35-3.82.35-10.59-1.39-24-4.87S259.16,312.09,253.45,311.52Z"/><path id="Inderkrop" class="cls-4" d="M180.22,568.34c-28.3,8.19,2.08-38.81,1.34-81.41-.79-45.61,6.94-68.07,17-85.53,19.56-34.08,58.79-39.27,78-9.69,7,10.79,9.62,26.5,14.61,57.46,9.8,60.86,42.23,124,6.33,117.64C248,558.11,232.22,553.27,180.22,568.34Z"/><ellipse id="Pote_2" data-name="Pote 2" class="cls-3" cx="338.99" cy="550.6" rx="41.57" ry="34.04"/><path id="Næse" class="cls-5" d="M277,219.85c-.64,18.58-29.28,37.22-40.28,31.36-12.55-6.69-20-11.05-23.58-18.35a27.87,27.87,0,0,1-2.41-10.17,27.43,27.43,0,0,1-.05-5.18C212.62,208,277.6,202.91,277,219.85Z"/><path id="Bagbenet" class="cls-4" d="M82.37,394.19a149.85,149.85,0,0,0-4.8,29.17c-1.61,25.35,4.45,33.26,0,53.49-3,13.69-6.15,11.71-9.59,27.55-1.83,8.46-5.05,24.12,0,42.15,2.43,8.64,7.45,25.79,16.79,26.74,16,1.62,5-17.47,11.19-32.42,7.07-17.16,20.58-23.42,16.79-72.12-2.54-32.68-2.08-51.75-12.79-77.81-2-5,5.24-21.12.8-20.26S82.41,388.64,82.37,394.19Z"/><ellipse id="Pote_2-2" data-name="Pote 2" class="cls-3" cx="132.74" cy="555.46" rx="41.57" ry="34.04"/><polyline class="cls-4" points="87.14 573.37 96.68 572.4 93.77 567.34"/><line class="cls-4" x1="91.17" y1="379.17" x2="99.16" y2="367.44"/><path d="M177.43,221.71a22.32,22.32,0,0,1-19.64-11.42c-3.41-6.09-3.7-13.61-.83-21.17a24.13,24.13,0,0,1,9.57-12.21,23.67,23.67,0,0,1,15.1-3.27,27,27,0,0,1,14.26,5.67l-1.4,1.84A24.66,24.66,0,0,0,181.44,176a21.53,21.53,0,0,0-13.72,2.94A21.89,21.89,0,0,0,159.08,190c-2.66,7-2.42,13.63.69,19.17a20.57,20.57,0,0,0,12.2,9.54c7.11,2,16.78.08,21.51-7.27,1.79-2.78,3.61-7.58,2.11-14.63-.76-3.61-3.4-12.27-11.34-14.65-6.78-2-14.69,1.41-18.42,8-.76,1.35-4.36,8.35-.77,14.33,3.26,5.44,10.75,6.78,16.11,4.94,2.26-.78,7.59-3.15,8.34-8.38.71-4.88-2.84-10.17-7.44-11.1a8.45,8.45,0,0,0-8,2.73c-1.63,1.9-3.35,5.78-1.43,8.66,1.54,2.33,4.58,2.57,5.17,2.6l-.09,2.32c-1.11-.05-4.86-.45-7-3.61-2.64-4-.49-9.06,1.61-11.51a10.77,10.77,0,0,1,10.17-3.48c5.82,1.18,10.14,7.59,9.25,13.73-.94,6.51-7.21,9.33-9.86,10.24-6.12,2.11-14.78.74-18.78-5.92-4.26-7.11-.13-15.17.74-16.71,4.24-7.49,13.28-11.39,21-9.07,9.11,2.73,12.08,12.37,12.93,16.39,1.66,7.84-.41,13.25-2.44,16.4C191.33,219,184.13,221.71,177.43,221.71Z"/><path d="M311.43,221.71a22.32,22.32,0,0,1-19.64-11.42c-3.41-6.09-3.7-13.61-.83-21.17a24.13,24.13,0,0,1,9.57-12.21,23.67,23.67,0,0,1,15.1-3.27,27,27,0,0,1,14.26,5.67l-1.4,1.84A24.66,24.66,0,0,0,315.44,176a21.53,21.53,0,0,0-13.72,2.94A21.89,21.89,0,0,0,293.08,190c-2.66,7-2.42,13.63.69,19.17a20.57,20.57,0,0,0,12.2,9.54c7.11,2,16.78.08,21.51-7.27,1.79-2.78,3.61-7.58,2.11-14.63-.76-3.61-3.4-12.27-11.34-14.65-6.78-2-14.69,1.41-18.42,8-.76,1.35-4.36,8.35-.77,14.33,3.26,5.44,10.75,6.78,16.11,4.94,2.26-.78,7.59-3.15,8.34-8.38.71-4.88-2.84-10.17-7.44-11.1a8.45,8.45,0,0,0-8,2.73c-1.63,1.9-3.35,5.78-1.43,8.66,1.54,2.33,4.58,2.57,5.17,2.6l-.09,2.32c-1.11-.05-4.86-.45-7-3.61-2.64-4-.49-9.06,1.61-11.51a10.77,10.77,0,0,1,10.17-3.48c5.82,1.18,10.14,7.59,9.25,13.73-.94,6.51-7.21,9.33-9.86,10.24-6.12,2.11-14.78.74-18.78-5.92-4.26-7.11-.13-15.17.74-16.71,4.24-7.49,13.28-11.39,21-9.07,9.11,2.73,12.08,12.37,12.93,16.39,1.66,7.84-.41,13.25-2.44,16.4C325.33,219,318.13,221.71,311.43,221.71Z"/><path class="cls-6" d="M204.29,287.56c1.17-8.68,3.05-10.91,4.55-11.32,4.19-1.16,7.81,11.07,13.48,10.32,4.61-.61,5.35-9.12,10-9.5s6.33,7.52,10.82,6.95c4.05-.51,4.4-7.14,8.59-7.9,4.9-.9,7.23,7.7,12.21,7,4.65-.65,5.41-8.58,10-9.49,2.37-.47,5.84.89,10.77,8.58"/></svg>