<svg id="Layer_1" data-name="Layer 1" xmlns="http://www.w3.org/2000/svg" width="500" height="640" viewBox="0 0 500 640"><defs><style>.cls-1{fill:#d2a67b;}.cls-2{fill:#24242d;}.cls-3,.cls-4{stroke:#000;stroke-miterlimit:10;stroke-width:0.75px;}.cls-4{fill:#fff;}.cls-5{fill:#6c6f78;}.cls-6{fill:#ca9866;}.cls-7{fill:#bf262d;}</style></defs><title>glad_hector2</title><path id="Hale" class="cls-1" d="M52.7,502.42c-5.92-3.34-13.14-7.41-18.38-13.29-25.06-28.1-5.12-97.77,1-97.67.87,0,1.65,2.41,3.17,7.2,5.19,16.4,4,24.33,6.08,32.62C48.71,448.14,64.78,461,78.73,464c11.27,2.48,16.25-2.48,20.37,2,7.87,8.6,1.06,38.93-14,45.56C76.09,515.61,66.25,510.06,52.7,502.42Z"/><path id="Krop" class="cls-1" d="M122.55,312.28c-6.94,12.64-17.58,32-19.19,58.35-1.27,20.82,4.26,27.29,3.2,58.35-.49,14.44-1.88,18.62-3.2,32.42-3.72,38.9-7.63,79.65,11.19,94,3.77,2.88,9.79,5.71,64-3.24,51.63-8.54,45.82-11.06,60.75-11.35,42.18-.81,52.45,20,97.53,16.21,30.53-2.56,36.81-13,38.38-16.21,3.32-6.79,1-12.68,0-25.93-1.33-18.14,1.56-28.35,3.19-42.14,4.7-39.74-2.28-92-3.19-98.88-7.53-56.37-11.29-84.56-30.38-105.35-42.35-46.12-134.88-42.72-183.87-3.24C138.82,283.08,124.12,309.41,122.55,312.28Z"/><rect id="Hoved" class="cls-1" x="101.76" y="82.41" width="294.19" height="221.77" rx="56.41"/><path id="Øre_1" data-name="Øre 1" class="cls-2" d="M167.61,88.71c3.93,9.94,5.34,21.34,8,43.76,1.25,10.53,1.63,15.81-1.6,21.07-2.59,4.22-8,9.26-14.39,9.73-3.68.26-5.19-1.16-12.79-1.63a72.55,72.55,0,0,0-8,0c-13.74.56-21.56-4.79-41.57-6.48-10.52-.89-13.93.13-17.58-3.24-5.18-4.78-6.82-14.65-3.2-19.45,1.52-2,2.91-1.74,6.39-4.86a31.83,31.83,0,0,0,6.4-8.11c2.65-4.44,33.89-42.8,60.76-48.62,2.46-.54.31-.81,3.19,0C155.78,71.59,160.59,70.92,167.61,88.71Z"/><path id="Øre_2" data-name="Øre 2" class="cls-2" d="M345.1,68.63a21.69,21.69,0,0,0-4.8,0c-6.37,1-10.46,9.78-11.19,11.35-2,4.36-2.24,7.38-3.2,19.45-1,12.39-1.49,18.59-1.6,19.45-1.64,12.51-3.63,15.21-3.2,24.31.37,7.84,1.91,11,3.2,13a20.71,20.71,0,0,0,11.19,8.11c2,.6,4.78,1.07,12.79,0a123.72,123.72,0,0,0,16-3.25,111.43,111.43,0,0,1,25.58-3.24c7-.13,6.93.57,11.2,0,5.15-.68,16.11-2.14,19.18-9.72,1.81-4.48.36-9.81-1.6-13-1.22-2-2.21-2.4-8-8.1l-4.8-4.87c-5.55-5.64-44.47-47.87-54.36-51.86A27.14,27.14,0,0,0,345.1,68.63Z"/><ellipse id="øje_1" data-name="øje 1" class="cls-3" cx="176.91" cy="202.06" rx="20.79" ry="21.07"/><ellipse id="øje_2" data-name="øje 2" class="cls-3" cx="320.8" cy="202.06" rx="20.79" ry="21.07"/><ellipse id="pupil_1" data-name="pupil 1" class="cls-4" cx="170.51" cy="192.34" rx="6.4" ry="6.48"/><ellipse id="pupil_2" data-name="pupil 2" class="cls-4" cx="314.41" cy="192.34" rx="6.4" ry="6.48"/><path id="Mund" class="cls-5" d="M258.45,315.52a98.06,98.06,0,0,0-17.59,0,103.24,103.24,0,0,0-11.19,1.62c-11.29,2.28-13.39,4.72-20.79,6.49-4,.95-18.45,4.41-30.37-3.25-2.14-1.37-11.15-6.21-11.2-13,0-1.11.23-2.34,3.2-8.11a103.94,103.94,0,0,1,6.4-11.34c6.33-9.48,9.15-20,14.39-30.8,4.11-8.44,10.3-21.06,20.78-29.17,20.57-15.93,57.17-14,73.55,3.24,4.73,5,9,13.59,17.59,30.79,5.71,11.48,6.3,14.5,11.19,21.08,4.44,6,7.62,8.4,9.59,14.58.86,2.69,3.1,9.73,0,16.21-4.72,9.87-18.33,11.12-20.78,11.35-3.82.35-10.59-1.39-24-4.87S264.16,316.09,258.45,315.52Z"/><path id="Inderkrop" class="cls-6" d="M185.22,572.34c-28.3,8.19,2.08-38.81,1.34-81.41-.79-45.61,6.94-68.07,17-85.53,19.56-34.08,58.79-39.27,78-9.69,7,10.79,9.62,26.5,14.61,57.46,9.8,60.86,42.23,124,6.33,117.64C253,562.11,237.22,557.27,185.22,572.34Z"/><ellipse id="Pote_2" data-name="Pote 2" class="cls-5" cx="343.99" cy="554.6" rx="41.57" ry="34.04"/><path id="Næse" class="cls-3" d="M282,223.85c-.64,18.58-29.28,37.22-40.28,31.36-12.55-6.69-20-11.05-23.58-18.35a27.87,27.87,0,0,1-2.41-10.17,27.43,27.43,0,0,1-.05-5.18C217.62,212,282.6,206.91,282,223.85Z"/><path id="Bagbenet" class="cls-6" d="M87.37,398.19a149.85,149.85,0,0,0-4.8,29.17c-1.61,25.35,4.45,33.26,0,53.49-3,13.69-6.15,11.71-9.59,27.55-1.83,8.46-5,24.12,0,42.15,2.43,8.64,7.45,25.79,16.79,26.74,16,1.62,5-17.47,11.19-32.42,7.07-17.16,20.58-23.42,16.79-72.12-2.54-32.68-2.08-51.75-12.79-77.81-2-5,5.24-21.12.8-20.26S87.41,392.64,87.37,398.19Z"/><ellipse id="Pote_2-2" data-name="Pote 2" class="cls-5" cx="137.74" cy="559.46" rx="41.57" ry="34.04"/><polyline class="cls-6" points="92.14 577.37 101.68 576.4 98.77 571.34"/><line class="cls-6" x1="96.17" y1="383.17" x2="104.16" y2="371.44"/><path class="cls-6" d="M211.28,126.11c17.37,4.45,41.59,7.67,67.07.68,2.8-.77,5.49-1.63,8.06-2.55"/><path d="M287.8,268.5a40.11,40.11,0,0,1-17.48,33.23,38.87,38.87,0,0,1-43.84,0A40.11,40.11,0,0,1,209,268.5Z"/><path class="cls-7" d="M270.32,302.22a41.4,41.4,0,0,1-43.84,0,23.31,23.31,0,0,1,43.84,0Z"/></svg>