<svg id="Layer_1" data-name="Layer 1" xmlns="http://www.w3.org/2000/svg" width="155" height="155" viewBox="0 0 155 155"><defs><style>.cls-1{fill:#dd0505;}.cls-2{fill:#fff;stroke:#fff;stroke-miterlimit:10;}.cls-3{fill:#d30202;}</style></defs><title>play_button</title><path class="cls-1" d="M129.58,58.15V84c0,12.6-10.57,22.81-23.61,22.81H37.1c-.54,0-1.07,0-1.61,0a24.12,24.12,0,0,1-9.41-2.58A22.74,22.74,0,0,1,13.5,84V58.15c0-12.52,10.42-22.68,23.33-22.82H106C119,35.33,129.58,45.55,129.58,58.15Z"/><polygon class="cls-2" points="95.69 70.69 61.2 92.47 60.38 92.98 60.38 48.89 61.2 49.4 93.75 69.5 95.69 70.69"/><path class="cls-3" d="M35.49,106.79a24.12,24.12,0,0,1-9.41-2.58A22.74,22.74,0,0,1,13.5,84V58.15c0-12.52,10.42-22.68,23.33-22.82a36.66,36.66,0,0,0-13.44,12c-4.69,7.33-4.32,14.45-4.47,23.43-.16,9.93-.34,20.73,7,29A31.59,31.59,0,0,0,35.49,106.79Z"/></svg>