<svg id="Layer_1" data-name="Layer 1" xmlns="http://www.w3.org/2000/svg" width="1920" height="1080" viewBox="0 0 1920 1080"><defs><style>.cls-1{fill:#94faff;}.cls-2{fill:#96ba51;}.cls-3{fill:#d3945d;}.cls-20,.cls-4,.cls-5{fill:none;}.cls-4{stroke:#4c9633;}.cls-10,.cls-17,.cls-20,.cls-4,.cls-5{stroke-miterlimit:10;}.cls-4,.cls-5{stroke-width:5px;}.cls-5{stroke:#4c9733;}.cls-6{fill:#ffc112;}.cls-7{fill:#7ba02a;}.cls-8{fill:#8c6239;}.cls-9{fill:#603813;}.cls-10{fill:#006837;stroke:#006837;}.cls-11{fill:#f4b0cc;}.cls-12{fill:#fff;}.cls-13{opacity:0.85;}.cls-14{fill:#d2a67b;}.cls-15{fill:#24242d;}.cls-16{fill:#6c6f78;}.cls-17,.cls-20{stroke:#000;}.cls-17{stroke-width:0.75px;}.cls-18{fill:#ca9866;}.cls-19{fill:#bf262d;}.cls-20{stroke-width:3px;}</style></defs><rect class="cls-1" width="1920" height="705"/><rect class="cls-2" x="-2" y="439" width="1920" height="641" transform="translate(1916 1519) rotate(-180)"/><polyline class="cls-3" points="724.41 960.48 734.66 959.46 731.53 954.12"/><path class="cls-4" d="M558.67,1017.46a36.43,36.43,0,0,1-9-14c-2.1-6.08-1.76-10.81-1-20,.79-9.49,2.17-24.21,11-39,2.61-4.36,4.16-5.88,4-6-.58-.47-24.94,19.67-32,49-2.82,11.7-2.19,22-3,22-1,0,0-16.05-3-35-4.27-27-16-47-18-50-1-1.49.43,9.9,1,24,1.48,36.24-8.78,71.27-14,71-2.61-.14-5.72-9.22-8-48"/><path class="cls-4" d="M184.67,862.46a36.43,36.43,0,0,1-9-14c-2.1-6.08-1.76-10.81-1-20,.79-9.49,2.17-24.21,11-39,2.61-4.36,4.16-5.88,4-6-.58-.47-24.94,19.67-32,49-2.82,11.7-2.19,22-3,22-1,0,0-16.05-3-35-4.27-27-16-47-18-50-1-1.49.43,9.9,1,24,1.48,36.24-8.78,71.27-14,71-2.61-.14-5.72-9.22-8-48"/><path class="cls-4" d="M1315.67,945.46a36.43,36.43,0,0,1-9-14c-2.1-6.08-1.76-10.81-1-20,.79-9.49,2.17-24.21,11-39,2.61-4.36,4.16-5.88,4-6-.58-.47-24.94,19.67-32,49-2.82,11.7-2.19,22-3,22-1,0,0-16.05-3-35-4.27-27-16-47-18-50-1-1.49.43,9.9,1,24,1.48,36.24-8.78,71.27-14,71-2.61-.14-5.72-9.22-8-48"/><path class="cls-4" d="M757.67,1045.46a36.43,36.43,0,0,1-9-14c-2.1-6.08-1.76-10.81-1-20,.79-9.49,2.17-24.21,11-39,2.61-4.36,4.16-5.88,4-6-.58-.47-24.94,19.67-32,49-2.82,11.7-2.19,22-3,22-1,0,0-16.05-3-35-4.27-27-16-47-18-50-1-1.49.43,9.9,1,24,1.48,36.24-8.78,71.27-14,71-2.61-.14-5.72-9.22-8-48"/><path class="cls-4" d="M1487.67,1017.46a36.43,36.43,0,0,1-9-14c-2.1-6.08-1.76-10.81-1-20,.79-9.49,2.17-24.21,11-39,2.61-4.36,4.16-5.88,4-6-.58-.47-24.94,19.67-32,49-2.82,11.7-2.19,22-3,22-1,0,0-16.05-3-35-4.27-27-16-47-18-50-1-1.49.43,9.9,1,24,1.48,36.24-8.78,71.27-14,71-2.61-.14-5.72-9.22-8-48"/><path class="cls-4" d="M558.67,848.46a36.43,36.43,0,0,1-9-14c-2.1-6.08-1.76-10.81-1-20,.79-9.49,2.17-24.21,11-39,2.61-4.36,4.16-5.88,4-6-.58-.47-24.94,19.67-32,49-2.82,11.7-2.19,22-3,22-1,0,0-16.05-3-35-4.27-27-16-47-18-50-1-1.49.43,9.9,1,24,1.48,36.24-8.78,71.27-14,71-2.61-.14-5.72-9.22-8-48"/><path class="cls-4" d="M1785.68,1017.46a36.32,36.32,0,0,0,9-14c2.1-6.08,1.77-10.81,1-20-.78-9.49-2.16-24.21-11-39-2.6-4.36-4.15-5.88-4-6,.58-.47,24.94,19.67,32,49,2.82,11.7,2.2,22,3,22,1,0,0-16.05,3-35,4.27-27,16-47,18-50,1-1.49-.42,9.9-1,24-1.47,36.24,8.79,71.27,14,71,2.61-.14,5.73-9.22,8-48"/><path class="cls-4" d="M1420.68,848.46a36.32,36.32,0,0,0,9-14c2.1-6.08,1.77-10.81,1-20-.78-9.49-2.16-24.21-11-39-2.6-4.36-4.15-5.88-4-6,.58-.47,24.94,19.67,32,49,2.82,11.7,2.2,22,3,22,1,0,0-16.05,3-35,4.27-27,16-47,18-50,1-1.49-.42,9.9-1,24-1.47,36.24,8.79,71.27,14,71,2.61-.14,5.73-9.22,8-48"/><path class="cls-4" d="M1099.68,833.46a36.32,36.32,0,0,0,9-14c2.1-6.08,1.77-10.81,1-20-.78-9.49-2.16-24.21-11-39-2.6-4.36-4.15-5.88-4-6,.58-.47,24.94,19.67,32,49,2.82,11.7,2.2,22,3,22,1,0,0-16.05,3-35,4.27-27,16-47,18-50,1-1.49-.42,9.9-1,24-1.47,36.24,8.79,71.27,14,71,2.61-.14,5.73-9.22,8-48"/><path class="cls-4" d="M221.68,982.46a36.32,36.32,0,0,0,9-14c2.1-6.08,1.77-10.81,1-20-.78-9.49-2.16-24.21-11-39-2.6-4.36-4.15-5.88-4-6,.58-.47,24.94,19.67,32,49,2.82,11.7,2.2,22,3,22,1,0,0-16.05,3-35,4.27-27,16-47,18-50,1-1.49-.42,9.9-1,24-1.47,36.24,8.79,71.27,14,71,2.61-.14,5.73-9.22,8-48"/><path class="cls-5" d="M838.18,977.09a63.11,63.11,0,0,1,9.41,16.74c7.64,20.86-.25,38.6,0,38.62.48,0,18.47-66.15,22.58-81.11a65.62,65.62,0,0,1,3.76-10.29c1.88-2.58-3.41,51.81-5.64,70.81-.48,4.06,3.47,20.15,5.64,20.59,3.34.68,13.17-30.89,13.17-28.32,0,1.64-.2,6.26,3.77,12.87,3.83,6.4,11.82,10.38,18.81,12.88"/><path class="cls-5" d="M1726.18,784.09a63.11,63.11,0,0,1,9.41,16.74c7.64,20.86-.25,38.6,0,38.62.48,0,18.47-66.15,22.58-81.11a65.62,65.62,0,0,1,3.76-10.29c1.88-2.58-3.41,51.81-5.64,70.81-.48,4.06,3.47,20.15,5.64,20.59,3.34.68,13.17-30.89,13.17-28.32,0,1.64-.2,6.26,3.77,12.87,3.83,6.4,11.82,10.38,18.81,12.88"/><path class="cls-5" d="M62.18,968.09a63.11,63.11,0,0,1,9.41,16.74c7.64,20.86-.25,38.6,0,38.62.48,0,18.47-66.15,22.58-81.11a65.62,65.62,0,0,1,3.76-10.29c1.88-2.58-3.41,51.81-5.64,70.81-.48,4.06,3.47,20.15,5.64,20.59,3.34.68,13.17-30.89,13.17-28.32,0,1.64-.2,6.26,3.77,12.87,3.83,6.4,11.82,10.38,18.81,12.88"/><path class="cls-5" d="M1576.18,870.09a63.11,63.11,0,0,1,9.41,16.74c7.64,20.86-.25,38.6,0,38.62.48,0,18.47-66.15,22.58-81.11a65.62,65.62,0,0,1,3.76-10.29c1.88-2.58-3.41,51.81-5.64,70.81-.48,4.06,3.47,20.15,5.64,20.59,3.34.68,13.17-30.89,13.17-28.32,0,1.64-.2,6.26,3.77,12.87,3.83,6.4,11.82,10.38,18.81,12.88"/><path class="cls-5" d="M1097.18,952.09a63.11,63.11,0,0,1,9.41,16.74c7.64,20.86-.25,38.6,0,38.62.48,0,18.47-66.15,22.58-81.11a65.62,65.62,0,0,1,3.76-10.29c1.88-2.58-3.41,51.81-5.64,70.81-.48,4.06,3.47,20.15,5.64,20.59,3.34.68,13.17-30.89,13.17-28.32,0,1.64-.2,6.26,3.77,12.87,3.83,6.4,11.82,10.38,18.81,12.88"/><path class="cls-5" d="M1038.68,977.09a63.39,63.39,0,0,0-9.41,16.74c-7.63,20.86.26,38.6,0,38.62-.48,0-18.47-66.15-22.57-81.11a64.23,64.23,0,0,0-3.77-10.29c-1.88-2.58,3.42,51.81,5.65,70.81.47,4.06-3.47,20.15-5.65,20.59-3.34.68-13.17-30.89-13.17-28.32,0,1.64.2,6.26-3.76,12.87-3.83,6.4-11.83,10.38-18.82,12.88"/><path class="cls-5" d="M411.68,824.09a63.39,63.39,0,0,0-9.41,16.74c-7.63,20.86.26,38.6,0,38.62-.48,0-18.47-66.15-22.57-81.11a64.23,64.23,0,0,0-3.77-10.29c-1.88-2.58,3.42,51.81,5.65,70.81.47,4.06-3.47,20.15-5.65,20.59-3.34.68-13.17-30.89-13.17-28.32,0,1.64.2,6.26-3.76,12.87-3.83,6.4-11.83,10.38-18.82,12.88"/><circle class="cls-6" cx="1844.5" cy="109.5" r="2.5"/><ellipse class="cls-2" cx="173.52" cy="145.49" rx="99.81" ry="104.3"/><ellipse class="cls-2" cx="263.17" cy="183.26" rx="89.05" ry="91.71"/><path class="cls-7" d="M357,182.66c0,51-38.52,92.3-86.05,92.3a80.44,80.44,0,0,1-16.74-1.75c39.51-8.35,69.3-45.72,69.3-90.55a97.13,97.13,0,0,0-11.68-46.46c-12.22-22.47-33.05-38.9-57.62-44.1A80.44,80.44,0,0,1,271,90.35a81.8,81.8,0,0,1,50.85,17.83C343.14,125,357,152.08,357,182.66Z"/><ellipse class="cls-2" cx="81.49" cy="231.21" rx="79.49" ry="79.72"/><path class="cls-7" d="M163.36,230.61c0,44.36-34,80.32-76,80.32a73.06,73.06,0,0,1-14.8-1.52c34.92-7.27,61.24-39.79,61.24-78.8a83.3,83.3,0,0,0-10.32-40.42c-10.79-19.55-29.2-33.85-50.92-38.38a72.8,72.8,0,0,1,59.73,14C151.12,180.42,163.36,204,163.36,230.61Z"/><polygon class="cls-8" points="168.93 332.42 158.99 341.98 88.06 267.77 98 258.21 168.93 332.42"/><rect class="cls-9" x="183.68" y="198.24" width="5.98" height="237.36"/><polygon class="cls-9" points="186.5 330.14 183.71 328.37 259.66 207.94 262.45 209.71 186.5 330.14"/><polygon class="cls-9" points="160.97 322.92 159.08 324.73 96.7 259.46 98.59 257.65 160.97 322.92"/><path class="cls-7" d="M276.92,140.1c0,55.28-42.66,100.1-95.3,100.1a91.06,91.06,0,0,1-18.26-1.84c43.91-8.94,77-49.53,77-98.26s-33.13-89.32-77-98.26A91.06,91.06,0,0,1,181.62,40C234.26,40,276.92,84.81,276.92,140.1Z"/><rect class="cls-8" x="159.78" y="198.24" width="29.88" height="239.76"/><polygon class="cls-8" points="183.66 328.01 173.72 321.4 252.1 202.91 262.03 209.52 183.66 328.01"/><ellipse class="cls-2" cx="85.52" cy="148.49" rx="99.81" ry="104.3"/><ellipse class="cls-2" cx="175.17" cy="186.26" rx="89.05" ry="91.71"/><path class="cls-7" d="M269,185.66c0,51-38.52,92.3-86.05,92.3a80.44,80.44,0,0,1-16.74-1.75c39.51-8.35,69.3-45.72,69.3-90.55a97.13,97.13,0,0,0-11.68-46.46c-12.22-22.47-33.05-38.9-57.62-44.1A80.44,80.44,0,0,1,183,93.35a81.8,81.8,0,0,1,50.85,17.83C255.14,128,269,155.08,269,185.66Z"/><ellipse class="cls-2" cx="-6.51" cy="234.21" rx="79.49" ry="79.72"/><path class="cls-7" d="M75.36,233.61c0,44.36-34,80.32-76,80.32a73.06,73.06,0,0,1-14.8-1.52c34.92-7.27,61.24-39.79,61.24-78.8a83.3,83.3,0,0,0-10.32-40.42c-10.79-19.55-29.2-33.85-50.92-38.38a72.36,72.36,0,0,1,14.8-1.52,72.93,72.93,0,0,1,44.93,15.52C63.12,183.42,75.36,207,75.36,233.61Z"/><polygon class="cls-8" points="80.93 335.42 70.99 344.98 0.06 270.77 10 261.21 80.93 335.42"/><rect class="cls-9" x="95.68" y="201.24" width="5.98" height="237.36"/><polygon class="cls-9" points="98.5 333.14 95.71 331.37 171.66 210.94 174.45 212.71 98.5 333.14"/><polygon class="cls-9" points="72.97 325.92 71.08 327.73 8.7 262.46 10.59 260.65 72.97 325.92"/><path class="cls-7" d="M188.92,143.1c0,55.28-42.66,100.1-95.3,100.1a91.06,91.06,0,0,1-18.26-1.84c43.91-8.94,77-49.53,77-98.26s-33.13-89.32-77-98.26A91.06,91.06,0,0,1,93.62,43C146.26,43,188.92,87.81,188.92,143.1Z"/><rect class="cls-8" x="71.78" y="201.24" width="29.88" height="239.76"/><polygon class="cls-8" points="95.66 331.01 85.72 324.4 164.1 205.91 174.03 212.52 95.66 331.01"/><ellipse class="cls-2" cx="361.52" cy="156.49" rx="99.81" ry="104.3"/><ellipse class="cls-2" cx="451.17" cy="194.26" rx="89.05" ry="91.71"/><path class="cls-7" d="M545,193.66c0,51-38.52,92.3-86.05,92.3a80.44,80.44,0,0,1-16.74-1.75c39.51-8.35,69.3-45.72,69.3-90.55a97.13,97.13,0,0,0-11.68-46.46c-12.22-22.47-33.05-38.9-57.62-44.1A80.44,80.44,0,0,1,459,101.35a81.8,81.8,0,0,1,50.85,17.83C531.14,136,545,163.08,545,193.66Z"/><ellipse class="cls-2" cx="269.49" cy="242.21" rx="79.49" ry="79.72"/><path class="cls-7" d="M351.36,241.61c0,44.36-34,80.32-76,80.32a73.06,73.06,0,0,1-14.8-1.52c34.92-7.27,61.24-39.79,61.24-78.8a83.3,83.3,0,0,0-10.32-40.42c-10.79-19.55-29.2-33.85-50.92-38.38a72.8,72.8,0,0,1,59.73,14C339.12,191.42,351.36,215,351.36,241.61Z"/><polygon class="cls-8" points="356.93 343.42 346.99 352.98 276.06 278.77 286 269.21 356.93 343.42"/><rect class="cls-9" x="371.68" y="209.24" width="5.98" height="237.36"/><polygon class="cls-9" points="374.5 341.14 371.71 339.37 447.66 218.94 450.45 220.71 374.5 341.14"/><polygon class="cls-9" points="348.97 333.92 347.08 335.73 284.7 270.46 286.59 268.65 348.97 333.92"/><path class="cls-7" d="M464.92,151.1c0,55.28-42.66,100.1-95.3,100.1a91.06,91.06,0,0,1-18.26-1.84c43.91-8.94,77-49.53,77-98.26s-33.13-89.32-77-98.26A91.06,91.06,0,0,1,369.62,51C422.26,51,464.92,95.81,464.92,151.1Z"/><rect class="cls-8" x="347.78" y="209.24" width="29.88" height="239.76"/><polygon class="cls-8" points="371.66 339.01 361.72 332.4 440.1 213.91 450.03 220.52 371.66 339.01"/><ellipse class="cls-2" cx="463.52" cy="157.49" rx="99.81" ry="104.3"/><ellipse class="cls-2" cx="553.17" cy="195.26" rx="89.05" ry="91.71"/><path class="cls-7" d="M647,194.66c0,51-38.52,92.3-86,92.3a80.44,80.44,0,0,1-16.74-1.75c39.51-8.35,69.3-45.72,69.3-90.55a97.13,97.13,0,0,0-11.68-46.46c-12.22-22.47-33.05-38.9-57.62-44.1A80.44,80.44,0,0,1,561,102.35a81.8,81.8,0,0,1,50.85,17.83C633.14,137,647,164.08,647,194.66Z"/><ellipse class="cls-2" cx="371.49" cy="243.21" rx="79.49" ry="79.72"/><path class="cls-7" d="M453.36,242.61c0,44.36-34,80.32-76,80.32a73.06,73.06,0,0,1-14.8-1.52c34.92-7.27,61.24-39.79,61.24-78.8a83.3,83.3,0,0,0-10.32-40.42c-10.79-19.55-29.2-33.85-50.92-38.38a72.8,72.8,0,0,1,59.73,14C441.12,192.42,453.36,216,453.36,242.61Z"/><polygon class="cls-8" points="458.93 344.42 448.99 353.98 378.06 279.77 388 270.21 458.93 344.42"/><rect class="cls-9" x="473.68" y="210.24" width="5.98" height="237.36"/><polygon class="cls-9" points="476.5 342.14 473.71 340.37 549.66 219.94 552.45 221.71 476.5 342.14"/><polygon class="cls-9" points="450.97 334.92 449.08 336.73 386.7 271.46 388.59 269.65 450.97 334.92"/><path class="cls-7" d="M566.92,152.1c0,55.28-42.66,100.1-95.3,100.1a91.06,91.06,0,0,1-18.26-1.84c43.91-8.94,77-49.53,77-98.26s-33.13-89.32-77-98.26A91.06,91.06,0,0,1,471.62,52C524.26,52,566.92,96.81,566.92,152.1Z"/><rect class="cls-8" x="449.78" y="210.24" width="29.88" height="239.76"/><polygon class="cls-8" points="473.66 340.01 463.72 333.4 542.1 214.91 552.03 221.52 473.66 340.01"/><ellipse class="cls-2" cx="539.52" cy="156.49" rx="99.81" ry="104.3"/><ellipse class="cls-2" cx="629.17" cy="194.26" rx="89.05" ry="91.71"/><path class="cls-7" d="M723,193.66c0,51-38.52,92.3-86,92.3a80.44,80.44,0,0,1-16.74-1.75c39.51-8.35,69.3-45.72,69.3-90.55a97.13,97.13,0,0,0-11.68-46.46c-12.22-22.47-33.05-38.9-57.62-44.1A80.44,80.44,0,0,1,637,101.35a81.8,81.8,0,0,1,50.85,17.83C709.14,136,723,163.08,723,193.66Z"/><ellipse class="cls-2" cx="447.49" cy="242.21" rx="79.49" ry="79.72"/><path class="cls-7" d="M529.36,241.61c0,44.36-34,80.32-76,80.32a73.06,73.06,0,0,1-14.8-1.52c34.92-7.27,61.24-39.79,61.24-78.8a83.3,83.3,0,0,0-10.32-40.42c-10.79-19.55-29.2-33.85-50.92-38.38a72.8,72.8,0,0,1,59.73,14C517.12,191.42,529.36,215,529.36,241.61Z"/><polygon class="cls-8" points="534.93 343.42 524.99 352.98 454.06 278.77 464 269.21 534.93 343.42"/><rect class="cls-9" x="549.68" y="209.24" width="5.98" height="237.36"/><polygon class="cls-9" points="552.5 341.14 549.71 339.37 625.66 218.94 628.45 220.71 552.5 341.14"/><polygon class="cls-9" points="526.97 333.92 525.08 335.73 462.7 270.46 464.59 268.65 526.97 333.92"/><path class="cls-7" d="M642.92,151.1c0,55.28-42.66,100.1-95.3,100.1a91.06,91.06,0,0,1-18.26-1.84c43.91-8.94,77-49.53,77-98.26s-33.13-89.32-77-98.26A91.06,91.06,0,0,1,547.62,51C600.26,51,642.92,95.81,642.92,151.1Z"/><rect class="cls-8" x="525.78" y="209.24" width="29.88" height="239.76"/><polygon class="cls-8" points="549.66 339.01 539.72 332.4 618.1 213.91 628.03 220.52 549.66 339.01"/><ellipse class="cls-2" cx="641.52" cy="158.49" rx="99.81" ry="104.3"/><ellipse class="cls-2" cx="731.17" cy="196.26" rx="89.05" ry="91.71"/><path class="cls-7" d="M825,195.66c0,51-38.52,92.3-86,92.3a80.44,80.44,0,0,1-16.74-1.75c39.51-8.35,69.3-45.72,69.3-90.55a97.13,97.13,0,0,0-11.68-46.46c-12.22-22.47-33.05-38.9-57.62-44.1A80.44,80.44,0,0,1,739,103.35a81.8,81.8,0,0,1,50.85,17.83C811.14,138,825,165.08,825,195.66Z"/><ellipse class="cls-2" cx="549.49" cy="244.21" rx="79.49" ry="79.72"/><path class="cls-7" d="M631.36,243.61c0,44.36-34,80.32-76,80.32a73.06,73.06,0,0,1-14.8-1.52c34.92-7.27,61.24-39.79,61.24-78.8a83.3,83.3,0,0,0-10.32-40.42c-10.79-19.55-29.2-33.85-50.92-38.38a72.8,72.8,0,0,1,59.73,14C619.12,193.42,631.36,217,631.36,243.61Z"/><polygon class="cls-8" points="636.93 345.42 626.99 354.98 556.06 280.77 566 271.21 636.93 345.42"/><rect class="cls-9" x="651.68" y="211.24" width="5.98" height="237.36"/><polygon class="cls-9" points="654.5 343.14 651.71 341.37 727.66 220.94 730.45 222.71 654.5 343.14"/><polygon class="cls-9" points="628.97 335.92 627.08 337.73 564.7 272.46 566.59 270.65 628.97 335.92"/><path class="cls-7" d="M744.92,153.1c0,55.28-42.66,100.1-95.3,100.1a91.06,91.06,0,0,1-18.26-1.84c43.91-8.94,77-49.53,77-98.26s-33.13-89.32-77-98.26A91.06,91.06,0,0,1,649.62,53C702.26,53,744.92,97.81,744.92,153.1Z"/><rect class="cls-8" x="627.78" y="211.24" width="29.88" height="239.76"/><polygon class="cls-8" points="651.66 341.01 641.72 334.4 720.1 215.91 730.03 222.52 651.66 341.01"/><ellipse class="cls-2" cx="757.52" cy="156.49" rx="99.81" ry="104.3"/><ellipse class="cls-2" cx="847.17" cy="194.26" rx="89.05" ry="91.71"/><path class="cls-7" d="M941,193.66c0,51-38.52,92.3-86,92.3a80.44,80.44,0,0,1-16.74-1.75c39.51-8.35,69.3-45.72,69.3-90.55a97.13,97.13,0,0,0-11.68-46.46c-12.22-22.47-33.05-38.9-57.62-44.1A80.44,80.44,0,0,1,855,101.35a81.8,81.8,0,0,1,50.85,17.83C927.14,136,941,163.08,941,193.66Z"/><ellipse class="cls-2" cx="665.49" cy="242.21" rx="79.49" ry="79.72"/><path class="cls-7" d="M747.36,241.61c0,44.36-34,80.32-76,80.32a73.06,73.06,0,0,1-14.8-1.52c34.92-7.27,61.24-39.79,61.24-78.8a83.3,83.3,0,0,0-10.32-40.42c-10.79-19.55-29.2-33.85-50.92-38.38a72.8,72.8,0,0,1,59.73,14C735.12,191.42,747.36,215,747.36,241.61Z"/><polygon class="cls-8" points="752.93 343.42 742.99 352.98 672.06 278.77 682 269.21 752.93 343.42"/><rect class="cls-9" x="767.68" y="209.24" width="5.98" height="237.36"/><polygon class="cls-9" points="770.5 341.14 767.71 339.37 843.66 218.94 846.45 220.71 770.5 341.14"/><polygon class="cls-9" points="744.97 333.92 743.08 335.73 680.7 270.46 682.59 268.65 744.97 333.92"/><path class="cls-7" d="M860.92,151.1c0,55.28-42.66,100.1-95.3,100.1a91.06,91.06,0,0,1-18.26-1.84c43.91-8.94,77-49.53,77-98.26s-33.13-89.32-77-98.26A91.06,91.06,0,0,1,765.62,51C818.26,51,860.92,95.81,860.92,151.1Z"/><rect class="cls-8" x="743.78" y="209.24" width="29.88" height="239.76"/><polygon class="cls-8" points="767.66 339.01 757.72 332.4 836.1 213.91 846.03 220.52 767.66 339.01"/><ellipse class="cls-2" cx="840.52" cy="167.49" rx="99.81" ry="104.3"/><ellipse class="cls-2" cx="930.17" cy="205.26" rx="89.05" ry="91.71"/><path class="cls-7" d="M1024,204.66c0,51-38.52,92.3-86,92.3a80.44,80.44,0,0,1-16.74-1.75c39.51-8.35,69.3-45.72,69.3-90.55a97.13,97.13,0,0,0-11.68-46.46c-12.22-22.47-33.05-38.9-57.62-44.1A80.44,80.44,0,0,1,938,112.35a81.8,81.8,0,0,1,50.85,17.83C1010.14,147,1024,174.08,1024,204.66Z"/><ellipse class="cls-2" cx="748.49" cy="253.21" rx="79.49" ry="79.72"/><path class="cls-7" d="M830.36,252.61c0,44.36-34,80.32-76,80.32a73.06,73.06,0,0,1-14.8-1.52c34.92-7.27,61.24-39.79,61.24-78.8a83.3,83.3,0,0,0-10.32-40.42c-10.79-19.55-29.2-33.85-50.92-38.38a72.8,72.8,0,0,1,59.73,14C818.12,202.42,830.36,226,830.36,252.61Z"/><polygon class="cls-8" points="835.93 354.42 825.99 363.98 755.06 289.77 765 280.21 835.93 354.42"/><rect class="cls-9" x="850.68" y="220.24" width="5.98" height="237.36"/><polygon class="cls-9" points="853.5 352.14 850.71 350.37 926.66 229.94 929.45 231.71 853.5 352.14"/><polygon class="cls-9" points="827.97 344.92 826.08 346.73 763.7 281.46 765.59 279.65 827.97 344.92"/><path class="cls-7" d="M943.92,162.1c0,55.28-42.66,100.1-95.3,100.1a91.06,91.06,0,0,1-18.26-1.84c43.91-8.94,77-49.53,77-98.26s-33.13-89.32-77-98.26A91.06,91.06,0,0,1,848.62,62C901.26,62,943.92,106.81,943.92,162.1Z"/><rect class="cls-8" x="826.78" y="220.24" width="29.88" height="239.76"/><polygon class="cls-8" points="850.66 350.01 840.72 343.4 919.1 224.91 929.03 231.52 850.66 350.01"/><ellipse class="cls-2" cx="907.52" cy="163.49" rx="99.81" ry="104.3"/><ellipse class="cls-2" cx="997.17" cy="201.26" rx="89.05" ry="91.71"/><path class="cls-7" d="M1091,200.66c0,51-38.52,92.3-86,92.3a80.44,80.44,0,0,1-16.74-1.75c39.51-8.35,69.3-45.72,69.3-90.55a97.13,97.13,0,0,0-11.68-46.46c-12.22-22.47-33-38.9-57.62-44.1a80.44,80.44,0,0,1,16.74-1.75,81.8,81.8,0,0,1,50.85,17.83C1077.14,143,1091,170.08,1091,200.66Z"/><ellipse class="cls-2" cx="815.49" cy="249.21" rx="79.49" ry="79.72"/><path class="cls-7" d="M897.36,248.61c0,44.36-34,80.32-76,80.32a73.06,73.06,0,0,1-14.8-1.52c34.92-7.27,61.24-39.79,61.24-78.8a83.3,83.3,0,0,0-10.32-40.42c-10.79-19.55-29.2-33.85-50.92-38.38a72.8,72.8,0,0,1,59.73,14C885.12,198.42,897.36,222,897.36,248.61Z"/><polygon class="cls-8" points="902.93 350.42 892.99 359.98 822.06 285.77 832 276.21 902.93 350.42"/><rect class="cls-9" x="917.68" y="216.24" width="5.98" height="237.36"/><polygon class="cls-9" points="920.5 348.14 917.71 346.37 993.66 225.94 996.45 227.71 920.5 348.14"/><polygon class="cls-9" points="894.97 340.92 893.08 342.73 830.7 277.46 832.59 275.65 894.97 340.92"/><path class="cls-7" d="M1010.92,158.1c0,55.28-42.66,100.1-95.3,100.1a91.06,91.06,0,0,1-18.26-1.84c43.91-8.94,77-49.53,77-98.26s-33.13-89.32-77-98.26A91.06,91.06,0,0,1,915.62,58C968.26,58,1010.92,102.81,1010.92,158.1Z"/><rect class="cls-8" x="893.78" y="216.24" width="29.88" height="239.76"/><polygon class="cls-8" points="917.66 346.01 907.72 339.4 986.1 220.91 996.03 227.52 917.66 346.01"/><ellipse class="cls-2" cx="129.52" cy="150.49" rx="99.81" ry="104.3"/><ellipse class="cls-2" cx="219.17" cy="188.26" rx="89.05" ry="91.71"/><path class="cls-7" d="M313,187.66c0,51-38.52,92.3-86.05,92.3a80.44,80.44,0,0,1-16.74-1.75c39.51-8.35,69.3-45.72,69.3-90.55a97.13,97.13,0,0,0-11.68-46.46c-12.22-22.47-33-38.9-57.62-44.1A80.44,80.44,0,0,1,227,95.35a81.8,81.8,0,0,1,50.85,17.83C299.14,130,313,157.08,313,187.66Z"/><ellipse class="cls-2" cx="37.49" cy="236.21" rx="79.49" ry="79.72"/><path class="cls-7" d="M119.36,235.61c0,44.36-34,80.32-76,80.32a73.06,73.06,0,0,1-14.8-1.52c34.92-7.27,61.24-39.79,61.24-78.8a83.3,83.3,0,0,0-10.32-40.42c-10.79-19.55-29.2-33.85-50.92-38.38a72.8,72.8,0,0,1,59.73,14C107.12,185.42,119.36,209,119.36,235.61Z"/><polygon class="cls-8" points="124.93 337.42 114.99 346.98 44.06 272.77 54 263.21 124.93 337.42"/><rect class="cls-9" x="139.68" y="203.24" width="5.98" height="237.36"/><polygon class="cls-9" points="142.5 335.14 139.71 333.37 215.66 212.94 218.45 214.71 142.5 335.14"/><polygon class="cls-9" points="116.97 327.92 115.08 329.73 52.7 264.46 54.59 262.65 116.97 327.92"/><path class="cls-7" d="M232.92,145.1c0,55.28-42.66,100.1-95.3,100.1a91.06,91.06,0,0,1-18.26-1.84c43.91-8.94,77-49.53,77-98.26s-33.13-89.32-77-98.26A91.06,91.06,0,0,1,137.62,45C190.26,45,232.92,89.81,232.92,145.1Z"/><rect class="cls-8" x="115.78" y="203.24" width="29.88" height="239.76"/><polygon class="cls-8" points="139.66 333.01 129.72 326.4 208.1 207.91 218.03 214.52 139.66 333.01"/><ellipse class="cls-2" cx="703.52" cy="164.49" rx="99.81" ry="104.3"/><ellipse class="cls-2" cx="793.17" cy="202.26" rx="89.05" ry="91.71"/><path class="cls-7" d="M887,201.66c0,51-38.52,92.3-86,92.3a80.44,80.44,0,0,1-16.74-1.75c39.51-8.35,69.3-45.72,69.3-90.55a97.13,97.13,0,0,0-11.68-46.46c-12.22-22.47-33.05-38.9-57.62-44.1A80.44,80.44,0,0,1,801,109.35a81.8,81.8,0,0,1,50.85,17.83C873.14,144,887,171.08,887,201.66Z"/><ellipse class="cls-2" cx="611.49" cy="250.21" rx="79.49" ry="79.72"/><path class="cls-7" d="M693.36,249.61c0,44.36-34,80.32-76,80.32a73.06,73.06,0,0,1-14.8-1.52c34.92-7.27,61.24-39.79,61.24-78.8a83.3,83.3,0,0,0-10.32-40.42c-10.79-19.55-29.2-33.85-50.92-38.38a72.8,72.8,0,0,1,59.73,14C681.12,199.42,693.36,223,693.36,249.61Z"/><polygon class="cls-8" points="698.93 351.42 688.99 360.98 618.06 286.77 628 277.21 698.93 351.42"/><rect class="cls-9" x="713.68" y="217.24" width="5.98" height="237.36"/><polygon class="cls-9" points="716.5 349.14 713.71 347.37 789.66 226.94 792.45 228.71 716.5 349.14"/><polygon class="cls-9" points="690.97 341.92 689.08 343.73 626.7 278.46 628.59 276.65 690.97 341.92"/><path class="cls-7" d="M806.92,159.1c0,55.28-42.66,100.1-95.3,100.1a91.06,91.06,0,0,1-18.26-1.84c43.91-8.94,77-49.53,77-98.26s-33.13-89.32-77-98.26A91.06,91.06,0,0,1,711.62,59C764.26,59,806.92,103.81,806.92,159.1Z"/><rect class="cls-8" x="689.78" y="217.24" width="29.88" height="239.76"/><polygon class="cls-8" points="713.66 347.01 703.72 340.4 782.1 221.91 792.03 228.52 713.66 347.01"/><ellipse class="cls-2" cx="1013.52" cy="150.49" rx="99.81" ry="104.3"/><ellipse class="cls-2" cx="1103.17" cy="188.26" rx="89.05" ry="91.71"/><path class="cls-7" d="M1197,187.66c0,51-38.52,92.3-86,92.3a80.44,80.44,0,0,1-16.74-1.75c39.51-8.35,69.3-45.72,69.3-90.55a97.13,97.13,0,0,0-11.68-46.46c-12.22-22.47-33-38.9-57.62-44.1A80.44,80.44,0,0,1,1111,95.35a81.8,81.8,0,0,1,50.85,17.83C1183.14,130,1197,157.08,1197,187.66Z"/><ellipse class="cls-2" cx="921.49" cy="236.21" rx="79.49" ry="79.72"/><path class="cls-7" d="M1003.36,235.61c0,44.36-34,80.32-76,80.32a73.06,73.06,0,0,1-14.8-1.52c34.92-7.27,61.24-39.79,61.24-78.8a83.3,83.3,0,0,0-10.32-40.42c-10.79-19.55-29.2-33.85-50.92-38.38a72.8,72.8,0,0,1,59.73,14C991.12,185.42,1003.36,209,1003.36,235.61Z"/><polygon class="cls-8" points="1008.93 337.42 998.99 346.98 928.06 272.77 938 263.21 1008.93 337.42"/><rect class="cls-9" x="1023.68" y="203.24" width="5.98" height="237.36"/><polygon class="cls-9" points="1026.5 335.14 1023.71 333.37 1099.66 212.94 1102.45 214.71 1026.5 335.14"/><polygon class="cls-9" points="1000.97 327.92 999.08 329.73 936.7 264.46 938.59 262.65 1000.97 327.92"/><path class="cls-7" d="M1116.92,145.1c0,55.28-42.66,100.1-95.3,100.1a91.06,91.06,0,0,1-18.26-1.84c43.91-8.94,77-49.53,77-98.26s-33.13-89.32-77-98.26A91.06,91.06,0,0,1,1021.62,45C1074.26,45,1116.92,89.81,1116.92,145.1Z"/><rect class="cls-8" x="999.78" y="203.24" width="29.88" height="239.76"/><polygon class="cls-8" points="1023.66 333.01 1013.72 326.4 1092.1 207.91 1102.03 214.52 1023.66 333.01"/><ellipse class="cls-2" cx="1091.52" cy="170.49" rx="99.81" ry="104.3"/><ellipse class="cls-2" cx="1181.17" cy="208.26" rx="89.05" ry="91.71"/><path class="cls-7" d="M1275,207.66c0,51-38.52,92.3-86,92.3a80.44,80.44,0,0,1-16.74-1.75c39.51-8.35,69.3-45.72,69.3-90.55a97.13,97.13,0,0,0-11.68-46.46c-12.22-22.47-33-38.9-57.62-44.1a80.44,80.44,0,0,1,16.74-1.75,81.8,81.8,0,0,1,50.85,17.83C1261.14,150,1275,177.08,1275,207.66Z"/><ellipse class="cls-2" cx="999.49" cy="256.21" rx="79.49" ry="79.72"/><path class="cls-7" d="M1081.36,255.61c0,44.36-34,80.32-76,80.32a73.06,73.06,0,0,1-14.8-1.52c34.92-7.27,61.24-39.79,61.24-78.8a83.3,83.3,0,0,0-10.32-40.42c-10.79-19.55-29.2-33.85-50.92-38.38a72.8,72.8,0,0,1,59.73,14C1069.12,205.42,1081.36,229,1081.36,255.61Z"/><polygon class="cls-8" points="1086.93 357.42 1076.99 366.98 1006.06 292.77 1016 283.21 1086.93 357.42"/><rect class="cls-9" x="1101.68" y="223.24" width="5.98" height="237.36"/><polygon class="cls-9" points="1104.5 355.14 1101.71 353.37 1177.66 232.94 1180.45 234.71 1104.5 355.14"/><polygon class="cls-9" points="1078.97 347.92 1077.08 349.73 1014.7 284.46 1016.59 282.65 1078.97 347.92"/><path class="cls-7" d="M1194.92,165.1c0,55.28-42.66,100.1-95.3,100.1a91.06,91.06,0,0,1-18.26-1.84c43.91-8.94,77-49.53,77-98.26s-33.13-89.32-77-98.26A91.06,91.06,0,0,1,1099.62,65C1152.26,65,1194.92,109.81,1194.92,165.1Z"/><rect class="cls-8" x="1077.78" y="223.24" width="29.88" height="239.76"/><polygon class="cls-8" points="1101.66 353.01 1091.72 346.4 1170.1 227.91 1180.03 234.52 1101.66 353.01"/><ellipse class="cls-2" cx="1180.52" cy="170.49" rx="99.81" ry="104.3"/><ellipse class="cls-2" cx="1270.17" cy="208.26" rx="89.05" ry="91.71"/><path class="cls-7" d="M1364,207.66c0,51-38.52,92.3-86,92.3a80.44,80.44,0,0,1-16.74-1.75c39.51-8.35,69.3-45.72,69.3-90.55a97.13,97.13,0,0,0-11.68-46.46c-12.22-22.47-33-38.9-57.62-44.1a80.44,80.44,0,0,1,16.74-1.75,81.8,81.8,0,0,1,50.85,17.83C1350.14,150,1364,177.08,1364,207.66Z"/><ellipse class="cls-2" cx="1088.49" cy="256.21" rx="79.49" ry="79.72"/><path class="cls-7" d="M1170.36,255.61c0,44.36-34,80.32-76,80.32a73.06,73.06,0,0,1-14.8-1.52c34.92-7.27,61.24-39.79,61.24-78.8a83.3,83.3,0,0,0-10.32-40.42c-10.79-19.55-29.2-33.85-50.92-38.38a72.8,72.8,0,0,1,59.73,14C1158.12,205.42,1170.36,229,1170.36,255.61Z"/><polygon class="cls-8" points="1175.93 357.42 1165.99 366.98 1095.06 292.77 1105 283.21 1175.93 357.42"/><rect class="cls-9" x="1190.68" y="223.24" width="5.98" height="237.36"/><polygon class="cls-9" points="1193.5 355.14 1190.71 353.37 1266.66 232.94 1269.45 234.71 1193.5 355.14"/><polygon class="cls-9" points="1167.97 347.92 1166.08 349.73 1103.7 284.46 1105.59 282.65 1167.97 347.92"/><path class="cls-7" d="M1283.92,165.1c0,55.28-42.66,100.1-95.3,100.1a91.06,91.06,0,0,1-18.26-1.84c43.91-8.94,77-49.53,77-98.26s-33.13-89.32-77-98.26A91.06,91.06,0,0,1,1188.62,65C1241.26,65,1283.92,109.81,1283.92,165.1Z"/><rect class="cls-8" x="1166.78" y="223.24" width="29.88" height="239.76"/><polygon class="cls-8" points="1190.66 353.01 1180.72 346.4 1259.1 227.91 1269.03 234.52 1190.66 353.01"/><ellipse class="cls-2" cx="1240.52" cy="169.49" rx="99.81" ry="104.3"/><ellipse class="cls-2" cx="1330.17" cy="207.26" rx="89.05" ry="91.71"/><path class="cls-7" d="M1424,206.66c0,51-38.52,92.3-86,92.3a80.44,80.44,0,0,1-16.74-1.75c39.51-8.35,69.3-45.72,69.3-90.55a97.13,97.13,0,0,0-11.68-46.46c-12.22-22.47-33-38.9-57.62-44.1a80.44,80.44,0,0,1,16.74-1.75,81.8,81.8,0,0,1,50.85,17.83C1410.14,149,1424,176.08,1424,206.66Z"/><ellipse class="cls-2" cx="1148.49" cy="255.21" rx="79.49" ry="79.72"/><path class="cls-7" d="M1230.36,254.61c0,44.36-34,80.32-76,80.32a73.06,73.06,0,0,1-14.8-1.52c34.92-7.27,61.24-39.79,61.24-78.8a83.3,83.3,0,0,0-10.32-40.42c-10.79-19.55-29.2-33.85-50.92-38.38a72.8,72.8,0,0,1,59.73,14C1218.12,204.42,1230.36,228,1230.36,254.61Z"/><polygon class="cls-8" points="1235.93 356.42 1225.99 365.98 1155.06 291.77 1165 282.21 1235.93 356.42"/><rect class="cls-9" x="1250.68" y="222.24" width="5.98" height="237.36"/><polygon class="cls-9" points="1253.5 354.14 1250.71 352.37 1326.66 231.94 1329.45 233.71 1253.5 354.14"/><polygon class="cls-9" points="1227.97 346.92 1226.08 348.73 1163.7 283.46 1165.59 281.65 1227.97 346.92"/><path class="cls-7" d="M1343.92,164.1c0,55.28-42.66,100.1-95.3,100.1a91.06,91.06,0,0,1-18.26-1.84c43.91-8.94,77-49.53,77-98.26s-33.13-89.32-77-98.26A91.06,91.06,0,0,1,1248.62,64C1301.26,64,1343.92,108.81,1343.92,164.1Z"/><rect class="cls-8" x="1226.78" y="222.24" width="29.88" height="239.76"/><polygon class="cls-8" points="1250.66 352.01 1240.72 345.4 1319.1 226.91 1329.03 233.52 1250.66 352.01"/><ellipse class="cls-2" cx="1337.52" cy="157.49" rx="99.81" ry="104.3"/><ellipse class="cls-2" cx="1427.17" cy="195.26" rx="89.05" ry="91.71"/><path class="cls-7" d="M1521,194.66c0,51-38.52,92.3-86,92.3a80.44,80.44,0,0,1-16.74-1.75c39.51-8.35,69.3-45.72,69.3-90.55a97.13,97.13,0,0,0-11.68-46.46c-12.22-22.47-33-38.9-57.62-44.1a80.44,80.44,0,0,1,16.74-1.75,81.8,81.8,0,0,1,50.85,17.83C1507.14,137,1521,164.08,1521,194.66Z"/><ellipse class="cls-2" cx="1245.49" cy="243.21" rx="79.49" ry="79.72"/><path class="cls-7" d="M1327.36,242.61c0,44.36-34,80.32-76,80.32a73.06,73.06,0,0,1-14.8-1.52c34.92-7.27,61.24-39.79,61.24-78.8a83.3,83.3,0,0,0-10.32-40.42c-10.79-19.55-29.2-33.85-50.92-38.38a72.8,72.8,0,0,1,59.73,14C1315.12,192.42,1327.36,216,1327.36,242.61Z"/><polygon class="cls-8" points="1332.93 344.42 1322.99 353.98 1252.06 279.77 1262 270.21 1332.93 344.42"/><rect class="cls-9" x="1347.68" y="210.24" width="5.98" height="237.36"/><polygon class="cls-9" points="1350.5 342.14 1347.71 340.37 1423.66 219.94 1426.45 221.71 1350.5 342.14"/><polygon class="cls-9" points="1324.97 334.92 1323.08 336.73 1260.7 271.46 1262.59 269.65 1324.97 334.92"/><path class="cls-7" d="M1440.92,152.1c0,55.28-42.66,100.1-95.3,100.1a91.06,91.06,0,0,1-18.26-1.84c43.91-8.94,77-49.53,77-98.26s-33.13-89.32-77-98.26A91.06,91.06,0,0,1,1345.62,52C1398.26,52,1440.92,96.81,1440.92,152.1Z"/><rect class="cls-8" x="1323.78" y="210.24" width="29.88" height="239.76"/><polygon class="cls-8" points="1347.66 340.01 1337.72 333.4 1416.1 214.91 1426.03 221.52 1347.66 340.01"/><ellipse class="cls-2" cx="1463.52" cy="158.49" rx="99.81" ry="104.3"/><ellipse class="cls-2" cx="1553.17" cy="196.26" rx="89.05" ry="91.71"/><path class="cls-7" d="M1647,195.66c0,51-38.52,92.3-86,92.3a80.44,80.44,0,0,1-16.74-1.75c39.51-8.35,69.3-45.72,69.3-90.55a97.13,97.13,0,0,0-11.68-46.46c-12.22-22.47-33-38.9-57.62-44.1a80.44,80.44,0,0,1,16.74-1.75,81.8,81.8,0,0,1,50.85,17.83C1633.14,138,1647,165.08,1647,195.66Z"/><ellipse class="cls-2" cx="1371.49" cy="244.21" rx="79.49" ry="79.72"/><path class="cls-7" d="M1453.36,243.61c0,44.36-34,80.32-76,80.32a73.06,73.06,0,0,1-14.8-1.52c34.92-7.27,61.24-39.79,61.24-78.8a83.3,83.3,0,0,0-10.32-40.42c-10.79-19.55-29.2-33.85-50.92-38.38a72.8,72.8,0,0,1,59.73,14C1441.12,193.42,1453.36,217,1453.36,243.61Z"/><polygon class="cls-8" points="1458.93 345.42 1448.99 354.98 1378.06 280.77 1388 271.21 1458.93 345.42"/><rect class="cls-9" x="1473.68" y="211.24" width="5.98" height="237.36"/><polygon class="cls-9" points="1476.5 343.14 1473.71 341.37 1549.66 220.94 1552.45 222.71 1476.5 343.14"/><polygon class="cls-9" points="1450.97 335.92 1449.08 337.73 1386.7 272.46 1388.59 270.65 1450.97 335.92"/><path class="cls-7" d="M1566.92,153.1c0,55.28-42.66,100.1-95.3,100.1a91.06,91.06,0,0,1-18.26-1.84c43.91-8.94,77-49.53,77-98.26s-33.13-89.32-77-98.26A91.06,91.06,0,0,1,1471.62,53C1524.26,53,1566.92,97.81,1566.92,153.1Z"/><rect class="cls-8" x="1449.78" y="211.24" width="29.88" height="239.76"/><polygon class="cls-8" points="1473.66 341.01 1463.72 334.4 1542.1 215.91 1552.03 222.52 1473.66 341.01"/><ellipse class="cls-2" cx="1557.52" cy="161.49" rx="99.81" ry="104.3"/><ellipse class="cls-2" cx="1647.17" cy="199.26" rx="89.05" ry="91.71"/><path class="cls-7" d="M1741,198.66c0,51-38.52,92.3-86,92.3a80.44,80.44,0,0,1-16.74-1.75c39.51-8.35,69.3-45.72,69.3-90.55a97.13,97.13,0,0,0-11.68-46.46c-12.22-22.47-33-38.9-57.62-44.1a80.44,80.44,0,0,1,16.74-1.75,81.8,81.8,0,0,1,50.85,17.83C1727.14,141,1741,168.08,1741,198.66Z"/><ellipse class="cls-2" cx="1465.49" cy="247.21" rx="79.49" ry="79.72"/><path class="cls-7" d="M1547.36,246.61c0,44.36-34,80.32-76,80.32a73.06,73.06,0,0,1-14.8-1.52c34.92-7.27,61.24-39.79,61.24-78.8a83.3,83.3,0,0,0-10.32-40.42c-10.79-19.55-29.2-33.85-50.92-38.38a72.8,72.8,0,0,1,59.73,14C1535.12,196.42,1547.36,220,1547.36,246.61Z"/><polygon class="cls-8" points="1552.93 348.42 1542.99 357.98 1472.06 283.77 1482 274.21 1552.93 348.42"/><rect class="cls-9" x="1567.68" y="214.24" width="5.98" height="237.36"/><polygon class="cls-9" points="1570.5 346.14 1567.71 344.37 1643.66 223.94 1646.45 225.71 1570.5 346.14"/><polygon class="cls-9" points="1544.97 338.92 1543.08 340.73 1480.7 275.46 1482.59 273.65 1544.97 338.92"/><path class="cls-7" d="M1660.92,156.1c0,55.28-42.66,100.1-95.3,100.1a91.06,91.06,0,0,1-18.26-1.84c43.91-8.94,77-49.53,77-98.26s-33.13-89.32-77-98.26A91.06,91.06,0,0,1,1565.62,56C1618.26,56,1660.92,100.81,1660.92,156.1Z"/><rect class="cls-8" x="1543.78" y="214.24" width="29.88" height="239.76"/><polygon class="cls-8" points="1567.66 344.01 1557.72 337.4 1636.1 218.91 1646.03 225.52 1567.66 344.01"/><ellipse class="cls-2" cx="1683.52" cy="161.49" rx="99.81" ry="104.3"/><ellipse class="cls-2" cx="1773.17" cy="199.26" rx="89.05" ry="91.71"/><path class="cls-7" d="M1867,198.66c0,51-38.52,92.3-86,92.3a80.44,80.44,0,0,1-16.74-1.75c39.51-8.35,69.3-45.72,69.3-90.55a97.13,97.13,0,0,0-11.68-46.46c-12.22-22.47-33-38.9-57.62-44.1a80.44,80.44,0,0,1,16.74-1.75,81.8,81.8,0,0,1,50.85,17.83C1853.14,141,1867,168.08,1867,198.66Z"/><ellipse class="cls-2" cx="1591.49" cy="247.21" rx="79.49" ry="79.72"/><path class="cls-7" d="M1673.36,246.61c0,44.36-34,80.32-76,80.32a73.06,73.06,0,0,1-14.8-1.52c34.92-7.27,61.24-39.79,61.24-78.8a83.3,83.3,0,0,0-10.32-40.42c-10.79-19.55-29.2-33.85-50.92-38.38a72.8,72.8,0,0,1,59.73,14C1661.12,196.42,1673.36,220,1673.36,246.61Z"/><polygon class="cls-8" points="1678.93 348.42 1668.99 357.98 1598.06 283.77 1608 274.21 1678.93 348.42"/><rect class="cls-9" x="1693.68" y="214.24" width="5.98" height="237.36"/><polygon class="cls-9" points="1696.5 346.14 1693.71 344.37 1769.66 223.94 1772.45 225.71 1696.5 346.14"/><polygon class="cls-9" points="1670.97 338.92 1669.08 340.73 1606.7 275.46 1608.59 273.65 1670.97 338.92"/><path class="cls-7" d="M1786.92,156.1c0,55.28-42.66,100.1-95.3,100.1a91.06,91.06,0,0,1-18.26-1.84c43.91-8.94,77-49.53,77-98.26s-33.13-89.32-77-98.26A91.06,91.06,0,0,1,1691.62,56C1744.26,56,1786.92,100.81,1786.92,156.1Z"/><rect class="cls-8" x="1669.78" y="214.24" width="29.88" height="239.76"/><polygon class="cls-8" points="1693.66 344.01 1683.72 337.4 1762.1 218.91 1772.03 225.52 1693.66 344.01"/><ellipse class="cls-2" cx="1611.52" cy="150.49" rx="99.81" ry="104.3"/><ellipse class="cls-2" cx="1701.17" cy="188.26" rx="89.05" ry="91.71"/><path class="cls-7" d="M1795,187.66c0,51-38.52,92.3-86,92.3a80.44,80.44,0,0,1-16.74-1.75c39.51-8.35,69.3-45.72,69.3-90.55a97.13,97.13,0,0,0-11.68-46.46c-12.22-22.47-33-38.9-57.62-44.1A80.44,80.44,0,0,1,1709,95.35a81.8,81.8,0,0,1,50.85,17.83C1781.14,130,1795,157.08,1795,187.66Z"/><ellipse class="cls-2" cx="1519.49" cy="236.21" rx="79.49" ry="79.72"/><path class="cls-7" d="M1601.36,235.61c0,44.36-34,80.32-76,80.32a73.06,73.06,0,0,1-14.8-1.52c34.92-7.27,61.24-39.79,61.24-78.8a83.3,83.3,0,0,0-10.32-40.42c-10.79-19.55-29.2-33.85-50.92-38.38a72.8,72.8,0,0,1,59.73,14C1589.12,185.42,1601.36,209,1601.36,235.61Z"/><polygon class="cls-8" points="1606.93 337.42 1596.99 346.98 1526.06 272.77 1536 263.21 1606.93 337.42"/><rect class="cls-9" x="1621.68" y="203.24" width="5.98" height="237.36"/><polygon class="cls-9" points="1624.5 335.14 1621.71 333.37 1697.66 212.94 1700.45 214.71 1624.5 335.14"/><polygon class="cls-9" points="1598.97 327.92 1597.08 329.73 1534.7 264.46 1536.59 262.65 1598.97 327.92"/><path class="cls-7" d="M1714.92,145.1c0,55.28-42.66,100.1-95.3,100.1a91.06,91.06,0,0,1-18.26-1.84c43.91-8.94,77-49.53,77-98.26s-33.13-89.32-77-98.26A91.06,91.06,0,0,1,1619.62,45C1672.26,45,1714.92,89.81,1714.92,145.1Z"/><rect class="cls-8" x="1597.78" y="203.24" width="29.88" height="239.76"/><polygon class="cls-8" points="1621.66 333.01 1611.72 326.4 1690.1 207.91 1700.03 214.52 1621.66 333.01"/><ellipse class="cls-2" cx="1505.52" cy="162.49" rx="99.81" ry="104.3"/><ellipse class="cls-2" cx="1595.17" cy="200.26" rx="89.05" ry="91.71"/><path class="cls-7" d="M1689,199.66c0,51-38.52,92.3-86,92.3a80.44,80.44,0,0,1-16.74-1.75c39.51-8.35,69.3-45.72,69.3-90.55a97.13,97.13,0,0,0-11.68-46.46c-12.22-22.47-33-38.9-57.62-44.1a80.44,80.44,0,0,1,16.74-1.75,81.8,81.8,0,0,1,50.85,17.83C1675.14,142,1689,169.08,1689,199.66Z"/><ellipse class="cls-2" cx="1413.49" cy="248.21" rx="79.49" ry="79.72"/><path class="cls-7" d="M1495.36,247.61c0,44.36-34,80.32-76,80.32a73.06,73.06,0,0,1-14.8-1.52c34.92-7.27,61.24-39.79,61.24-78.8a83.3,83.3,0,0,0-10.32-40.42c-10.79-19.55-29.2-33.85-50.92-38.38a72.8,72.8,0,0,1,59.73,14C1483.12,197.42,1495.36,221,1495.36,247.61Z"/><polygon class="cls-8" points="1500.93 349.42 1490.99 358.98 1420.06 284.77 1430 275.21 1500.93 349.42"/><rect class="cls-9" x="1515.68" y="215.24" width="5.98" height="237.36"/><polygon class="cls-9" points="1518.5 347.14 1515.71 345.37 1591.66 224.94 1594.45 226.71 1518.5 347.14"/><polygon class="cls-9" points="1492.97 339.92 1491.08 341.73 1428.7 276.46 1430.59 274.65 1492.97 339.92"/><path class="cls-7" d="M1608.92,157.1c0,55.28-42.66,100.1-95.3,100.1a91.06,91.06,0,0,1-18.26-1.84c43.91-8.94,77-49.53,77-98.26s-33.13-89.32-77-98.26A91.06,91.06,0,0,1,1513.62,57C1566.26,57,1608.92,101.81,1608.92,157.1Z"/><rect class="cls-8" x="1491.78" y="215.24" width="29.88" height="239.76"/><polygon class="cls-8" points="1515.66 345.01 1505.72 338.4 1584.1 219.91 1594.03 226.52 1515.66 345.01"/><ellipse class="cls-2" cx="1399.52" cy="156.49" rx="99.81" ry="104.3"/><ellipse class="cls-2" cx="1489.17" cy="194.26" rx="89.05" ry="91.71"/><path class="cls-7" d="M1583,193.66c0,51-38.52,92.3-86,92.3a80.44,80.44,0,0,1-16.74-1.75c39.51-8.35,69.3-45.72,69.3-90.55a97.13,97.13,0,0,0-11.68-46.46c-12.22-22.47-33-38.9-57.62-44.1a80.44,80.44,0,0,1,16.74-1.75,81.8,81.8,0,0,1,50.85,17.83C1569.14,136,1583,163.08,1583,193.66Z"/><ellipse class="cls-2" cx="1307.49" cy="242.21" rx="79.49" ry="79.72"/><path class="cls-7" d="M1389.36,241.61c0,44.36-34,80.32-76,80.32a73.06,73.06,0,0,1-14.8-1.52c34.92-7.27,61.24-39.79,61.24-78.8a83.3,83.3,0,0,0-10.32-40.42c-10.79-19.55-29.2-33.85-50.92-38.38a72.8,72.8,0,0,1,59.73,14C1377.12,191.42,1389.36,215,1389.36,241.61Z"/><polygon class="cls-8" points="1394.93 343.42 1384.99 352.98 1314.06 278.77 1324 269.21 1394.93 343.42"/><rect class="cls-9" x="1409.68" y="209.24" width="5.98" height="237.36"/><polygon class="cls-9" points="1412.5 341.14 1409.71 339.37 1485.66 218.94 1488.45 220.71 1412.5 341.14"/><polygon class="cls-9" points="1386.97 333.92 1385.08 335.73 1322.7 270.46 1324.59 268.65 1386.97 333.92"/><path class="cls-7" d="M1502.92,151.1c0,55.28-42.66,100.1-95.3,100.1a91.06,91.06,0,0,1-18.26-1.84c43.91-8.94,77-49.53,77-98.26s-33.13-89.32-77-98.26A91.06,91.06,0,0,1,1407.62,51C1460.26,51,1502.92,95.81,1502.92,151.1Z"/><rect class="cls-8" x="1385.78" y="209.24" width="29.88" height="239.76"/><polygon class="cls-8" points="1409.66 339.01 1399.72 332.4 1478.1 213.91 1488.03 220.52 1409.66 339.01"/><ellipse class="cls-2" cx="1285.52" cy="158.49" rx="99.81" ry="104.3"/><ellipse class="cls-2" cx="1375.17" cy="196.26" rx="89.05" ry="91.71"/><path class="cls-7" d="M1469,195.66c0,51-38.52,92.3-86,92.3a80.44,80.44,0,0,1-16.74-1.75c39.51-8.35,69.3-45.72,69.3-90.55a97.13,97.13,0,0,0-11.68-46.46c-12.22-22.47-33-38.9-57.62-44.1a80.44,80.44,0,0,1,16.74-1.75,81.8,81.8,0,0,1,50.85,17.83C1455.14,138,1469,165.08,1469,195.66Z"/><ellipse class="cls-2" cx="1193.49" cy="244.21" rx="79.49" ry="79.72"/><path class="cls-7" d="M1275.36,243.61c0,44.36-34,80.32-76,80.32a73.06,73.06,0,0,1-14.8-1.52c34.92-7.27,61.24-39.79,61.24-78.8a83.3,83.3,0,0,0-10.32-40.42c-10.79-19.55-29.2-33.85-50.92-38.38a72.8,72.8,0,0,1,59.73,14C1263.12,193.42,1275.36,217,1275.36,243.61Z"/><polygon class="cls-8" points="1280.93 345.42 1270.99 354.98 1200.06 280.77 1210 271.21 1280.93 345.42"/><rect class="cls-9" x="1295.68" y="211.24" width="5.98" height="237.36"/><polygon class="cls-9" points="1298.5 343.14 1295.71 341.37 1371.66 220.94 1374.45 222.71 1298.5 343.14"/><polygon class="cls-9" points="1272.97 335.92 1271.08 337.73 1208.7 272.46 1210.59 270.65 1272.97 335.92"/><path class="cls-7" d="M1388.92,153.1c0,55.28-42.66,100.1-95.3,100.1a91.06,91.06,0,0,1-18.26-1.84c43.91-8.94,77-49.53,77-98.26s-33.13-89.32-77-98.26A91.06,91.06,0,0,1,1293.62,53C1346.26,53,1388.92,97.81,1388.92,153.1Z"/><rect class="cls-8" x="1271.78" y="211.24" width="29.88" height="239.76"/><polygon class="cls-8" points="1295.66 341.01 1285.72 334.4 1364.1 215.91 1374.03 222.52 1295.66 341.01"/><ellipse class="cls-2" cx="962.52" cy="146.49" rx="99.81" ry="104.3"/><ellipse class="cls-2" cx="1052.17" cy="184.26" rx="89.05" ry="91.71"/><path class="cls-7" d="M1146,183.66c0,51-38.52,92.3-86,92.3a80.44,80.44,0,0,1-16.74-1.75c39.51-8.35,69.3-45.72,69.3-90.55a97.13,97.13,0,0,0-11.68-46.46c-12.22-22.47-33-38.9-57.62-44.1A80.44,80.44,0,0,1,1060,91.35a81.8,81.8,0,0,1,50.85,17.83C1132.14,126,1146,153.08,1146,183.66Z"/><ellipse class="cls-2" cx="870.49" cy="232.21" rx="79.49" ry="79.72"/><path class="cls-7" d="M952.36,231.61c0,44.36-34,80.32-76,80.32a73.06,73.06,0,0,1-14.8-1.52c34.92-7.27,61.24-39.79,61.24-78.8a83.3,83.3,0,0,0-10.32-40.42c-10.79-19.55-29.2-33.85-50.92-38.38a72.8,72.8,0,0,1,59.73,14C940.12,181.42,952.36,205,952.36,231.61Z"/><polygon class="cls-8" points="957.93 333.42 947.99 342.98 877.06 268.77 887 259.21 957.93 333.42"/><rect class="cls-9" x="972.68" y="199.24" width="5.98" height="237.36"/><polygon class="cls-9" points="975.5 331.14 972.71 329.37 1048.66 208.94 1051.45 210.71 975.5 331.14"/><polygon class="cls-9" points="949.97 323.92 948.08 325.73 885.7 260.46 887.59 258.65 949.97 323.92"/><path class="cls-7" d="M1065.92,141.1c0,55.28-42.66,100.1-95.3,100.1a91.06,91.06,0,0,1-18.26-1.84c43.91-8.94,77-49.53,77-98.26s-33.13-89.32-77-98.26A91.06,91.06,0,0,1,970.62,41C1023.26,41,1065.92,85.81,1065.92,141.1Z"/><rect class="cls-8" x="948.78" y="199.24" width="29.88" height="239.76"/><polygon class="cls-8" points="972.66 329.01 962.72 322.4 1041.1 203.91 1051.03 210.52 972.66 329.01"/><ellipse class="cls-2" cx="412.52" cy="165.49" rx="99.81" ry="104.3"/><ellipse class="cls-2" cx="502.17" cy="203.26" rx="89.05" ry="91.71"/><path class="cls-7" d="M596,202.66c0,51-38.52,92.3-86.05,92.3a80.44,80.44,0,0,1-16.74-1.75c39.51-8.35,69.3-45.72,69.3-90.55a97.13,97.13,0,0,0-11.68-46.46c-12.22-22.47-33.05-38.9-57.62-44.1A80.44,80.44,0,0,1,510,110.35a81.8,81.8,0,0,1,50.85,17.83C582.14,145,596,172.08,596,202.66Z"/><ellipse class="cls-2" cx="320.49" cy="251.21" rx="79.49" ry="79.72"/><path class="cls-7" d="M402.36,250.61c0,44.36-34,80.32-76,80.32a73.06,73.06,0,0,1-14.8-1.52c34.92-7.27,61.24-39.79,61.24-78.8a83.3,83.3,0,0,0-10.32-40.42c-10.79-19.55-29.2-33.85-50.92-38.38a72.8,72.8,0,0,1,59.73,14C390.12,200.42,402.36,224,402.36,250.61Z"/><polygon class="cls-8" points="407.93 352.42 397.99 361.98 327.06 287.77 337 278.21 407.93 352.42"/><rect class="cls-9" x="422.68" y="218.24" width="5.98" height="237.36"/><polygon class="cls-9" points="425.5 350.14 422.71 348.37 498.66 227.94 501.45 229.71 425.5 350.14"/><polygon class="cls-9" points="399.97 342.92 398.08 344.73 335.7 279.46 337.59 277.65 399.97 342.92"/><path class="cls-7" d="M515.92,160.1c0,55.28-42.66,100.1-95.3,100.1a91.06,91.06,0,0,1-18.26-1.84c43.91-8.94,77-49.53,77-98.26s-33.13-89.32-77-98.26A91.06,91.06,0,0,1,420.62,60C473.26,60,515.92,104.81,515.92,160.1Z"/><rect class="cls-8" x="398.78" y="218.24" width="29.88" height="239.76"/><polygon class="cls-8" points="422.66 348.01 412.72 341.4 491.1 222.91 501.03 229.52 422.66 348.01"/><ellipse class="cls-2" cx="299.52" cy="165.49" rx="99.81" ry="104.3"/><ellipse class="cls-2" cx="389.17" cy="203.26" rx="89.05" ry="91.71"/><path class="cls-7" d="M483,202.66c0,51-38.52,92.3-86.05,92.3a80.44,80.44,0,0,1-16.74-1.75c39.51-8.35,69.3-45.72,69.3-90.55a97.13,97.13,0,0,0-11.68-46.46c-12.22-22.47-33.05-38.9-57.62-44.1A80.44,80.44,0,0,1,397,110.35a81.8,81.8,0,0,1,50.85,17.83C469.14,145,483,172.08,483,202.66Z"/><ellipse class="cls-2" cx="207.49" cy="251.21" rx="79.49" ry="79.72"/><path class="cls-7" d="M289.36,250.61c0,44.36-34,80.32-76,80.32a73.06,73.06,0,0,1-14.8-1.52c34.92-7.27,61.24-39.79,61.24-78.8a83.3,83.3,0,0,0-10.32-40.42c-10.79-19.55-29.2-33.85-50.92-38.38a72.8,72.8,0,0,1,59.73,14C277.12,200.42,289.36,224,289.36,250.61Z"/><polygon class="cls-8" points="294.93 352.42 284.99 361.98 214.06 287.77 224 278.21 294.93 352.42"/><rect class="cls-9" x="309.68" y="218.24" width="5.98" height="237.36"/><polygon class="cls-9" points="312.5 350.14 309.71 348.37 385.66 227.94 388.45 229.71 312.5 350.14"/><polygon class="cls-9" points="286.97 342.92 285.08 344.73 222.7 279.46 224.59 277.65 286.97 342.92"/><path class="cls-7" d="M402.92,160.1c0,55.28-42.66,100.1-95.3,100.1a91.06,91.06,0,0,1-18.26-1.84c43.91-8.94,77-49.53,77-98.26s-33.13-89.32-77-98.26A91.06,91.06,0,0,1,307.62,60C360.26,60,402.92,104.81,402.92,160.1Z"/><rect class="cls-8" x="285.78" y="218.24" width="29.88" height="239.76"/><polygon class="cls-8" points="309.66 348.01 299.72 341.4 378.1 222.91 388.03 229.52 309.66 348.01"/><path class="cls-10" d="M22.5,607.5c-8.52-7.25-18.34-.85-18-23,.58-38.22,36.44-84.09,72-77,20.77,4.14,27.66-30.81,44-34,15.35-3,24.21,14.1,43-1,13.82-11.11,46.09-24.66,63-22,39.9,6.29,52,22,76,57,15.38,22.42,26.15,1,52,7,25.05,5.84,46.18,46.86,40,81-4.94,27.3-22.82,30.08-43,30-8.93,0-14.7.66-31,1-11.94.25-19.67-2.22-25-1-37.77,8.65-34-5-73-4-20.4.52-36.26,4.79-54,7-28.84,3.59-37.08-10.81-65-6-15.94,2.75-22.75-2.28-39-1C47.37,622.85,32.06,616.48,22.5,607.5Z"/><path class="cls-11" d="M403,784.45V276.38c0-60.84,44-110.25,98.38-110.58l969.68-5.8c54.83-.33,99.44,49.28,99.44,110.58V793.15c0,61.42-44.77,111.07-99.7,110.58L501.11,895C446.8,894.54,403,845.18,403,784.45Z"/><path class="cls-12" d="M631.24,211.45c2.87,0,5.93.05,9.2.15a52.83,52.83,0,0,1,9.7,1.2,37.07,37.07,0,0,1,9.15,3.3,23.56,23.56,0,0,1,7.65,6.4,32.08,32.08,0,0,1,5.3,10.55,53.3,53.3,0,0,1,2,15.7,52.46,52.46,0,0,1-2,15.55,31.72,31.72,0,0,1-5.3,10.45,23.35,23.35,0,0,1-7.65,6.3,38.64,38.64,0,0,1-9.15,3.25,52.83,52.83,0,0,1-9.7,1.2c-3.27.1-6.33.15-9.2.15h-11.8v-74.2Zm6.3,63.3a50.84,50.84,0,0,0,8.75-.8,19.37,19.37,0,0,0,14.6-11.45q2.45-5.16,2.45-13.85a38.59,38.59,0,0,0-1.15-10.05,23.94,23.94,0,0,0-3.1-7.15,17.76,17.76,0,0,0-4.5-4.7,21.69,21.69,0,0,0-5.4-2.8,25,25,0,0,0-5.85-1.3q-3-.3-5.8-.3h-7.2v52.4Z"/><path class="cls-12" d="M686.24,232.35h10.9v34.8a10.27,10.27,0,0,0,.25,1.85,6.83,6.83,0,0,0,1.15,2.55,7.51,7.51,0,0,0,2.7,2.25,12.73,12.73,0,0,0,9.65,0,7.67,7.67,0,0,0,2.65-2.25,7,7,0,0,0,1.15-2.5,10.34,10.34,0,0,0,.25-1.8v-34.9h10.9v34.8c0,.26-.07.91-.2,2a19.22,19.22,0,0,1-.9,3.6,23.07,23.07,0,0,1-2,4.3,17.71,17.71,0,0,1-9,7.4,21.27,21.27,0,0,1-7.7,1.25,22.42,22.42,0,0,1-7.75-1.2,18.7,18.7,0,0,1-5.45-3,15.23,15.23,0,0,1-3.5-4,21.94,21.94,0,0,1-2-4.3,19.25,19.25,0,0,1-.9-3.7,19.69,19.69,0,0,1-.2-2.3Z"/><path class="cls-12" d="M810.84,264.75v20.9h-11v-74.2h10.9v32.7a19.45,19.45,0,0,1,3.6-5.9,20.22,20.22,0,0,1,5.15-4.15,15.44,15.44,0,0,1,8-1.85,17.37,17.37,0,0,1,6.6,1.3,17,17,0,0,1,5.6,3.65,18.09,18.09,0,0,1,3.85,5.55,17.1,17.1,0,0,1,1.45,7.1v35.8H834v-30.1a20.16,20.16,0,0,0-.45-4.35,10.92,10.92,0,0,0-1.49-3.65,7.24,7.24,0,0,0-2.79-2.5,9.12,9.12,0,0,0-4.23-.9,8.59,8.59,0,0,0-4.58,1.6,18.18,18.18,0,0,0-4.63,4.4,25.94,25.94,0,0,0-3.59,6.55A22.25,22.25,0,0,0,810.84,264.75Z"/><path class="cls-12" d="M911.34,235.35v50.3h-10.9v-7.2a26.88,26.88,0,0,1-8.5,7.2,22.94,22.94,0,0,1-20.6.5,25.89,25.89,0,0,1-8.05-6,29.59,29.59,0,0,1,0-39.4,25.59,25.59,0,0,1,8.05-6,22.35,22.35,0,0,1,9.8-2.2,22.71,22.71,0,0,1,10.8,2.65,25.69,25.69,0,0,1,8.5,7.25v-7.1ZM884,277.15a16.06,16.06,0,0,0,6.4-1.3,16.28,16.28,0,0,0,5.2-3.55,17.42,17.42,0,0,0,3.5-5.25,16.78,16.78,0,0,0,0-13,17.17,17.17,0,0,0-3.5-5.3,16.12,16.12,0,0,0-5.2-3.55,16.4,16.4,0,0,0-12.8,0,16.68,16.68,0,0,0-5.25,3.55,16.45,16.45,0,0,0-3.55,5.3,16.78,16.78,0,0,0,0,13,16.68,16.68,0,0,0,3.55,5.25,16.84,16.84,0,0,0,5.25,3.55A16,16,0,0,0,884,277.15Z"/><path class="cls-12" d="M926.84,232.35h10.9V239a13.44,13.44,0,0,1,4-3.3,29.56,29.56,0,0,1,5.8-2.25,32.68,32.68,0,0,1,9-1.05v10.9a39.48,39.48,0,0,0-6,.5,27,27,0,0,0-6.15,1.65,13.84,13.84,0,0,0-4.75,3,6.36,6.36,0,0,0-1.9,4.7v32.5h-10.9Z"/><path class="cls-12" d="M1053.33,285.65l-26.8-53.3h13l13.8,28,13.8-28h13Z"/><path class="cls-12" d="M1092.13,232.35H1103v34.8a11.29,11.29,0,0,0,.25,1.85,7,7,0,0,0,1.15,2.55,7.51,7.51,0,0,0,2.7,2.25,12.73,12.73,0,0,0,9.65,0,7.58,7.58,0,0,0,2.65-2.25,6.85,6.85,0,0,0,1.15-2.5,9.44,9.44,0,0,0,.25-1.8v-34.9h10.9v34.8a19.51,19.51,0,0,1-.2,2,18.47,18.47,0,0,1-.9,3.6,22.46,22.46,0,0,1-2.05,4.3,17.71,17.71,0,0,1-8.95,7.4,21.24,21.24,0,0,1-7.7,1.25,22.42,22.42,0,0,1-7.75-1.2,19,19,0,0,1-5.45-3,15.41,15.41,0,0,1-3.5-4,23.16,23.16,0,0,1-2-4.3,20.87,20.87,0,0,1-.9-3.7,22.25,22.25,0,0,1-.2-2.3Z"/><path class="cls-12" d="M1145.73,285.65v-53.3h10.9l-.1,7.4a15.18,15.18,0,0,1,3.5-3.7,19.77,19.77,0,0,1,12.3-3.7,19.35,19.35,0,0,1,9,1.75,12.38,12.38,0,0,1,5.1,4.7,17.93,17.93,0,0,1,2.3,6.7,52.86,52.86,0,0,1,.55,7.75v32.4h-10.9v-33.1a8.46,8.46,0,0,0-2.09-5.6,7.45,7.45,0,0,0-6.07-2.5,16.2,16.2,0,0,0-5.13.8,12.25,12.25,0,0,0-4.28,2.4,12,12,0,0,0-3,4,12.76,12.76,0,0,0-1.15,5.6v28.4Z"/><path class="cls-12" d="M1255,211.45v74.2h-10.9v-7.9a24.62,24.62,0,0,1-8.1,7.07,22.07,22.07,0,0,1-20,.48,24.32,24.32,0,0,1-7.75-5.89,28.23,28.23,0,0,1-5.2-8.73,31,31,0,0,1,0-21.36,28.4,28.4,0,0,1,5.2-8.74,24.47,24.47,0,0,1,7.75-5.89,22,22,0,0,1,20,.51,24.75,24.75,0,0,1,8.1,7.15v-30.9Zm-26.7,65.1a14.75,14.75,0,0,0,6.15-1.3,16.1,16.1,0,0,0,5-3.55,17,17,0,0,0,3.4-5.2,16.45,16.45,0,0,0-8.4-21.35,15.2,15.2,0,0,0-12.3,0,16.39,16.39,0,0,0-8.4,8.65,16.75,16.75,0,0,0,0,12.7,17.4,17.4,0,0,0,3.4,5.2,16.22,16.22,0,0,0,5,3.55A14.75,14.75,0,0,0,1228.33,276.55Z"/><path class="cls-12" d="M1292.83,232.25a24.38,24.38,0,0,1,9.5,1.65,21,21,0,0,1,6.5,4.15,20.46,20.46,0,0,1,4.15,5.55,30.33,30.33,0,0,1,2.3,5.85,26.42,26.42,0,0,1,.9,5c.1,1.43.15,2.41.15,3v5.2h-38.4a9.47,9.47,0,0,0,.8,3.12,14.24,14.24,0,0,0,2.55,4.07,15.43,15.43,0,0,0,4.6,3.52,14.9,14.9,0,0,0,6.95,1.49,32.75,32.75,0,0,0,7.55-.8,44.58,44.58,0,0,0,5.85-1.8,27.43,27.43,0,0,0,5.2-2.6V280.7a8.34,8.34,0,0,1-3,1.82,30.47,30.47,0,0,1-5,1.56q-2.8.66-5.7,1.11a32.13,32.13,0,0,1-5,.46,30.55,30.55,0,0,1-3.45-.3,24.79,24.79,0,0,1-5.25-1.35,30.94,30.94,0,0,1-5.9-2.95,23,23,0,0,1-5.5-5,25.69,25.69,0,0,1-4.1-7.65,33.12,33.12,0,0,1-1.6-10.95,24.33,24.33,0,0,1,1.75-8.9,25.71,25.71,0,0,1,5-8.1,26.14,26.14,0,0,1,8.1-5.9A24.81,24.81,0,0,1,1292.83,232.25Zm12.6,21.4a15.51,15.51,0,0,0-1.9-6,14.15,14.15,0,0,0-3.75-4.2,10.92,10.92,0,0,0-6.85-1.9,16.22,16.22,0,0,0-7.3,1.45,14.66,14.66,0,0,0-4.6,3.4,12.14,12.14,0,0,0-2.4,4,10.62,10.62,0,0,0-.7,3.25Z"/><path class="cls-12" d="M1361.83,244.85h-11.9v40.8h-11.1v-40.8h-8.4V234h8.4v-18.6l11.1-3.9V234h11.9Z"/><g class="cls-13"><rect id="Hoved" class="cls-14" x="876.84" y="640.57" width="236.01" height="184.57" rx="56.41"/><path id="re_1" data-name="re 1" class="cls-15" d="M929.67,645.82c3.15,8.27,4.28,17.76,6.41,36.42,1,8.77,1.31,13.15-1.28,17.54-2.07,3.51-6.41,7.7-11.54,8.09-3,.22-4.17-1-10.26-1.35a54.47,54.47,0,0,0-6.42,0c-11,.46-17.3-4-33.35-5.4-8.44-.73-11.18.11-14.11-2.69-4.15-4-5.46-12.2-2.56-16.19,1.22-1.68,2.33-1.45,5.13-4a26.35,26.35,0,0,0,5.13-6.74C869,667.75,894,635.82,915.56,631c2-.45.25-.67,2.57,0C920.18,631.57,924,631,929.67,645.82Z"/><path id="re_2" data-name="re 2" class="cls-15" d="M1072.05,629.11a16.85,16.85,0,0,0-3.85,0c-5.1.79-8.39,8.13-9,9.44-1.63,3.64-1.8,6.15-2.57,16.19-.79,10.31-1.19,15.47-1.28,16.19-1.32,10.41-2.91,12.66-2.57,20.23.3,6.53,1.53,9.16,2.57,10.8a16.47,16.47,0,0,0,9,6.74c1.63.51,3.83.89,10.26,0a95.59,95.59,0,0,0,12.82-2.7,86,86,0,0,1,20.53-2.69c5.64-.11,5.55.47,9,0,4.13-.58,12.93-1.79,15.39-8.1,1.45-3.72.28-8.16-1.29-10.79-1-1.64-1.77-2-6.41-6.74l-3.85-4c-4.45-4.7-35.67-39.84-43.61-43.17A21.19,21.19,0,0,0,1072.05,629.11Z"/><path id="Mund" class="cls-16" d="M1002.54,834.59a74,74,0,0,0-14.11,0,79.22,79.22,0,0,0-9,1.34c-9.05,1.9-10.74,3.93-16.67,5.4-3.2.79-14.81,3.67-24.37-2.7-1.71-1.14-8.95-5.17-9-10.79,0-.92.18-2,2.57-6.74a84.73,84.73,0,0,1,5.13-9.45c5.08-7.89,7.34-16.67,11.54-25.63,3.3-7,8.26-17.53,16.67-24.28,16.51-13.25,45.87-11.68,59,2.7,3.79,4.15,7.23,11.31,14.11,25.63,4.58,9.55,5,12.06,9,17.54,3.57,5,6.12,7,7.7,12.14.69,2.23,2.49,8.09,0,13.49-3.79,8.21-14.71,9.25-16.67,9.44-3.06.29-8.5-1.15-19.24-4S1007.12,835.06,1002.54,834.59Z"/><path id="Nse" class="cls-17" d="M1021.45,758.29c-.51,15.47-23.49,31-32.31,26.1-10.07-5.57-16.08-9.2-18.92-15.27a30.28,30.28,0,0,1-2-12.77C969.79,748.4,1021.91,744.2,1021.45,758.29Z"/><path class="cls-18" d="M964.7,676.94c13.93,3.71,33.37,6.39,53.81.57,2.25-.64,4.4-1.35,6.47-2.12"/><path d="M1024.49,793.79a33.75,33.75,0,0,1-14,27.65,30.23,30.23,0,0,1-35.17,0,33.74,33.74,0,0,1-14-27.65Z"/><path class="cls-19" d="M1010.46,821.85a32.18,32.18,0,0,1-35.17,0,18.47,18.47,0,0,1,35.17,0Z"/><path class="cls-20" d="M1031.06,740.48c0-10.55,8.8-19.1,19.66-19.1s19.65,8.55,19.65,19.1"/><path class="cls-20" d="M922,742.14c0-10.55,8.8-19.1,19.65-19.1s19.66,8.55,19.66,19.1"/></g></svg>