<svg id="Layer_1" data-name="Layer 1" xmlns="http://www.w3.org/2000/svg" width="155" height="155" viewBox="0 0 155 155"><defs><style>.cls-1{fill:#c82c1f;}.cls-2{fill:#be291c;}.cls-3{fill:none;stroke:#eb7c7c;stroke-miterlimit:10;stroke-width:6px;}</style></defs><title>liv</title><path class="cls-1" d="M105.27,46.55A19,19,0,0,1,99.73,60L64.44,95.42,37.69,68.55l0,0-9.44-9.47a19,19,0,0,1,0-26.86A18.87,18.87,0,0,1,55,32.2l9.44,9.47L73,33.11a18.92,18.92,0,0,1,32.29,13.44Z"/><path class="cls-2" d="M64,41.21V95L37.69,68.55l0,0-9.44-9.47a19,19,0,0,1,0-26.86A18.87,18.87,0,0,1,55,32.2Z"/><path class="cls-3" d="M39.89,31.8c-4.07-.22-7.65,1.39-9.14,4.26A7,7,0,0,0,30,39.4"/></svg>