<svg id="Layer_1" data-name="Layer 1" xmlns="http://www.w3.org/2000/svg" width="155" height="155" viewBox="0 0 155 155"><defs><style>.cls-1{fill:red;}</style></defs><title>point</title><path class="cls-1" d="M31.38,68a13.09,13.09,0,0,1-5.09-1A13.8,13.8,0,0,1,19,59.7a13.29,13.29,0,0,1-1-5.16,13.09,13.09,0,0,1,1-5.09,13.28,13.28,0,0,1,7.26-7.26,13.1,13.1,0,0,1,5.09-1,13.14,13.14,0,0,1,9.46,3.91,13,13,0,0,1,2.93,4.36,13.44,13.44,0,0,1,1,5.09,13.58,13.58,0,0,1-1,5.19l-9.21,24H28.64l6.22-16.22A13.26,13.26,0,0,1,31.38,68Zm0-21.29A7.93,7.93,0,0,0,25.8,49a7.75,7.75,0,0,0-2.28,5.58,7.87,7.87,0,0,0,.6,3.08,8.39,8.39,0,0,0,1.68,2.54,7.55,7.55,0,0,0,2.5,1.7,8.08,8.08,0,0,0,6.16,0,7.45,7.45,0,0,0,2.5-1.7,8,8,0,0,0,1.68-2.54,7.87,7.87,0,0,0-7.26-10.95Z"/><path class="cls-1" d="M47.79,83.7,73.41,38.44h6.35L54.08,83.7Z"/><path class="cls-1" d="M91.83,83.7V47.59l-7.56,3.66-2.38-4.94,10.49-5.13h4.94V83.7Z"/><path class="cls-1" d="M115.56,83.7a11.19,11.19,0,0,1-6.28-1.89,13.69,13.69,0,0,1-2.59-2,18.4,18.4,0,0,1-2.23-2.72,23.38,23.38,0,0,1-3-6.71,29.7,29.7,0,0,1,0-15.8,23.63,23.63,0,0,1,3-6.71,18.3,18.3,0,0,1,2.23-2.71,13.69,13.69,0,0,1,2.59-2,11.35,11.35,0,0,1,12.57,0,14.35,14.35,0,0,1,2.59,2,18.9,18.9,0,0,1,2.22,2.71,23.36,23.36,0,0,1,3,6.71,29.7,29.7,0,0,1,0,15.8,23.11,23.11,0,0,1-3,6.71,19,19,0,0,1-2.22,2.72,14.35,14.35,0,0,1-2.59,2A11.22,11.22,0,0,1,115.56,83.7Zm0-37c-2.48,0-4.65,1.41-6.52,4.21a16.93,16.93,0,0,0-2.38,5.28,24,24,0,0,0-.8,6.25,24.32,24.32,0,0,0,.8,6.32A16.77,16.77,0,0,0,109,74a11.39,11.39,0,0,0,3.08,3.11,5.94,5.94,0,0,0,6.89,0A11.54,11.54,0,0,0,122.09,74a18.46,18.46,0,0,0,2.35-5.27,23.48,23.48,0,0,0,.82-6.32,23.18,23.18,0,0,0-.82-6.25,18.65,18.65,0,0,0-2.35-5.28C120.22,48.08,118,46.67,115.56,46.67Z"/></svg>