<svg id="Layer_1" data-name="Layer 1" xmlns="http://www.w3.org/2000/svg" width="155" height="155" viewBox="0 0 155 155"><defs><style>.cls-1{fill:#dd0505;}.cls-2{fill:#d30202;}.cls-3{fill:#fff;}</style></defs><path class="cls-1" d="M23,77.07A54.89,54.89,0,0,1,77.87,22.14a53.52,53.52,0,0,1,5.69.3,54.94,54.94,0,0,1,0,109.27,56.3,56.3,0,0,1-5.69.29A54.89,54.89,0,0,1,23,77.07"/><path class="cls-2" d="M22.5,77.07A54.89,54.89,0,0,0,77.35,132a56.15,56.15,0,0,0,5.69-.29A54.94,54.94,0,0,1,83,22.44a53.38,53.38,0,0,0-5.69-.3A54.89,54.89,0,0,0,22.5,77.07"/><ellipse class="cls-1" cx="80.46" cy="78.2" rx="49.16" ry="53.8"/><polygon class="cls-3" points="54.58 62.85 79.42 43.23 80.46 110.91 54.58 90.31 54.58 62.85"/><path class="cls-3" d="M42.16,90.31H52.51V63.83H42.16a3,3,0,0,0-3.1,2.94v20.6a3,3,0,0,0,3.1,2.94Z"/><polygon class="cls-3" points="94.51 91.95 90.21 87.7 116.08 64.16 120.38 68.41 94.51 91.95"/><polygon class="cls-3" points="114.68 91.78 92.51 68.24 97.14 64.32 119.32 87.86 114.68 91.78"/></svg>